<?xml version="1.0" encoding="UTF-8" standalone="no"?><svg xmlns="http://www.w3.org/2000/svg" xmlns:xlink="http://www.w3.org/1999/xlink" clip-rule="evenodd" stroke-miterlimit="10" viewBox="0 0 184 37"><desc>SVG generated by Keynote</desc><defs></defs><g transform="matrix(1.00, 0.00, -0.00, -1.00, 0.0, 37.0)"><text xml:space="preserve" font-family="Helvetica-Light,Helvetica" font-size="36.0" fill="#FEFFFF" transform="matrix(1.00, 0.00, -0.00, -1.00, 0.9, 8.7)">A</text><text xml:space="preserve" font-family="Helvetica-Light,Helvetica" font-size="36.0" fill="#FEFFFF" transform="matrix(1.00, 0.00, -0.00, -1.00, 24.9, 8.7)">d</text><text xml:space="preserve" font-family="Helvetica-Light,Helvetica" font-size="36.0" fill="#FEFFFF" transform="matrix(1.00, 0.00, -0.00, -1.00, 46.9, 8.7)">e</text><text xml:space="preserve" font-family="Helvetica-Light,Helvetica" font-size="36.0" fill="#FEFFFF" transform="matrix(1.00, 0.00, -0.00, -1.00, 66.9, 8.7)">n</text><text xml:space="preserve" font-family="Helvetica-Light,Helvetica" font-size="36.0" fill="#FEFFFF" transform="matrix(1.00, 0.00, -0.00, -1.00, 86.9, 8.7)">i</text><text xml:space="preserve" font-family="Helvetica-Light,Helvetica" font-size="36.0" fill="#FEFFFF" transform="matrix(1.00, 0.00, -0.00, -1.00, 94.9, 8.7)">n</text><text xml:space="preserve" font-family="Helvetica-Light,Helvetica" font-size="36.0" fill="#FEFFFF" transform="matrix(1.00, 0.00, -0.00, -1.00, 114.9, 8.7)">e</text><text xml:space="preserve" font-family="Helvetica-Light,Helvetica" font-size="36.0" fill="#FEFFFF" transform="matrix(1.00, 0.00, -0.00, -1.00, 134.9, 8.7)">(</text><text xml:space="preserve" font-family="Helvetica-Light,Helvetica" font-size="36.0" fill="#FEFFFF" transform="matrix(1.00, 0.00, -0.00, -1.00, 146.9, 8.7)">A</text><text xml:space="preserve" font-family="Helvetica-Light,Helvetica" font-size="36.0" fill="#FEFFFF" transform="matrix(1.00, 0.00, -0.00, -1.00, 170.9, 8.7)">)</text></g></svg>