<?xml version="1.0" encoding="UTF-8" standalone="no"?><svg xmlns="http://www.w3.org/2000/svg" xmlns:xlink="http://www.w3.org/1999/xlink" clip-rule="evenodd" stroke-miterlimit="10" viewBox="0 0 1024 768"><desc>SVG generated by Keynote</desc><defs></defs><g transform="matrix(1.00, 0.00, -0.00, -1.00, 0.0, 768.0)"><path d="M 0.0 768.0 L 1024.0 768.0 L 1024.0 0.0 L 0.0 0.0 Z M 0.0 768.0 " fill="#000000"></path><text xml:space="preserve" font-family="Helvetica-Light,Helvetica" font-size="80.0" fill="#FEFFFF" transform="matrix(1.00, 0.00, -0.00, -1.00, 243.1, 633.4)">A</text><text xml:space="preserve" font-family="Helvetica-Light,Helvetica" font-size="80.0" fill="#FEFFFF" transform="matrix(1.00, 0.00, -0.00, -1.00, 296.4, 633.4)">l</text><text xml:space="preserve" font-family="Helvetica-Light,Helvetica" font-size="80.0" fill="#FEFFFF" transform="matrix(1.00, 0.00, -0.00, -1.00, 314.2, 633.4)">g</text><text xml:space="preserve" font-family="Helvetica-Light,Helvetica" font-size="80.0" fill="#FEFFFF" transform="matrix(1.00, 0.00, -0.00, -1.00, 363.1, 633.4)">o</text><text xml:space="preserve" font-family="Helvetica-Light,Helvetica" font-size="80.0" fill="#FEFFFF" transform="matrix(1.00, 0.00, -0.00, -1.00, 407.6, 633.4)">r</text><text xml:space="preserve" font-family="Helvetica-Light,Helvetica" font-size="80.0" fill="#FEFFFF" transform="matrix(1.00, 0.00, -0.00, -1.00, 434.2, 633.4)">i</text><text xml:space="preserve" font-family="Helvetica-Light,Helvetica" font-size="80.0" fill="#FEFFFF" transform="matrix(1.00, 0.00, -0.00, -1.00, 452.0, 633.4)">t</text><text xml:space="preserve" font-family="Helvetica-Light,Helvetica" font-size="80.0" fill="#FEFFFF" transform="matrix(1.00, 0.00, -0.00, -1.00, 474.2, 633.4)">m</text><text xml:space="preserve" font-family="Helvetica-Light,Helvetica" font-size="80.0" fill="#FEFFFF" transform="matrix(1.00, 0.00, -0.00, -1.00, 540.8, 633.4)">e</text><text xml:space="preserve" font-family="Helvetica-Light,Helvetica" font-size="80.0" fill="#FEFFFF" transform="matrix(1.00, 0.00, -0.00, -1.00, 585.3, 633.4)">n</text><text xml:space="preserve" font-family="Helvetica-Light,Helvetica" font-size="80.0" fill="#FEFFFF" transform="matrix(1.00, 0.00, -0.00, -1.00, 629.8, 633.4)"> </text><text xml:space="preserve" font-family="Helvetica-Light,Helvetica" font-size="80.0" fill="#FEFFFF" transform="matrix(1.00, 0.00, -0.00, -1.00, 652.0, 633.4)">T</text><text xml:space="preserve" font-family="Helvetica-Light,Helvetica" font-size="80.0" fill="#FEFFFF" transform="matrix(1.00, 0.00, -0.00, -1.00, 696.5, 633.4)">i</text><text xml:space="preserve" font-family="Helvetica-Light,Helvetica" font-size="80.0" fill="#FEFFFF" transform="matrix(1.00, 0.00, -0.00, -1.00, 714.3, 633.4)">j</text><text xml:space="preserve" font-family="Helvetica-Light,Helvetica" font-size="80.0" fill="#FEFFFF" transform="matrix(1.00, 0.00, -0.00, -1.00, 732.0, 633.4)">d</text><g><g><clipPath id="clip0x6080068a3540"><path d="M 100.0 550.0 L 924.0 550.0 L 924.0 100.0 L 100.0 100.0 Z M 100.0 550.0 "></path></clipPath><g clip-path="url(#clip0x6080068a3540)"><g><clipPath id="clip0x6080068a3420"><path d="M 375.7 438.5 L 648.3 438.5 L 648.3 550.0 L 375.7 550.0 Z M 375.7 438.5 "></path></clipPath><g clip-path="url(#clip0x6080068a3420)"><text xml:space="preserve" font-family="Helvetica-Bold,Helvetica" font-weight="bold" font-size="28.0" fill="#FEFFFE" transform="matrix(1.00, 0.00, -0.00, -1.00, 437.9, 500.4)">R</text><text xml:space="preserve" font-family="Helvetica-Bold,Helvetica" font-weight="bold" font-size="28.0" fill="#FEFFFE" transform="matrix(1.00, 0.00, -0.00, -1.00, 458.1, 500.4)">N</text><text xml:space="preserve" font-family="Helvetica-Bold,Helvetica" font-weight="bold" font-size="28.0" fill="#FEFFFE" transform="matrix(1.00, 0.00, -0.00, -1.00, 478.3, 500.4)">A</text><text xml:space="preserve" font-family="Helvetica-Bold,Helvetica" font-weight="bold" font-size="28.0" fill="#FEFFFE" transform="matrix(1.00, 0.00, -0.00, -1.00, 497.5, 500.4)"> </text><text xml:space="preserve" font-family="Helvetica-Bold,Helvetica" font-weight="bold" font-size="28.0" fill="#FEFFFE" transform="matrix(1.00, 0.00, -0.00, -1.00, 505.3, 500.4)">S</text><text xml:space="preserve" font-family="Helvetica-Bold,Helvetica" font-weight="bold" font-size="28.0" fill="#FEFFFE" transform="matrix(1.00, 0.00, -0.00, -1.00, 524.0, 500.4)">t</text><text xml:space="preserve" font-family="Helvetica-Bold,Helvetica" font-weight="bold" font-size="28.0" fill="#FEFFFE" transform="matrix(1.00, 0.00, -0.00, -1.00, 533.3, 500.4)">r</text><text xml:space="preserve" font-family="Helvetica-Bold,Helvetica" font-weight="bold" font-size="28.0" fill="#FEFFFE" transform="matrix(1.00, 0.00, -0.00, -1.00, 544.2, 500.4)">i</text><text xml:space="preserve" font-family="Helvetica-Bold,Helvetica" font-weight="bold" font-size="28.0" fill="#FEFFFE" transform="matrix(1.00, 0.00, -0.00, -1.00, 552.0, 500.4)">n</text><text xml:space="preserve" font-family="Helvetica-Bold,Helvetica" font-weight="bold" font-size="28.0" fill="#FEFFFE" transform="matrix(1.00, 0.00, -0.00, -1.00, 569.0, 500.4)">g</text><text xml:space="preserve" font-family="Helvetica-Bold,Helvetica" font-weight="bold" font-size="28.0" fill="#FEFFFE" transform="matrix(1.00, 0.00, -0.00, -1.00, 483.2, 466.4)">K</text><text xml:space="preserve" font-family="Helvetica-Bold,Helvetica" font-weight="bold" font-size="28.0" fill="#FEFFFE" transform="matrix(1.00, 0.00, -0.00, -1.00, 503.5, 466.4)">o</text><text xml:space="preserve" font-family="Helvetica-Bold,Helvetica" font-weight="bold" font-size="28.0" fill="#FEFFFE" transform="matrix(1.00, 0.00, -0.00, -1.00, 520.6, 466.4)">r</text><text xml:space="preserve" font-family="Helvetica-Bold,Helvetica" font-weight="bold" font-size="28.0" fill="#FEFFFE" transform="matrix(1.00, 0.00, -0.00, -1.00, 531.5, 466.4)">t</text></g></g></g></g><g><clipPath id="clip0x6080068a3ea0"><path d="M 100.0 550.0 L 924.0 550.0 L 924.0 100.0 L 100.0 100.0 Z M 100.0 550.0 "></path></clipPath><g clip-path="url(#clip0x6080068a3ea0)"><g><clipPath id="clip0x6080068a3c00"><path d="M 650.3 438.5 L 924.0 438.5 L 924.0 550.0 L 650.3 550.0 Z M 650.3 438.5 "></path></clipPath><g clip-path="url(#clip0x6080068a3c00)"><text xml:space="preserve" font-family="Helvetica-Bold,Helvetica" font-weight="bold" font-size="28.0" fill="#FEFFFE" transform="matrix(1.00, 0.00, -0.00, -1.00, 713.0, 500.4)">R</text><text xml:space="preserve" font-family="Helvetica-Bold,Helvetica" font-weight="bold" font-size="28.0" fill="#FEFFFE" transform="matrix(1.00, 0.00, -0.00, -1.00, 733.2, 500.4)">N</text><text xml:space="preserve" font-family="Helvetica-Bold,Helvetica" font-weight="bold" font-size="28.0" fill="#FEFFFE" transform="matrix(1.00, 0.00, -0.00, -1.00, 753.5, 500.4)">A</text><text xml:space="preserve" font-family="Helvetica-Bold,Helvetica" font-weight="bold" font-size="28.0" fill="#FEFFFE" transform="matrix(1.00, 0.00, -0.00, -1.00, 772.7, 500.4)"> </text><text xml:space="preserve" font-family="Helvetica-Bold,Helvetica" font-weight="bold" font-size="28.0" fill="#FEFFFE" transform="matrix(1.00, 0.00, -0.00, -1.00, 780.4, 500.4)">S</text><text xml:space="preserve" font-family="Helvetica-Bold,Helvetica" font-weight="bold" font-size="28.0" fill="#FEFFFE" transform="matrix(1.00, 0.00, -0.00, -1.00, 799.1, 500.4)">t</text><text xml:space="preserve" font-family="Helvetica-Bold,Helvetica" font-weight="bold" font-size="28.0" fill="#FEFFFE" transform="matrix(1.00, 0.00, -0.00, -1.00, 808.4, 500.4)">r</text><text xml:space="preserve" font-family="Helvetica-Bold,Helvetica" font-weight="bold" font-size="28.0" fill="#FEFFFE" transform="matrix(1.00, 0.00, -0.00, -1.00, 819.3, 500.4)">i</text><text xml:space="preserve" font-family="Helvetica-Bold,Helvetica" font-weight="bold" font-size="28.0" fill="#FEFFFE" transform="matrix(1.00, 0.00, -0.00, -1.00, 827.1, 500.4)">n</text><text xml:space="preserve" font-family="Helvetica-Bold,Helvetica" font-weight="bold" font-size="28.0" fill="#FEFFFE" transform="matrix(1.00, 0.00, -0.00, -1.00, 844.2, 500.4)">g</text><text xml:space="preserve" font-family="Helvetica-Bold,Helvetica" font-weight="bold" font-size="28.0" fill="#FEFFFE" transform="matrix(1.00, 0.00, -0.00, -1.00, 753.7, 466.4)">L</text><text xml:space="preserve" font-family="Helvetica-Bold,Helvetica" font-weight="bold" font-size="28.0" fill="#FEFFFE" transform="matrix(1.00, 0.00, -0.00, -1.00, 770.8, 466.4)">a</text><text xml:space="preserve" font-family="Helvetica-Bold,Helvetica" font-weight="bold" font-size="28.0" fill="#FEFFFE" transform="matrix(1.00, 0.00, -0.00, -1.00, 786.4, 466.4)">n</text><text xml:space="preserve" font-family="Helvetica-Bold,Helvetica" font-weight="bold" font-size="28.0" fill="#FEFFFE" transform="matrix(1.00, 0.00, -0.00, -1.00, 803.5, 466.4)">g</text></g></g></g></g><g><clipPath id="clip0x6080068a45c0"><path d="M 100.0 550.0 L 924.0 550.0 L 924.0 100.0 L 100.0 100.0 Z M 100.0 550.0 "></path></clipPath><g clip-path="url(#clip0x6080068a45c0)"><g><clipPath id="clip0x6080068a4680"><path d="M 100.0 326.0 L 373.7 326.0 L 373.7 436.5 L 100.0 436.5 Z M 100.0 326.0 "></path></clipPath><g clip-path="url(#clip0x6080068a4680)"><text xml:space="preserve" font-family="Helvetica-Bold,Helvetica" font-weight="bold" font-size="28.0" fill="#FEFFFE" transform="matrix(1.00, 0.00, -0.00, -1.00, 207.3, 370.9)">C</text><text xml:space="preserve" font-family="Helvetica-Bold,Helvetica" font-weight="bold" font-size="28.0" fill="#FEFFFE" transform="matrix(1.00, 0.00, -0.00, -1.00, 227.5, 370.9)">F</text><text xml:space="preserve" font-family="Helvetica-Bold,Helvetica" font-weight="bold" font-size="28.0" fill="#FEFFFE" transform="matrix(1.00, 0.00, -0.00, -1.00, 244.6, 370.9)">G</text></g></g></g></g><g><clipPath id="clip0x6080068a4b00"><path d="M 100.0 550.0 L 924.0 550.0 L 924.0 100.0 L 100.0 100.0 Z M 100.0 550.0 "></path></clipPath><g clip-path="url(#clip0x6080068a4b00)"><g><clipPath id="clip0x6080068a4c20"><path d="M 375.7 325.5 L 648.8 325.5 L 648.8 436.5 L 375.7 436.5 Z M 375.7 325.5 "></path></clipPath><g clip-path="url(#clip0x6080068a4c20)"><text xml:space="preserve" font-family="Helvetica-Light,Helvetica" font-size="28.0" fill="#FEFFFE" transform="matrix(1.00, 0.00, -0.00, -1.00, 453.9, 369.9)">0</text><text xml:space="preserve" font-family="Helvetica-Light,Helvetica" font-size="28.0" fill="#FEFFFE" transform="matrix(1.00, 0.00, -0.00, -1.00, 469.4, 369.9)">.</text><text xml:space="preserve" font-family="Helvetica-Light,Helvetica" font-size="28.0" fill="#FEFFFE" transform="matrix(1.00, 0.00, -0.00, -1.00, 477.2, 369.9)">0</text><text xml:space="preserve" font-family="Helvetica-Light,Helvetica" font-size="28.0" fill="#FEFFFE" transform="matrix(1.00, 0.00, -0.00, -1.00, 492.8, 369.9)">0</text><text xml:space="preserve" font-family="Helvetica-Light,Helvetica" font-size="28.0" fill="#FEFFFE" transform="matrix(1.00, 0.00, -0.00, -1.00, 508.4, 369.9)">0</text><text xml:space="preserve" font-family="Helvetica-Light,Helvetica" font-size="28.0" fill="#FEFFFE" transform="matrix(1.00, 0.00, -0.00, -1.00, 523.9, 369.9)">8</text><text xml:space="preserve" font-family="Helvetica-Light,Helvetica" font-size="28.0" fill="#FEFFFE" transform="matrix(1.00, 0.00, -0.00, -1.00, 539.5, 369.9)">1</text><text xml:space="preserve" font-family="Helvetica-Light,Helvetica" font-size="28.0" fill="#FEFFFE" transform="matrix(1.00, 0.00, -0.00, -1.00, 555.1, 369.9)">8</text></g></g></g></g><g><clipPath id="clip0x6080068a4e60"><path d="M 100.0 550.0 L 924.0 550.0 L 924.0 100.0 L 100.0 100.0 Z M 100.0 550.0 "></path></clipPath><g clip-path="url(#clip0x6080068a4e60)"><g><clipPath id="clip0x6080068aa140"><path d="M 649.8 325.5 L 924.0 325.5 L 924.0 436.5 L 649.8 436.5 Z M 649.8 325.5 "></path></clipPath><g clip-path="url(#clip0x6080068aa140)"><text xml:space="preserve" font-family="Helvetica-Light,Helvetica" font-size="28.0" fill="#FEFFFE" transform="matrix(1.00, 0.00, -0.00, -1.00, 728.5, 369.9)">0</text><text xml:space="preserve" font-family="Helvetica-Light,Helvetica" font-size="28.0" fill="#FEFFFE" transform="matrix(1.00, 0.00, -0.00, -1.00, 744.1, 369.9)">.</text><text xml:space="preserve" font-family="Helvetica-Light,Helvetica" font-size="28.0" fill="#FEFFFE" transform="matrix(1.00, 0.00, -0.00, -1.00, 751.9, 369.9)">0</text><text xml:space="preserve" font-family="Helvetica-Light,Helvetica" font-size="28.0" fill="#FEFFFE" transform="matrix(1.00, 0.00, -0.00, -1.00, 767.5, 369.9)">0</text><text xml:space="preserve" font-family="Helvetica-Light,Helvetica" font-size="28.0" fill="#FEFFFE" transform="matrix(1.00, 0.00, -0.00, -1.00, 783.0, 369.9)">3</text><text xml:space="preserve" font-family="Helvetica-Light,Helvetica" font-size="28.0" fill="#FEFFFE" transform="matrix(1.00, 0.00, -0.00, -1.00, 798.6, 369.9)">5</text><text xml:space="preserve" font-family="Helvetica-Light,Helvetica" font-size="28.0" fill="#FEFFFE" transform="matrix(1.00, 0.00, -0.00, -1.00, 814.2, 369.9)">4</text><text xml:space="preserve" font-family="Helvetica-Light,Helvetica" font-size="28.0" fill="#FEFFFE" transform="matrix(1.00, 0.00, -0.00, -1.00, 829.7, 369.9)">8</text></g></g></g></g><g><clipPath id="clip0x6080068a9d80"><path d="M 100.0 550.0 L 924.0 550.0 L 924.0 100.0 L 100.0 100.0 Z M 100.0 550.0 "></path></clipPath><g clip-path="url(#clip0x6080068a9d80)"><g><clipPath id="clip0x6080068a97e0"><path d="M 100.0 213.5 L 373.7 213.5 L 373.7 324.0 L 100.0 324.0 Z M 100.0 213.5 "></path></clipPath><g clip-path="url(#clip0x6080068a97e0)"><text xml:space="preserve" font-family="Helvetica-Bold,Helvetica" font-weight="bold" font-size="28.0" fill="#FEFFFE" transform="matrix(1.00, 0.00, -0.00, -1.00, 134.4, 258.4)">T</text><text xml:space="preserve" font-family="Helvetica-Bold,Helvetica" font-weight="bold" font-size="28.0" fill="#FEFFFE" transform="matrix(1.00, 0.00, -0.00, -1.00, 149.5, 258.4)">u</text><text xml:space="preserve" font-family="Helvetica-Bold,Helvetica" font-weight="bold" font-size="28.0" fill="#FEFFFE" transform="matrix(1.00, 0.00, -0.00, -1.00, 166.5, 258.4)">r</text><text xml:space="preserve" font-family="Helvetica-Bold,Helvetica" font-weight="bold" font-size="28.0" fill="#FEFFFE" transform="matrix(1.00, 0.00, -0.00, -1.00, 177.5, 258.4)">i</text><text xml:space="preserve" font-family="Helvetica-Bold,Helvetica" font-weight="bold" font-size="28.0" fill="#FEFFFE" transform="matrix(1.00, 0.00, -0.00, -1.00, 185.2, 258.4)">n</text><text xml:space="preserve" font-family="Helvetica-Bold,Helvetica" font-weight="bold" font-size="28.0" fill="#FEFFFE" transform="matrix(1.00, 0.00, -0.00, -1.00, 202.3, 258.4)">g</text><text xml:space="preserve" font-family="Helvetica-Bold,Helvetica" font-weight="bold" font-size="28.0" fill="#FEFFFE" transform="matrix(1.00, 0.00, -0.00, -1.00, 219.4, 258.4)"> </text><text xml:space="preserve" font-family="Helvetica-Bold,Helvetica" font-weight="bold" font-size="28.0" fill="#FEFFFE" transform="matrix(1.00, 0.00, -0.00, -1.00, 227.2, 258.4)">M</text><text xml:space="preserve" font-family="Helvetica-Bold,Helvetica" font-weight="bold" font-size="28.0" fill="#FEFFFE" transform="matrix(1.00, 0.00, -0.00, -1.00, 250.5, 258.4)">a</text><text xml:space="preserve" font-family="Helvetica-Bold,Helvetica" font-weight="bold" font-size="28.0" fill="#FEFFFE" transform="matrix(1.00, 0.00, -0.00, -1.00, 266.1, 258.4)">c</text><text xml:space="preserve" font-family="Helvetica-Bold,Helvetica" font-weight="bold" font-size="28.0" fill="#FEFFFE" transform="matrix(1.00, 0.00, -0.00, -1.00, 281.7, 258.4)">h</text><text xml:space="preserve" font-family="Helvetica-Bold,Helvetica" font-weight="bold" font-size="28.0" fill="#FEFFFE" transform="matrix(1.00, 0.00, -0.00, -1.00, 298.8, 258.4)">i</text><text xml:space="preserve" font-family="Helvetica-Bold,Helvetica" font-weight="bold" font-size="28.0" fill="#FEFFFE" transform="matrix(1.00, 0.00, -0.00, -1.00, 306.5, 258.4)">n</text><text xml:space="preserve" font-family="Helvetica-Bold,Helvetica" font-weight="bold" font-size="28.0" fill="#FEFFFE" transform="matrix(1.00, 0.00, -0.00, -1.00, 323.6, 258.4)">e</text></g></g></g></g><g><clipPath id="clip0x6080068a9360"><path d="M 100.0 550.0 L 924.0 550.0 L 924.0 100.0 L 100.0 100.0 Z M 100.0 550.0 "></path></clipPath><g clip-path="url(#clip0x6080068a9360)"><g><clipPath id="clip0x6080068a9180"><path d="M 375.7 213.0 L 648.8 213.0 L 648.8 324.5 L 375.7 324.5 Z M 375.7 213.0 "></path></clipPath><g clip-path="url(#clip0x6080068a9180)"><text xml:space="preserve" font-family="Helvetica-Light,Helvetica" font-size="28.0" fill="#FEFFFE" transform="matrix(1.00, 0.00, -0.00, -1.00, 453.9, 257.9)">0</text><text xml:space="preserve" font-family="Helvetica-Light,Helvetica" font-size="28.0" fill="#FEFFFE" transform="matrix(1.00, 0.00, -0.00, -1.00, 469.4, 257.9)">.</text><text xml:space="preserve" font-family="Helvetica-Light,Helvetica" font-size="28.0" fill="#FEFFFE" transform="matrix(1.00, 0.00, -0.00, -1.00, 477.2, 257.9)">0</text><text xml:space="preserve" font-family="Helvetica-Light,Helvetica" font-size="28.0" fill="#FEFFFE" transform="matrix(1.00, 0.00, -0.00, -1.00, 492.8, 257.9)">1</text><text xml:space="preserve" font-family="Helvetica-Light,Helvetica" font-size="28.0" fill="#FEFFFE" transform="matrix(1.00, 0.00, -0.00, -1.00, 508.4, 257.9)">2</text><text xml:space="preserve" font-family="Helvetica-Light,Helvetica" font-size="28.0" fill="#FEFFFE" transform="matrix(1.00, 0.00, -0.00, -1.00, 523.9, 257.9)">1</text><text xml:space="preserve" font-family="Helvetica-Light,Helvetica" font-size="28.0" fill="#FEFFFE" transform="matrix(1.00, 0.00, -0.00, -1.00, 539.5, 257.9)">2</text><text xml:space="preserve" font-family="Helvetica-Light,Helvetica" font-size="28.0" fill="#FEFFFE" transform="matrix(1.00, 0.00, -0.00, -1.00, 555.1, 257.9)">2</text></g></g></g></g><g><clipPath id="clip0x6080068a85e0"><path d="M 100.0 550.0 L 924.0 550.0 L 924.0 100.0 L 100.0 100.0 Z M 100.0 550.0 "></path></clipPath><g clip-path="url(#clip0x6080068a85e0)"><g><clipPath id="clip0x6080068a8820"><path d="M 649.8 213.0 L 924.0 213.0 L 924.0 324.5 L 649.8 324.5 Z M 649.8 213.0 "></path></clipPath><g clip-path="url(#clip0x6080068a8820)"><text xml:space="preserve" font-family="Helvetica-Light,Helvetica" font-size="28.0" fill="#FEFFFE" transform="matrix(1.00, 0.00, -0.00, -1.00, 728.5, 257.9)">0</text><text xml:space="preserve" font-family="Helvetica-Light,Helvetica" font-size="28.0" fill="#FEFFFE" transform="matrix(1.00, 0.00, -0.00, -1.00, 744.1, 257.9)">.</text><text xml:space="preserve" font-family="Helvetica-Light,Helvetica" font-size="28.0" fill="#FEFFFE" transform="matrix(1.00, 0.00, -0.00, -1.00, 751.9, 257.9)">0</text><text xml:space="preserve" font-family="Helvetica-Light,Helvetica" font-size="28.0" fill="#FEFFFE" transform="matrix(1.00, 0.00, -0.00, -1.00, 767.5, 257.9)">3</text><text xml:space="preserve" font-family="Helvetica-Light,Helvetica" font-size="28.0" fill="#FEFFFE" transform="matrix(1.00, 0.00, -0.00, -1.00, 783.0, 257.9)">9</text><text xml:space="preserve" font-family="Helvetica-Light,Helvetica" font-size="28.0" fill="#FEFFFE" transform="matrix(1.00, 0.00, -0.00, -1.00, 798.6, 257.9)">0</text><text xml:space="preserve" font-family="Helvetica-Light,Helvetica" font-size="28.0" fill="#FEFFFE" transform="matrix(1.00, 0.00, -0.00, -1.00, 814.2, 257.9)">3</text><text xml:space="preserve" font-family="Helvetica-Light,Helvetica" font-size="28.0" fill="#FEFFFE" transform="matrix(1.00, 0.00, -0.00, -1.00, 829.7, 257.9)">3</text></g></g></g></g><g><clipPath id="clip0x6080068a8fa0"><path d="M 100.0 550.0 L 924.0 550.0 L 924.0 100.0 L 100.0 100.0 Z M 100.0 550.0 "></path></clipPath><g clip-path="url(#clip0x6080068a8fa0)"><g><clipPath id="clip0x6080068a8460"><path d="M 100.0 100.0 L 373.7 100.0 L 373.7 211.5 L 100.0 211.5 Z M 100.0 100.0 "></path></clipPath><g clip-path="url(#clip0x6080068a8460)"><text xml:space="preserve" font-family="Helvetica-Bold,Helvetica" font-weight="bold" font-size="28.0" fill="#FEFFFE" transform="matrix(1.00, 0.00, -0.00, -1.00, 172.5, 144.9)">L</text><text xml:space="preserve" font-family="Helvetica-Bold,Helvetica" font-weight="bold" font-size="28.0" fill="#FEFFFE" transform="matrix(1.00, 0.00, -0.00, -1.00, 189.6, 144.9)">L</text><text xml:space="preserve" font-family="Helvetica-Bold,Helvetica" font-weight="bold" font-size="28.0" fill="#FEFFFE" transform="matrix(1.00, 0.00, -0.00, -1.00, 206.2, 144.9)"> </text><text xml:space="preserve" font-family="Helvetica-Bold,Helvetica" font-weight="bold" font-size="28.0" fill="#FEFFFE" transform="matrix(1.00, 0.00, -0.00, -1.00, 214.0, 144.9)">P</text><text xml:space="preserve" font-family="Helvetica-Bold,Helvetica" font-weight="bold" font-size="28.0" fill="#FEFFFE" transform="matrix(1.00, 0.00, -0.00, -1.00, 232.6, 144.9)">a</text><text xml:space="preserve" font-family="Helvetica-Bold,Helvetica" font-weight="bold" font-size="28.0" fill="#FEFFFE" transform="matrix(1.00, 0.00, -0.00, -1.00, 248.2, 144.9)">r</text><text xml:space="preserve" font-family="Helvetica-Bold,Helvetica" font-weight="bold" font-size="28.0" fill="#FEFFFE" transform="matrix(1.00, 0.00, -0.00, -1.00, 259.1, 144.9)">s</text><text xml:space="preserve" font-family="Helvetica-Bold,Helvetica" font-weight="bold" font-size="28.0" fill="#FEFFFE" transform="matrix(1.00, 0.00, -0.00, -1.00, 274.7, 144.9)">e</text><text xml:space="preserve" font-family="Helvetica-Bold,Helvetica" font-weight="bold" font-size="28.0" fill="#FEFFFE" transform="matrix(1.00, 0.00, -0.00, -1.00, 290.3, 144.9)">r</text></g></g></g></g><g><clipPath id="clip0x6080068a7c80"><path d="M 100.0 550.0 L 924.0 550.0 L 924.0 100.0 L 100.0 100.0 Z M 100.0 550.0 "></path></clipPath><g clip-path="url(#clip0x6080068a7c80)"><g><clipPath id="clip0x6080068a7ce0"><path d="M 375.7 100.0 L 648.8 100.0 L 648.8 212.0 L 375.7 212.0 Z M 375.7 100.0 "></path></clipPath><g clip-path="url(#clip0x6080068a7ce0)"><text xml:space="preserve" font-family="Helvetica-Light,Helvetica" font-size="28.0" fill="#FEFFFE" transform="matrix(1.00, 0.00, -0.00, -1.00, 453.9, 145.4)">0</text><text xml:space="preserve" font-family="Helvetica-Light,Helvetica" font-size="28.0" fill="#FEFFFE" transform="matrix(1.00, 0.00, -0.00, -1.00, 469.4, 145.4)">.</text><text xml:space="preserve" font-family="Helvetica-Light,Helvetica" font-size="28.0" fill="#FEFFFE" transform="matrix(1.00, 0.00, -0.00, -1.00, 477.2, 145.4)">0</text><text xml:space="preserve" font-family="Helvetica-Light,Helvetica" font-size="28.0" fill="#FEFFFE" transform="matrix(1.00, 0.00, -0.00, -1.00, 492.8, 145.4)">0</text><text xml:space="preserve" font-family="Helvetica-Light,Helvetica" font-size="28.0" fill="#FEFFFE" transform="matrix(1.00, 0.00, -0.00, -1.00, 508.4, 145.4)">0</text><text xml:space="preserve" font-family="Helvetica-Light,Helvetica" font-size="28.0" fill="#FEFFFE" transform="matrix(1.00, 0.00, -0.00, -1.00, 523.9, 145.4)">1</text><text xml:space="preserve" font-family="Helvetica-Light,Helvetica" font-size="28.0" fill="#FEFFFE" transform="matrix(1.00, 0.00, -0.00, -1.00, 539.5, 145.4)">6</text><text xml:space="preserve" font-family="Helvetica-Light,Helvetica" font-size="28.0" fill="#FEFFFE" transform="matrix(1.00, 0.00, -0.00, -1.00, 555.1, 145.4)">7</text></g></g></g></g><g><clipPath id="clip0x6080068a7800"><path d="M 100.0 550.0 L 924.0 550.0 L 924.0 100.0 L 100.0 100.0 Z M 100.0 550.0 "></path></clipPath><g clip-path="url(#clip0x6080068a7800)"><g><clipPath id="clip0x6080068a76e0"><path d="M 649.8 100.0 L 924.0 100.0 L 924.0 212.0 L 649.8 212.0 Z M 649.8 100.0 "></path></clipPath><g clip-path="url(#clip0x6080068a76e0)"><text xml:space="preserve" font-family="Helvetica-Light,Helvetica" font-size="28.0" fill="#FEFFFE" transform="matrix(1.00, 0.00, -0.00, -1.00, 728.5, 145.4)">0</text><text xml:space="preserve" font-family="Helvetica-Light,Helvetica" font-size="28.0" fill="#FEFFFE" transform="matrix(1.00, 0.00, -0.00, -1.00, 744.1, 145.4)">.</text><text xml:space="preserve" font-family="Helvetica-Light,Helvetica" font-size="28.0" fill="#FEFFFE" transform="matrix(1.00, 0.00, -0.00, -1.00, 751.9, 145.4)">0</text><text xml:space="preserve" font-family="Helvetica-Light,Helvetica" font-size="28.0" fill="#FEFFFE" transform="matrix(1.00, 0.00, -0.00, -1.00, 767.5, 145.4)">4</text><text xml:space="preserve" font-family="Helvetica-Light,Helvetica" font-size="28.0" fill="#FEFFFE" transform="matrix(1.00, 0.00, -0.00, -1.00, 783.0, 145.4)">1</text><text xml:space="preserve" font-family="Helvetica-Light,Helvetica" font-size="28.0" fill="#FEFFFE" transform="matrix(1.00, 0.00, -0.00, -1.00, 798.6, 145.4)">0</text><text xml:space="preserve" font-family="Helvetica-Light,Helvetica" font-size="28.0" fill="#FEFFFE" transform="matrix(1.00, 0.00, -0.00, -1.00, 814.2, 145.4)">4</text><text xml:space="preserve" font-family="Helvetica-Light,Helvetica" font-size="28.0" fill="#FEFFFE" transform="matrix(1.00, 0.00, -0.00, -1.00, 829.7, 145.4)">8</text></g></g></g></g><g><clipPath id="clip0x6080068a6ea0"><path d="M 100.0 550.0 L 924.0 550.0 L 924.0 100.0 L 100.0 100.0 Z M 100.0 550.0 "></path></clipPath><g clip-path="url(#clip0x6080068a6ea0)"><g><clipPath id="clip0x6080068ab3a0"><path d="M 0.0 0.0 L 1024.0 0.0 L 1024.0 768.0 L 0.0 768.0 Z M 0.0 0.0 "></path></clipPath><g clip-path="url(#clip0x6080068ab3a0)"><path d="M 550.3 1.0 L 550.3 114.5 " fill="none" stroke="#919191" stroke-width="2.00" transform="matrix(1.00, 0.00, 0.00, -1.00, 99.0, 551.0)"></path></g></g></g></g><g><clipPath id="clip0x6080068a6f00"><path d="M 100.0 550.0 L 924.0 550.0 L 924.0 100.0 L 100.0 100.0 Z M 100.0 550.0 "></path></clipPath><g clip-path="url(#clip0x6080068a6f00)"><g><clipPath id="clip0x6080068a6960"><path d="M 648.8 100.0 L 649.8 100.0 L 649.8 436.5 L 648.8 436.5 Z M 648.8 100.0 "></path></clipPath><g clip-path="url(#clip0x6080068a6960)"><path d="M 550.3 1.0 L 550.3 451.0 " fill="none" stroke="#919191" stroke-width="1.00" stroke-dasharray="2.0, 2.0" transform="matrix(1.00, 0.00, 0.00, -1.00, 99.0, 551.0)"></path></g></g></g></g><g><clipPath id="clip0x6080068a5d60"><path d="M 100.0 550.0 L 924.0 550.0 L 924.0 100.0 L 100.0 100.0 Z M 100.0 550.0 "></path></clipPath><g clip-path="url(#clip0x6080068a5d60)"><g><clipPath id="clip0x6080068a5ca0"><path d="M 0.0 0.0 L 1024.0 0.0 L 1024.0 768.0 L 0.0 768.0 Z M 0.0 0.0 "></path></clipPath><g clip-path="url(#clip0x6080068a5ca0)"><path d="M 1.0 226.0 L 276.7 226.0 " fill="none" stroke="#919191" stroke-width="2.00" transform="matrix(1.00, 0.00, 0.00, -1.00, 99.0, 551.0)"></path></g></g></g></g><g><clipPath id="clip0x6080068a57c0"><path d="M 100.0 550.0 L 924.0 550.0 L 924.0 100.0 L 100.0 100.0 Z M 100.0 550.0 "></path></clipPath><g clip-path="url(#clip0x6080068a57c0)"><g><clipPath id="clip0x6080068a5940"><path d="M 375.7 324.5 L 924.0 324.5 L 924.0 325.5 L 375.7 325.5 Z M 375.7 324.5 "></path></clipPath><g clip-path="url(#clip0x6080068a5940)"><path d="M 1.0 226.0 L 825.0 226.0 " fill="none" stroke="#919191" stroke-width="1.00" stroke-dasharray="2.0, 2.0" transform="matrix(1.00, 0.00, 0.00, -1.00, 99.0, 551.0)"></path></g></g></g></g><g><clipPath id="clip0x6080068a6240"><path d="M 100.0 550.0 L 924.0 550.0 L 924.0 100.0 L 100.0 100.0 Z M 100.0 550.0 "></path></clipPath><g clip-path="url(#clip0x6080068a6240)"><g><clipPath id="clip0x6080068a67e0"><path d="M 0.0 0.0 L 1024.0 0.0 L 1024.0 768.0 L 0.0 768.0 Z M 0.0 0.0 "></path></clipPath><g clip-path="url(#clip0x6080068a67e0)"><path d="M 1.0 338.5 L 276.7 338.5 " fill="none" stroke="#919191" stroke-width="2.00" transform="matrix(1.00, 0.00, 0.00, -1.00, 99.0, 551.0)"></path></g></g></g></g><g><clipPath id="clip0x6080068a6780"><path d="M 100.0 550.0 L 924.0 550.0 L 924.0 100.0 L 100.0 100.0 Z M 100.0 550.0 "></path></clipPath><g clip-path="url(#clip0x6080068a6780)"><g><clipPath id="clip0x6080068a6b40"><path d="M 375.7 212.0 L 924.0 212.0 L 924.0 213.0 L 375.7 213.0 Z M 375.7 212.0 "></path></clipPath><g clip-path="url(#clip0x6080068a6b40)"><path d="M 1.0 338.5 L 825.0 338.5 " fill="none" stroke="#919191" stroke-width="1.00" stroke-dasharray="2.0, 2.0" transform="matrix(1.00, 0.00, 0.00, -1.00, 99.0, 551.0)"></path></g></g></g></g><g><clipPath id="clip0x6080068a5b80"><path d="M 100.0 550.0 L 924.0 550.0 L 924.0 100.0 L 100.0 100.0 Z M 100.0 550.0 "></path></clipPath><g clip-path="url(#clip0x6080068a5b80)"><g><clipPath id="clip0x6080068a56a0"><path d="M 0.0 0.0 L 1024.0 0.0 L 1024.0 768.0 L 0.0 768.0 Z M 0.0 0.0 "></path></clipPath><g clip-path="url(#clip0x6080068a56a0)"><path d="M 275.7 1.0 L 275.7 113.5 " fill="none" stroke="#919191" stroke-width="2.00" transform="matrix(1.00, 0.00, 0.00, -1.00, 99.0, 551.0)"></path><path d="M 275.7 113.5 L 275.7 451.0 " fill="none" stroke="#919191" stroke-width="2.00" transform="matrix(1.00, 0.00, 0.00, -1.00, 99.0, 551.0)"></path><path d="M 1.0 113.5 L 825.0 113.5 " fill="none" stroke="#919191" stroke-width="2.00" transform="matrix(1.00, 0.00, 0.00, -1.00, 99.0, 551.0)"></path></g></g></g></g></g></g></svg>