<?xml version="1.0" encoding="UTF-8" standalone="no"?><svg xmlns="http://www.w3.org/2000/svg" xmlns:xlink="http://www.w3.org/1999/xlink" clip-rule="evenodd" stroke-miterlimit="10" viewBox="0 0 493 91"><desc>SVG generated by Keynote</desc><defs></defs><g transform="matrix(1.00, 0.00, -0.00, -1.00, 0.0, 91.0)"><g><clipPath id="clip0x6000068b6da0"><path d="M -1.0 -0.9 L 493.3 -0.9 L 493.3 41.6 L -1.0 41.6 Z M -1.0 -0.9 "></path></clipPath><g clip-path="url(#clip0x6000068b6da0)"><text xml:space="preserve" font-family="Helvetica-Light,Helvetica" font-size="25.0" fill="#FEFFFF" transform="matrix(1.00, 0.00, -0.00, -1.00, 5.3, 11.1)">V</text><text xml:space="preserve" font-family="Helvetica-Light,Helvetica" font-size="25.0" fill="#FEFFFF" transform="matrix(1.00, 0.00, -0.00, -1.00, 20.1, 11.1)">i</text><text xml:space="preserve" font-family="Helvetica-Light,Helvetica" font-size="25.0" fill="#FEFFFF" transform="matrix(1.00, 0.00, -0.00, -1.00, 25.7, 11.1)">s</text><text xml:space="preserve" font-family="Helvetica-Light,Helvetica" font-size="25.0" fill="#FEFFFF" transform="matrix(1.00, 0.00, -0.00, -1.00, 38.2, 11.1)">u</text><text xml:space="preserve" font-family="Helvetica-Light,Helvetica" font-size="25.0" fill="#FEFFFF" transform="matrix(1.00, 0.00, -0.00, -1.00, 52.1, 11.1)">a</text><text xml:space="preserve" font-family="Helvetica-Light,Helvetica" font-size="25.0" fill="#FEFFFF" transform="matrix(1.00, 0.00, -0.00, -1.00, 66.0, 11.1)">l</text><text xml:space="preserve" font-family="Helvetica-Light,Helvetica" font-size="25.0" fill="#FEFFFF" transform="matrix(1.00, 0.00, -0.00, -1.00, 71.5, 11.1)">i</text><text xml:space="preserve" font-family="Helvetica-Light,Helvetica" font-size="25.0" fill="#FEFFFF" transform="matrix(1.00, 0.00, -0.00, -1.00, 77.1, 11.1)">s</text><text xml:space="preserve" font-family="Helvetica-Light,Helvetica" font-size="25.0" fill="#FEFFFF" transform="matrix(1.00, 0.00, -0.00, -1.00, 89.6, 11.1)">e</text><text xml:space="preserve" font-family="Helvetica-Light,Helvetica" font-size="25.0" fill="#FEFFFF" transform="matrix(1.00, 0.00, -0.00, -1.00, 103.5, 11.1)">r</text><text xml:space="preserve" font-family="Helvetica-Light,Helvetica" font-size="25.0" fill="#FEFFFF" transform="matrix(1.00, 0.00, -0.00, -1.00, 111.3, 11.1)">e</text><text xml:space="preserve" font-family="Helvetica-Light,Helvetica" font-size="25.0" fill="#FEFFFF" transform="matrix(1.00, 0.00, -0.00, -1.00, 125.2, 11.1)">n</text><text xml:space="preserve" font-family="Helvetica-Light,Helvetica" font-size="25.0" fill="#FEFFFF" transform="matrix(1.00, 0.00, -0.00, -1.00, 139.1, 11.1)"> </text><text xml:space="preserve" font-family="Helvetica-Light,Helvetica" font-size="25.0" fill="#FEFFFF" transform="matrix(1.00, 0.00, -0.00, -1.00, 146.1, 11.1)">v</text><text xml:space="preserve" font-family="Helvetica-Light,Helvetica" font-size="25.0" fill="#FEFFFF" transform="matrix(1.00, 0.00, -0.00, -1.00, 158.6, 11.1)">a</text><text xml:space="preserve" font-family="Helvetica-Light,Helvetica" font-size="25.0" fill="#FEFFFF" transform="matrix(1.00, 0.00, -0.00, -1.00, 172.5, 11.1)">n</text><text xml:space="preserve" font-family="Helvetica-Light,Helvetica" font-size="25.0" fill="#FEFFFF" transform="matrix(1.00, 0.00, -0.00, -1.00, 186.4, 11.1)"> </text><text xml:space="preserve" font-family="Helvetica-Light,Helvetica" font-size="25.0" fill="#FEFFFF" transform="matrix(1.00, 0.00, -0.00, -1.00, 193.3, 11.1)">S</text><text xml:space="preserve" font-family="Helvetica-Light,Helvetica" font-size="25.0" fill="#FEFFFF" transform="matrix(1.00, 0.00, -0.00, -1.00, 208.6, 11.1)">t</text><text xml:space="preserve" font-family="Helvetica-Light,Helvetica" font-size="25.0" fill="#FEFFFF" transform="matrix(1.00, 0.00, -0.00, -1.00, 215.6, 11.1)">r</text><text xml:space="preserve" font-family="Helvetica-Light,Helvetica" font-size="25.0" fill="#FEFFFF" transform="matrix(1.00, 0.00, -0.00, -1.00, 223.9, 11.1)">i</text><text xml:space="preserve" font-family="Helvetica-Light,Helvetica" font-size="25.0" fill="#FEFFFF" transform="matrix(1.00, 0.00, -0.00, -1.00, 229.4, 11.1)">n</text><text xml:space="preserve" font-family="Helvetica-Light,Helvetica" font-size="25.0" fill="#FEFFFF" transform="matrix(1.00, 0.00, -0.00, -1.00, 243.3, 11.1)">g</text><text xml:space="preserve" font-family="Helvetica-Light,Helvetica" font-size="25.0" fill="#FEFFFF" transform="matrix(1.00, 0.00, -0.00, -1.00, 258.6, 11.1)"> </text><text xml:space="preserve" font-family="Helvetica-Light,Helvetica" font-size="25.0" fill="#FEFFFF" transform="matrix(1.00, 0.00, -0.00, -1.00, 265.6, 11.1)">n</text><text xml:space="preserve" font-family="Helvetica-Light,Helvetica" font-size="25.0" fill="#FEFFFF" transform="matrix(1.00, 0.00, -0.00, -1.00, 279.5, 11.1)">a</text><text xml:space="preserve" font-family="Helvetica-Light,Helvetica" font-size="25.0" fill="#FEFFFF" transform="matrix(1.00, 0.00, -0.00, -1.00, 293.4, 11.1)"> </text><text xml:space="preserve" font-family="Helvetica-Light,Helvetica" font-size="25.0" fill="#FEFFFF" transform="matrix(1.00, 0.00, -0.00, -1.00, 300.3, 11.1)">c</text><text xml:space="preserve" font-family="Helvetica-Light,Helvetica" font-size="25.0" fill="#FEFFFF" transform="matrix(1.00, 0.00, -0.00, -1.00, 314.2, 11.1)">o</text><text xml:space="preserve" font-family="Helvetica-Light,Helvetica" font-size="25.0" fill="#FEFFFF" transform="matrix(1.00, 0.00, -0.00, -1.00, 328.1, 11.1)">r</text><text xml:space="preserve" font-family="Helvetica-Light,Helvetica" font-size="25.0" fill="#FEFFFF" transform="matrix(1.00, 0.00, -0.00, -1.00, 336.4, 11.1)">r</text><text xml:space="preserve" font-family="Helvetica-Light,Helvetica" font-size="25.0" fill="#FEFFFF" transform="matrix(1.00, 0.00, -0.00, -1.00, 344.3, 11.1)">e</text><text xml:space="preserve" font-family="Helvetica-Light,Helvetica" font-size="25.0" fill="#FEFFFF" transform="matrix(1.00, 0.00, -0.00, -1.00, 358.2, 11.1)">c</text><text xml:space="preserve" font-family="Helvetica-Light,Helvetica" font-size="25.0" fill="#FEFFFF" transform="matrix(1.00, 0.00, -0.00, -1.00, 372.1, 11.1)">t</text><text xml:space="preserve" font-family="Helvetica-Light,Helvetica" font-size="25.0" fill="#FEFFFF" transform="matrix(1.00, 0.00, -0.00, -1.00, 379.1, 11.1)">e</text><text xml:space="preserve" font-family="Helvetica-Light,Helvetica" font-size="25.0" fill="#FEFFFF" transform="matrix(1.00, 0.00, -0.00, -1.00, 393.0, 11.1)"> </text><text xml:space="preserve" font-family="Helvetica-Light,Helvetica" font-size="25.0" fill="#FEFFFF" transform="matrix(1.00, 0.00, -0.00, -1.00, 399.9, 11.1)">a</text><text xml:space="preserve" font-family="Helvetica-Light,Helvetica" font-size="25.0" fill="#FEFFFF" transform="matrix(1.00, 0.00, -0.00, -1.00, 413.8, 11.1)">n</text><text xml:space="preserve" font-family="Helvetica-Light,Helvetica" font-size="25.0" fill="#FEFFFF" transform="matrix(1.00, 0.00, -0.00, -1.00, 427.7, 11.1)">a</text><text xml:space="preserve" font-family="Helvetica-Light,Helvetica" font-size="25.0" fill="#FEFFFF" transform="matrix(1.00, 0.00, -0.00, -1.00, 441.6, 11.1)">l</text><text xml:space="preserve" font-family="Helvetica-Light,Helvetica" font-size="25.0" fill="#FEFFFF" transform="matrix(1.00, 0.00, -0.00, -1.00, 447.2, 11.1)">y</text><text xml:space="preserve" font-family="Helvetica-Light,Helvetica" font-size="25.0" fill="#FEFFFF" transform="matrix(1.00, 0.00, -0.00, -1.00, 459.7, 11.1)">s</text><text xml:space="preserve" font-family="Helvetica-Light,Helvetica" font-size="25.0" fill="#FEFFFF" transform="matrix(1.00, 0.00, -0.00, -1.00, 472.2, 11.1)">e</text></g></g><g><clipPath id="clip0x6000068b4160"><path d="M 19.7 44.7 L 19.7 90.3 L 31.3 90.3 L 31.3 44.7 Z M 19.7 44.7 "></path></clipPath><g clip-path="url(#clip0x6000068b4160)"><path d="M 0.3 -0.5 L 34.0 -0.5 L 35.3 -0.5 " fill="none" stroke="#FEFFFE" stroke-width="2.00" transform="matrix(0.00, 1.00, 1.00, 0.00, 25.5, 45.7)"></path><path d="M 29.8 80.0 L 25.0 89.6 L 20.2 80.0 Z M 29.8 80.0 " fill="#FEFFFE"></path></g></g></g></svg>