<?xml version="1.0" encoding="UTF-8" standalone="no"?><svg xmlns="http://www.w3.org/2000/svg" xmlns:xlink="http://www.w3.org/1999/xlink" clip-rule="evenodd" stroke-miterlimit="10" viewBox="0 0 1024 768"><desc>SVG generated by Keynote</desc><defs></defs><g transform="matrix(1.00, 0.00, -0.00, -1.00, 0.0, 768.0)"><path d="M 0.0 768.0 L 1024.0 768.0 L 1024.0 0.0 L 0.0 0.0 Z M 0.0 768.0 " fill="#000000"></path><text xml:space="preserve" font-family="Helvetica-Light,Helvetica" font-size="80.0" fill="#FEFFFF" transform="matrix(1.00, 0.00, -0.00, -1.00, 171.8, 615.3)">R</text><text xml:space="preserve" font-family="Helvetica-Light,Helvetica" font-size="80.0" fill="#FEFFFF" transform="matrix(1.00, 0.00, -0.00, -1.00, 225.2, 615.3)">N</text><text xml:space="preserve" font-family="Helvetica-Light,Helvetica" font-size="80.0" fill="#FEFFFF" transform="matrix(1.00, 0.00, -0.00, -1.00, 282.9, 615.3)">A</text><text xml:space="preserve" font-family="Helvetica-Light,Helvetica" font-size="80.0" fill="#FEFFFF" transform="matrix(1.00, 0.00, -0.00, -1.00, 336.3, 615.3)"> </text><text xml:space="preserve" font-family="Helvetica-Light,Helvetica" font-size="80.0" fill="#FEFFFF" transform="matrix(1.00, 0.00, -0.00, -1.00, 358.5, 615.3)">C</text><text xml:space="preserve" font-family="Helvetica-Light,Helvetica" font-size="80.0" fill="#FEFFFF" transform="matrix(1.00, 0.00, -0.00, -1.00, 416.3, 615.3)">r</text><text xml:space="preserve" font-family="Helvetica-Light,Helvetica" font-size="80.0" fill="#FEFFFF" transform="matrix(1.00, 0.00, -0.00, -1.00, 442.9, 615.3)">a</text><text xml:space="preserve" font-family="Helvetica-Light,Helvetica" font-size="80.0" fill="#FEFFFF" transform="matrix(1.00, 0.00, -0.00, -1.00, 487.4, 615.3)">s</text><text xml:space="preserve" font-family="Helvetica-Light,Helvetica" font-size="80.0" fill="#FEFFFF" transform="matrix(1.00, 0.00, -0.00, -1.00, 527.4, 615.3)">h</text><text xml:space="preserve" font-family="Helvetica-Light,Helvetica" font-size="80.0" fill="#FEFFFF" transform="matrix(1.00, 0.00, -0.00, -1.00, 571.9, 615.3)"> </text><text xml:space="preserve" font-family="Helvetica-Light,Helvetica" font-size="80.0" fill="#FEFFFF" transform="matrix(1.00, 0.00, -0.00, -1.00, 594.1, 615.3)">C</text><text xml:space="preserve" font-family="Helvetica-Light,Helvetica" font-size="80.0" fill="#FEFFFF" transform="matrix(1.00, 0.00, -0.00, -1.00, 651.9, 615.3)">o</text><text xml:space="preserve" font-family="Helvetica-Light,Helvetica" font-size="80.0" fill="#FEFFFF" transform="matrix(1.00, 0.00, -0.00, -1.00, 696.4, 615.3)">u</text><text xml:space="preserve" font-family="Helvetica-Light,Helvetica" font-size="80.0" fill="#FEFFFF" transform="matrix(1.00, 0.00, -0.00, -1.00, 740.9, 615.3)">r</text><text xml:space="preserve" font-family="Helvetica-Light,Helvetica" font-size="80.0" fill="#FEFFFF" transform="matrix(1.00, 0.00, -0.00, -1.00, 767.5, 615.3)">s</text><text xml:space="preserve" font-family="Helvetica-Light,Helvetica" font-size="80.0" fill="#FEFFFF" transform="matrix(1.00, 0.00, -0.00, -1.00, 807.5, 615.3)">e</text></g></svg>