<?xml version="1.0" encoding="UTF-8" standalone="no"?><svg xmlns="http://www.w3.org/2000/svg" xmlns:xlink="http://www.w3.org/1999/xlink" clip-rule="evenodd" stroke-miterlimit="10" viewBox="0 0 1024 768"><desc>SVG generated by Keynote</desc><defs></defs><g transform="matrix(1.00, 0.00, -0.00, -1.00, 0.0, 768.0)"><path d="M 0.0 768.0 L 1024.0 768.0 L 1024.0 0.0 L 0.0 0.0 Z M 0.0 768.0 " fill="#000000"></path><text xml:space="preserve" font-family="Helvetica-Light,Helvetica" font-size="80.0" fill="#FEFFFF" transform="matrix(1.00, 0.00, -0.00, -1.00, 366.0, 633.4)">W</text><text xml:space="preserve" font-family="Helvetica-Light,Helvetica" font-size="80.0" fill="#FEFFFF" transform="matrix(1.00, 0.00, -0.00, -1.00, 435.7, 633.4)">e</text><text xml:space="preserve" font-family="Helvetica-Light,Helvetica" font-size="80.0" fill="#FEFFFF" transform="matrix(1.00, 0.00, -0.00, -1.00, 480.2, 633.4)">r</text><text xml:space="preserve" font-family="Helvetica-Light,Helvetica" font-size="80.0" fill="#FEFFFF" transform="matrix(1.00, 0.00, -0.00, -1.00, 506.8, 633.4)">k</text><text xml:space="preserve" font-family="Helvetica-Light,Helvetica" font-size="80.0" fill="#FEFFFF" transform="matrix(1.00, 0.00, -0.00, -1.00, 546.8, 633.4)">i</text><text xml:space="preserve" font-family="Helvetica-Light,Helvetica" font-size="80.0" fill="#FEFFFF" transform="matrix(1.00, 0.00, -0.00, -1.00, 564.6, 633.4)">n</text><text xml:space="preserve" font-family="Helvetica-Light,Helvetica" font-size="80.0" fill="#FEFFFF" transform="matrix(1.00, 0.00, -0.00, -1.00, 609.1, 633.4)">g</text><g><g><clipPath id="clip0x6000068afd20"><path d="M 45.5 348.5 L 978.5 348.5 L 978.5 247.5 L 45.5 247.5 Z M 45.5 348.5 "></path></clipPath><g clip-path="url(#clip0x6000068afd20)"><g><clipPath id="clip0x6000068af1e0"><path d="M 0.0 0.0 L 1024.0 0.0 L 1024.0 768.0 L 0.0 768.0 Z M 0.0 0.0 "></path></clipPath><g clip-path="url(#clip0x6000068af1e0)"><g><g><clipPath id="clip0x6000068afcc0"><path d="M 45.0 247.0 L 979.0 247.0 L 979.0 349.0 L 45.0 349.0 Z M 45.0 247.0 "></path></clipPath><g clip-path="url(#clip0x6000068afcc0)"><path d="M 46.0 348.0 L 356.7 348.0 L 356.7 248.0 L 46.0 248.0 Z M 46.0 348.0 " fill="#7ADA45"></path><path d="M 356.7 348.0 L 667.3 348.0 L 667.3 248.0 L 356.7 248.0 Z M 356.7 348.0 " fill="#D35854"></path><path d="M 667.3 348.0 L 978.0 348.0 L 978.0 248.0 L 667.3 248.0 Z M 667.3 348.0 " fill="#E7A432"></path></g></g></g></g></g></g></g><g><clipPath id="clip0x6000068af5a0"><path d="M 45.5 348.5 L 978.5 348.5 L 978.5 247.5 L 45.5 247.5 Z M 45.5 348.5 "></path></clipPath><g clip-path="url(#clip0x6000068af5a0)"><g><clipPath id="clip0x6000068af7e0"><path d="M 46.5 248.5 L 356.2 248.5 L 356.2 347.5 L 46.5 347.5 Z M 46.5 248.5 "></path></clipPath><g clip-path="url(#clip0x6000068af7e0)"><text xml:space="preserve" font-family="Helvetica-Light,Helvetica" font-size="28.0" fill="#FEFFFE" transform="matrix(1.00, 0.00, -0.00, -1.00, 172.5, 286.9)">C</text><text xml:space="preserve" font-family="Helvetica-Light,Helvetica" font-size="28.0" fill="#FEFFFE" transform="matrix(1.00, 0.00, -0.00, -1.00, 192.8, 286.9)">F</text><text xml:space="preserve" font-family="Helvetica-Light,Helvetica" font-size="28.0" fill="#FEFFFE" transform="matrix(1.00, 0.00, -0.00, -1.00, 208.3, 286.9)">G</text></g></g></g></g><g><clipPath id="clip0x6000068afb40"><path d="M 45.5 348.5 L 978.5 348.5 L 978.5 247.5 L 45.5 247.5 Z M 45.5 348.5 "></path></clipPath><g clip-path="url(#clip0x6000068afb40)"><g><clipPath id="clip0x6000068af060"><path d="M 357.2 248.5 L 666.8 248.5 L 666.8 347.5 L 357.2 347.5 Z M 357.2 248.5 "></path></clipPath><g clip-path="url(#clip0x6000068af060)"><text xml:space="preserve" font-family="Helvetica-Light,Helvetica" font-size="28.0" fill="#FEFFFE" transform="matrix(1.00, 0.00, -0.00, -1.00, 416.0, 286.9)">T</text><text xml:space="preserve" font-family="Helvetica-Light,Helvetica" font-size="28.0" fill="#FEFFFE" transform="matrix(1.00, 0.00, -0.00, -1.00, 429.0, 286.9)">u</text><text xml:space="preserve" font-family="Helvetica-Light,Helvetica" font-size="28.0" fill="#FEFFFE" transform="matrix(1.00, 0.00, -0.00, -1.00, 444.6, 286.9)">r</text><text xml:space="preserve" font-family="Helvetica-Light,Helvetica" font-size="28.0" fill="#FEFFFE" transform="matrix(1.00, 0.00, -0.00, -1.00, 453.9, 286.9)">i</text><text xml:space="preserve" font-family="Helvetica-Light,Helvetica" font-size="28.0" fill="#FEFFFE" transform="matrix(1.00, 0.00, -0.00, -1.00, 460.1, 286.9)">n</text><text xml:space="preserve" font-family="Helvetica-Light,Helvetica" font-size="28.0" fill="#FEFFFE" transform="matrix(1.00, 0.00, -0.00, -1.00, 475.7, 286.9)">g</text><text xml:space="preserve" font-family="Helvetica-Light,Helvetica" font-size="28.0" fill="#FEFFFE" transform="matrix(1.00, 0.00, -0.00, -1.00, 492.8, 286.9)"> </text><text xml:space="preserve" font-family="Helvetica-Light,Helvetica" font-size="28.0" fill="#FEFFFE" transform="matrix(1.00, 0.00, -0.00, -1.00, 500.6, 286.9)">M</text><text xml:space="preserve" font-family="Helvetica-Light,Helvetica" font-size="28.0" fill="#FEFFFE" transform="matrix(1.00, 0.00, -0.00, -1.00, 523.9, 286.9)">a</text><text xml:space="preserve" font-family="Helvetica-Light,Helvetica" font-size="28.0" fill="#FEFFFE" transform="matrix(1.00, 0.00, -0.00, -1.00, 539.5, 286.9)">c</text><text xml:space="preserve" font-family="Helvetica-Light,Helvetica" font-size="28.0" fill="#FEFFFE" transform="matrix(1.00, 0.00, -0.00, -1.00, 555.1, 286.9)">h</text><text xml:space="preserve" font-family="Helvetica-Light,Helvetica" font-size="28.0" fill="#FEFFFE" transform="matrix(1.00, 0.00, -0.00, -1.00, 570.6, 286.9)">i</text><text xml:space="preserve" font-family="Helvetica-Light,Helvetica" font-size="28.0" fill="#FEFFFE" transform="matrix(1.00, 0.00, -0.00, -1.00, 576.8, 286.9)">n</text><text xml:space="preserve" font-family="Helvetica-Light,Helvetica" font-size="28.0" fill="#FEFFFE" transform="matrix(1.00, 0.00, -0.00, -1.00, 592.4, 286.9)">e</text></g></g></g></g><g><clipPath id="clip0x6000068adec0"><path d="M 45.5 348.5 L 978.5 348.5 L 978.5 247.5 L 45.5 247.5 Z M 45.5 348.5 "></path></clipPath><g clip-path="url(#clip0x6000068adec0)"><g><clipPath id="clip0x6000068ad980"><path d="M 667.8 248.5 L 977.5 248.5 L 977.5 347.5 L 667.8 347.5 Z M 667.8 248.5 "></path></clipPath><g clip-path="url(#clip0x6000068ad980)"><text xml:space="preserve" font-family="Helvetica-Light,Helvetica" font-size="28.0" fill="#FEFFFE" transform="matrix(1.00, 0.00, -0.00, -1.00, 762.8, 286.9)">L</text><text xml:space="preserve" font-family="Helvetica-Light,Helvetica" font-size="28.0" fill="#FEFFFE" transform="matrix(1.00, 0.00, -0.00, -1.00, 778.3, 286.9)">L</text><text xml:space="preserve" font-family="Helvetica-Light,Helvetica" font-size="28.0" fill="#FEFFFE" transform="matrix(1.00, 0.00, -0.00, -1.00, 793.9, 286.9)"> </text><text xml:space="preserve" font-family="Helvetica-Light,Helvetica" font-size="28.0" fill="#FEFFFE" transform="matrix(1.00, 0.00, -0.00, -1.00, 801.7, 286.9)">P</text><text xml:space="preserve" font-family="Helvetica-Light,Helvetica" font-size="28.0" fill="#FEFFFE" transform="matrix(1.00, 0.00, -0.00, -1.00, 818.8, 286.9)">a</text><text xml:space="preserve" font-family="Helvetica-Light,Helvetica" font-size="28.0" fill="#FEFFFE" transform="matrix(1.00, 0.00, -0.00, -1.00, 834.4, 286.9)">r</text><text xml:space="preserve" font-family="Helvetica-Light,Helvetica" font-size="28.0" fill="#FEFFFE" transform="matrix(1.00, 0.00, -0.00, -1.00, 843.7, 286.9)">s</text><text xml:space="preserve" font-family="Helvetica-Light,Helvetica" font-size="28.0" fill="#FEFFFE" transform="matrix(1.00, 0.00, -0.00, -1.00, 857.7, 286.9)">e</text><text xml:space="preserve" font-family="Helvetica-Light,Helvetica" font-size="28.0" fill="#FEFFFE" transform="matrix(1.00, 0.00, -0.00, -1.00, 873.2, 286.9)">r</text></g></g></g></g><g><clipPath id="clip0x6000068ae5e0"><path d="M 45.5 348.5 L 978.5 348.5 L 978.5 247.5 L 45.5 247.5 Z M 45.5 348.5 "></path></clipPath><g clip-path="url(#clip0x6000068ae5e0)"><g><clipPath id="clip0x6000068ae1c0"><path d="M 0.0 0.0 L 1024.0 0.0 L 1024.0 768.0 L 0.0 768.0 Z M 0.0 0.0 "></path></clipPath><g clip-path="url(#clip0x6000068ae1c0)"><path d="M 312.7 1.5 L 312.7 102.5 " fill="none" stroke="#D6D6D6" stroke-width="1.00" transform="matrix(1.00, 0.00, 0.00, -1.00, 44.0, 350.0)"></path><path d="M 623.3 1.5 L 623.3 102.5 " fill="none" stroke="#D6D6D6" stroke-width="1.00" transform="matrix(1.00, 0.00, 0.00, -1.00, 44.0, 350.0)"></path><path d="M 2.0 1.5 L 2.0 102.5 " fill="none" stroke="#D5D5D5" stroke-width="1.00" transform="matrix(1.00, 0.00, 0.00, -1.00, 44.0, 350.0)"></path><path d="M 934.0 1.5 L 934.0 102.5 " fill="none" stroke="#D5D5D5" stroke-width="1.00" transform="matrix(1.00, 0.00, 0.00, -1.00, 44.0, 350.0)"></path><path d="M 1.5 2.0 L 934.5 2.0 " fill="none" stroke="#D5D5D5" stroke-width="1.00" transform="matrix(1.00, 0.00, 0.00, -1.00, 44.0, 350.0)"></path><path d="M 1.5 102.0 L 934.5 102.0 " fill="none" stroke="#D5D5D5" stroke-width="1.00" transform="matrix(1.00, 0.00, 0.00, -1.00, 44.0, 350.0)"></path></g></g></g></g></g><g><clipPath id="clip0x6000068adb60"><path d="M 536.7 212.3 L 536.7 100.8 L 487.3 100.8 L 487.3 212.3 Z M 536.7 212.3 "></path></clipPath><g clip-path="url(#clip0x6000068adb60)"><path d="M 509.0 143.0 L 488.3 143.0 L 512.0 101.8 L 535.7 143.0 L 515.0 143.0 L 515.0 211.0 L 509.0 211.0 Z M 509.4 143.5 " fill="#FEFFFE"></path></g></g><text xml:space="preserve" font-family="Helvetica-Light,Helvetica" font-size="36.0" fill="#FEFFFF" transform="matrix(1.00, 0.00, -0.00, -1.00, 353.3, 44.5)">A</text><text xml:space="preserve" font-family="Helvetica-Light,Helvetica" font-size="36.0" fill="#FEFFFF" transform="matrix(1.00, 0.00, -0.00, -1.00, 377.3, 44.5)">a</text><text xml:space="preserve" font-family="Helvetica-Light,Helvetica" font-size="36.0" fill="#FEFFFF" transform="matrix(1.00, 0.00, -0.00, -1.00, 397.3, 44.5)">n</text><text xml:space="preserve" font-family="Helvetica-Light,Helvetica" font-size="36.0" fill="#FEFFFF" transform="matrix(1.00, 0.00, -0.00, -1.00, 417.3, 44.5)">v</text><text xml:space="preserve" font-family="Helvetica-Light,Helvetica" font-size="36.0" fill="#FEFFFF" transform="matrix(1.00, 0.00, -0.00, -1.00, 435.3, 44.5)">a</text><text xml:space="preserve" font-family="Helvetica-Light,Helvetica" font-size="36.0" fill="#FEFFFF" transform="matrix(1.00, 0.00, -0.00, -1.00, 455.3, 44.5)">a</text><text xml:space="preserve" font-family="Helvetica-Light,Helvetica" font-size="36.0" fill="#FEFFFF" transform="matrix(1.00, 0.00, -0.00, -1.00, 475.3, 44.5)">r</text><text xml:space="preserve" font-family="Helvetica-Light,Helvetica" font-size="36.0" fill="#FEFFFF" transform="matrix(1.00, 0.00, -0.00, -1.00, 486.7, 44.5)">d</text><text xml:space="preserve" font-family="Helvetica-Light,Helvetica" font-size="36.0" fill="#FEFFFF" transform="matrix(1.00, 0.00, -0.00, -1.00, 508.7, 44.5)">?</text><text xml:space="preserve" font-family="Helvetica-Light,Helvetica" font-size="36.0" fill="#FEFFFF" transform="matrix(1.00, 0.00, -0.00, -1.00, 526.7, 44.5)"> </text><text xml:space="preserve" font-family="Helvetica-Light,Helvetica" font-size="36.0" fill="#FEFFFF" transform="matrix(1.00, 0.00, -0.00, -1.00, 536.7, 44.5)">J</text><text xml:space="preserve" font-family="Helvetica-Light,Helvetica" font-size="36.0" fill="#FEFFFF" transform="matrix(1.00, 0.00, -0.00, -1.00, 554.7, 44.5)">a</text><text xml:space="preserve" font-family="Helvetica-Light,Helvetica" font-size="36.0" fill="#FEFFFF" transform="matrix(1.00, 0.00, -0.00, -1.00, 574.7, 44.5)">/</text><text xml:space="preserve" font-family="Helvetica-Light,Helvetica" font-size="36.0" fill="#FEFFFF" transform="matrix(1.00, 0.00, -0.00, -1.00, 584.7, 44.5)">N</text><text xml:space="preserve" font-family="Helvetica-Light,Helvetica" font-size="36.0" fill="#FEFFFF" transform="matrix(1.00, 0.00, -0.00, -1.00, 610.7, 44.5)">e</text><text xml:space="preserve" font-family="Helvetica-Light,Helvetica" font-size="36.0" fill="#FEFFFF" transform="matrix(1.00, 0.00, -0.00, -1.00, 630.7, 44.5)">e</text><text xml:space="preserve" font-family="Helvetica-Light,Helvetica" font-size="36.0" fill="#FEFFFF" transform="matrix(1.00, 0.00, -0.00, -1.00, 650.7, 44.5)">n</text><g><clipPath id="clip0x6000068acfc0"><path d="M 536.7 480.2 L 536.7 368.8 L 487.3 368.8 L 487.3 480.2 Z M 536.7 480.2 "></path></clipPath><g clip-path="url(#clip0x6000068acfc0)"><path d="M 509.0 411.0 L 488.3 411.0 L 512.0 369.8 L 535.7 411.0 L 515.0 411.0 L 515.0 479.0 L 509.0 479.0 Z M 509.4 411.4 " fill="#FEFFFE"></path></g></g><text xml:space="preserve" font-family="Helvetica-Light,Helvetica" font-size="36.0" fill="#FEFFFF" transform="matrix(1.00, 0.00, -0.00, -1.00, 242.0, 525.6)">G</text><text xml:space="preserve" font-family="Helvetica-Light,Helvetica" font-size="36.0" fill="#FEFFFF" transform="matrix(1.00, 0.00, -0.00, -1.00, 270.0, 525.6)">A</text><text xml:space="preserve" font-family="Helvetica-Light,Helvetica" font-size="36.0" fill="#FEFFFF" transform="matrix(1.00, 0.00, -0.00, -1.00, 294.0, 525.6)">U</text><text xml:space="preserve" font-family="Helvetica-Light,Helvetica" font-size="36.0" fill="#FEFFFF" transform="matrix(1.00, 0.00, -0.00, -1.00, 320.0, 525.6)">A</text><text xml:space="preserve" font-family="Helvetica-Light,Helvetica" font-size="36.0" fill="#FEFFFF" transform="matrix(1.00, 0.00, -0.00, -1.00, 344.0, 525.6)">G</text><text xml:space="preserve" font-family="Helvetica-Light,Helvetica" font-size="36.0" fill="#FEFFFF" transform="matrix(1.00, 0.00, -0.00, -1.00, 372.0, 525.6)">G</text><text xml:space="preserve" font-family="Helvetica-Light,Helvetica" font-size="36.0" fill="#FEFFFF" transform="matrix(1.00, 0.00, -0.00, -1.00, 400.0, 525.6)">U</text><text xml:space="preserve" font-family="Helvetica-Light,Helvetica" font-size="36.0" fill="#FEFFFF" transform="matrix(1.00, 0.00, -0.00, -1.00, 426.0, 525.6)">C</text><text xml:space="preserve" font-family="Helvetica-Light,Helvetica" font-size="36.0" fill="#FEFFFF" transform="matrix(1.00, 0.00, -0.00, -1.00, 452.0, 525.6)">U</text><text xml:space="preserve" font-family="Helvetica-Light,Helvetica" font-size="36.0" fill="#FEFFFF" transform="matrix(1.00, 0.00, -0.00, -1.00, 478.0, 525.6)">A</text><text xml:space="preserve" font-family="Helvetica-Light,Helvetica" font-size="36.0" fill="#FEFFFF" transform="matrix(1.00, 0.00, -0.00, -1.00, 502.0, 525.6)">U</text><text xml:space="preserve" font-family="Helvetica-Light,Helvetica" font-size="36.0" fill="#FEFFFF" transform="matrix(1.00, 0.00, -0.00, -1.00, 528.0, 525.6)">G</text><text xml:space="preserve" font-family="Helvetica-Light,Helvetica" font-size="36.0" fill="#FEFFFF" transform="matrix(1.00, 0.00, -0.00, -1.00, 556.0, 525.6)">A</text><text xml:space="preserve" font-family="Helvetica-Light,Helvetica" font-size="36.0" fill="#FEFFFF" transform="matrix(1.00, 0.00, -0.00, -1.00, 580.0, 525.6)">A</text><text xml:space="preserve" font-family="Helvetica-Light,Helvetica" font-size="36.0" fill="#FEFFFF" transform="matrix(1.00, 0.00, -0.00, -1.00, 604.0, 525.6)">C</text><text xml:space="preserve" font-family="Helvetica-Light,Helvetica" font-size="36.0" fill="#FEFFFF" transform="matrix(1.00, 0.00, -0.00, -1.00, 630.0, 525.6)">C</text><text xml:space="preserve" font-family="Helvetica-Light,Helvetica" font-size="36.0" fill="#FEFFFF" transform="matrix(1.00, 0.00, -0.00, -1.00, 656.0, 525.6)">U</text><text xml:space="preserve" font-family="Helvetica-Light,Helvetica" font-size="36.0" fill="#FEFFFF" transform="matrix(1.00, 0.00, -0.00, -1.00, 682.0, 525.6)">U</text><text xml:space="preserve" font-family="Helvetica-Light,Helvetica" font-size="36.0" fill="#FEFFFF" transform="matrix(1.00, 0.00, -0.00, -1.00, 708.0, 525.6)">C</text><text xml:space="preserve" font-family="Helvetica-Light,Helvetica" font-size="36.0" fill="#FEFFFF" transform="matrix(1.00, 0.00, -0.00, -1.00, 734.0, 525.6)">A</text><text xml:space="preserve" font-family="Helvetica-Light,Helvetica" font-size="36.0" fill="#FEFFFF" transform="matrix(1.00, 0.00, -0.00, -1.00, 758.0, 525.6)">A</text></g></svg>