<?xml version="1.0" encoding="UTF-8" standalone="no"?><svg xmlns="http://www.w3.org/2000/svg" xmlns:xlink="http://www.w3.org/1999/xlink" clip-rule="evenodd" stroke-miterlimit="10" viewBox="0 0 1024 768"><desc>SVG generated by Keynote</desc><defs></defs><g transform="matrix(1.00, 0.00, -0.00, -1.00, 0.0, 768.0)"><path d="M 0.0 768.0 L 1024.0 768.0 L 1024.0 0.0 L 0.0 0.0 Z M 0.0 768.0 " fill="#000000"></path><text xml:space="preserve" font-family="Helvetica-Light,Helvetica" font-size="80.0" fill="#FEFFFF" transform="matrix(1.00, 0.00, -0.00, -1.00, 171.9, 615.3)">R</text><text xml:space="preserve" font-family="Helvetica-Light,Helvetica" font-size="80.0" fill="#FEFFFF" transform="matrix(1.00, 0.00, -0.00, -1.00, 225.3, 615.3)">N</text><text xml:space="preserve" font-family="Helvetica-Light,Helvetica" font-size="80.0" fill="#FEFFFF" transform="matrix(1.00, 0.00, -0.00, -1.00, 283.0, 615.3)">A</text><text xml:space="preserve" font-family="Helvetica-Light,Helvetica" font-size="80.0" fill="#FEFFFF" transform="matrix(1.00, 0.00, -0.00, -1.00, 336.4, 615.3)"> </text><text xml:space="preserve" font-family="Helvetica-Light,Helvetica" font-size="80.0" fill="#FEFFFF" transform="matrix(1.00, 0.00, -0.00, -1.00, 358.6, 615.3)">C</text><text xml:space="preserve" font-family="Helvetica-Light,Helvetica" font-size="80.0" fill="#FEFFFF" transform="matrix(1.00, 0.00, -0.00, -1.00, 416.4, 615.3)">r</text><text xml:space="preserve" font-family="Helvetica-Light,Helvetica" font-size="80.0" fill="#FEFFFF" transform="matrix(1.00, 0.00, -0.00, -1.00, 443.0, 615.3)">a</text><text xml:space="preserve" font-family="Helvetica-Light,Helvetica" font-size="80.0" fill="#FEFFFF" transform="matrix(1.00, 0.00, -0.00, -1.00, 487.5, 615.3)">s</text><text xml:space="preserve" font-family="Helvetica-Light,Helvetica" font-size="80.0" fill="#FEFFFF" transform="matrix(1.00, 0.00, -0.00, -1.00, 527.5, 615.3)">h</text><text xml:space="preserve" font-family="Helvetica-Light,Helvetica" font-size="80.0" fill="#FEFFFF" transform="matrix(1.00, 0.00, -0.00, -1.00, 572.0, 615.3)"> </text><text xml:space="preserve" font-family="Helvetica-Light,Helvetica" font-size="80.0" fill="#FEFFFF" transform="matrix(1.00, 0.00, -0.00, -1.00, 594.2, 615.3)">C</text><text xml:space="preserve" font-family="Helvetica-Light,Helvetica" font-size="80.0" fill="#FEFFFF" transform="matrix(1.00, 0.00, -0.00, -1.00, 652.0, 615.3)">o</text><text xml:space="preserve" font-family="Helvetica-Light,Helvetica" font-size="80.0" fill="#FEFFFF" transform="matrix(1.00, 0.00, -0.00, -1.00, 696.5, 615.3)">u</text><text xml:space="preserve" font-family="Helvetica-Light,Helvetica" font-size="80.0" fill="#FEFFFF" transform="matrix(1.00, 0.00, -0.00, -1.00, 741.0, 615.3)">r</text><text xml:space="preserve" font-family="Helvetica-Light,Helvetica" font-size="80.0" fill="#FEFFFF" transform="matrix(1.00, 0.00, -0.00, -1.00, 767.6, 615.3)">s</text><text xml:space="preserve" font-family="Helvetica-Light,Helvetica" font-size="80.0" fill="#FEFFFF" transform="matrix(1.00, 0.00, -0.00, -1.00, 807.6, 615.3)">e</text><text xml:space="preserve" font-family="Helvetica-Bold,Helvetica" font-weight="bold" font-size="36.0" fill="#FEFFFF" transform="matrix(1.00, 0.00, -0.00, -1.00, 336.0, 476.2)">G</text><text xml:space="preserve" font-family="Helvetica-Bold,Helvetica" font-weight="bold" font-size="36.0" fill="#FEFFFF" transform="matrix(1.00, 0.00, -0.00, -1.00, 364.0, 476.2)">e</text><text xml:space="preserve" font-family="Helvetica-Bold,Helvetica" font-weight="bold" font-size="36.0" fill="#FEFFFF" transform="matrix(1.00, 0.00, -0.00, -1.00, 384.0, 476.2)">b</text><text xml:space="preserve" font-family="Helvetica-Bold,Helvetica" font-weight="bold" font-size="36.0" fill="#FEFFFF" transform="matrix(1.00, 0.00, -0.00, -1.00, 406.0, 476.2)">r</text><text xml:space="preserve" font-family="Helvetica-Bold,Helvetica" font-weight="bold" font-size="36.0" fill="#FEFFFF" transform="matrix(1.00, 0.00, -0.00, -1.00, 420.0, 476.2)">u</text><text xml:space="preserve" font-family="Helvetica-Bold,Helvetica" font-weight="bold" font-size="36.0" fill="#FEFFFF" transform="matrix(1.00, 0.00, -0.00, -1.00, 442.0, 476.2)">i</text><text xml:space="preserve" font-family="Helvetica-Bold,Helvetica" font-weight="bold" font-size="36.0" fill="#FEFFFF" transform="matrix(1.00, 0.00, -0.00, -1.00, 452.0, 476.2)">k</text><text xml:space="preserve" font-family="Helvetica-Bold,Helvetica" font-weight="bold" font-size="36.0" fill="#FEFFFF" transform="matrix(1.00, 0.00, -0.00, -1.00, 472.0, 476.2)"> </text><text xml:space="preserve" font-family="Helvetica-Bold,Helvetica" font-weight="bold" font-size="36.0" fill="#FEFFFF" transform="matrix(1.00, 0.00, -0.00, -1.00, 482.0, 476.2)">S</text><text xml:space="preserve" font-family="Helvetica-Bold,Helvetica" font-weight="bold" font-size="36.0" fill="#FEFFFF" transform="matrix(1.00, 0.00, -0.00, -1.00, 506.0, 476.2)">t</text><text xml:space="preserve" font-family="Helvetica-Bold,Helvetica" font-weight="bold" font-size="36.0" fill="#FEFFFF" transform="matrix(1.00, 0.00, -0.00, -1.00, 518.0, 476.2)">e</text><text xml:space="preserve" font-family="Helvetica-Bold,Helvetica" font-weight="bold" font-size="36.0" fill="#FEFFFF" transform="matrix(1.00, 0.00, -0.00, -1.00, 538.0, 476.2)">m</text><text xml:space="preserve" font-family="Helvetica-Bold,Helvetica" font-weight="bold" font-size="36.0" fill="#FEFFFF" transform="matrix(1.00, 0.00, -0.00, -1.00, 570.0, 476.2)"> </text><text xml:space="preserve" font-family="Helvetica-Bold,Helvetica" font-weight="bold" font-size="36.0" fill="#FEFFFF" transform="matrix(1.00, 0.00, -0.00, -1.00, 580.0, 476.2)">L</text><text xml:space="preserve" font-family="Helvetica-Bold,Helvetica" font-weight="bold" font-size="36.0" fill="#FEFFFF" transform="matrix(1.00, 0.00, -0.00, -1.00, 602.0, 476.2)">o</text><text xml:space="preserve" font-family="Helvetica-Bold,Helvetica" font-weight="bold" font-size="36.0" fill="#FEFFFF" transform="matrix(1.00, 0.00, -0.00, -1.00, 624.0, 476.2)">o</text><text xml:space="preserve" font-family="Helvetica-Bold,Helvetica" font-weight="bold" font-size="36.0" fill="#FEFFFF" transform="matrix(1.00, 0.00, -0.00, -1.00, 646.0, 476.2)">p</text><text xml:space="preserve" font-family="Helvetica-Bold,Helvetica" font-weight="bold" font-size="36.0" fill="#FEFFFF" transform="matrix(1.00, 0.00, -0.00, -1.00, 668.0, 476.2)">s</text></g></svg>