<?xml version="1.0" encoding="UTF-8" standalone="no"?><svg xmlns="http://www.w3.org/2000/svg" xmlns:xlink="http://www.w3.org/1999/xlink" clip-rule="evenodd" stroke-miterlimit="10" viewBox="0 0 1024 768"><desc>SVG generated by Keynote</desc><defs><linearGradient id="gradSh1.10" x1="0.0" y1="0.0" x2="100.0" y2="0.0" gradientUnits="userSpaceOnUse" gradientTransform="matrix(0.00, -0.51, -0.51, 0.00, 433.5, 578.0)"><stop offset="0.00000" stop-color="#189B1A"></stop><stop offset="0.00660" stop-color="#189A1A"></stop><stop offset="0.69355" stop-color="#207010"></stop><stop offset="0.70015" stop-color="#206F10"></stop><stop offset="0.70308" stop-color="#206F0F"></stop><stop offset="0.71628" stop-color="#206E0F"></stop><stop offset="1.00000" stop-color="#235D0B"></stop></linearGradient><linearGradient id="gradSh1.11" x1="0.0" y1="0.0" x2="100.0" y2="0.0" gradientUnits="userSpaceOnUse" gradientTransform="matrix(0.00, -0.51, -0.51, 0.00, 433.5, 462.0)"><stop offset="0.00000" stop-color="#189B1A"></stop><stop offset="0.00660" stop-color="#189A1A"></stop><stop offset="0.69355" stop-color="#207010"></stop><stop offset="0.70015" stop-color="#206F10"></stop><stop offset="0.70308" stop-color="#206F0F"></stop><stop offset="0.71628" stop-color="#206E0F"></stop><stop offset="1.00000" stop-color="#235D0B"></stop></linearGradient><linearGradient id="gradSh1.12" x1="0.0" y1="0.0" x2="100.0" y2="0.0" gradientUnits="userSpaceOnUse" gradientTransform="matrix(0.00, -0.51, -0.51, 0.00, 433.5, 288.0)"><stop offset="0.00000" stop-color="#189B1A"></stop><stop offset="0.00660" stop-color="#189A1A"></stop><stop offset="0.69355" stop-color="#207010"></stop><stop offset="0.70015" stop-color="#206F10"></stop><stop offset="0.70308" stop-color="#206F0F"></stop><stop offset="0.71628" stop-color="#206E0F"></stop><stop offset="1.00000" stop-color="#235D0B"></stop></linearGradient><linearGradient id="gradSh1.13" x1="0.0" y1="0.0" x2="100.0" y2="0.0" gradientUnits="userSpaceOnUse" gradientTransform="matrix(0.00, -0.51, -0.51, 0.00, 590.5, 211.0)"><stop offset="0.00000" stop-color="#189B1A"></stop><stop offset="0.00660" stop-color="#189A1A"></stop><stop offset="0.69355" stop-color="#207010"></stop><stop offset="0.70015" stop-color="#206F10"></stop><stop offset="0.70308" stop-color="#206F0F"></stop><stop offset="0.71628" stop-color="#206E0F"></stop><stop offset="1.00000" stop-color="#235D0B"></stop></linearGradient><linearGradient id="gradSh1.14" x1="0.0" y1="0.0" x2="100.0" y2="0.0" gradientUnits="userSpaceOnUse" gradientTransform="matrix(0.00, -0.51, -0.51, 0.00, 482.5, 88.0)"><stop offset="0.00000" stop-color="#189B1A"></stop><stop offset="0.00660" stop-color="#189A1A"></stop><stop offset="0.69355" stop-color="#207010"></stop><stop offset="0.70015" stop-color="#206F10"></stop><stop offset="0.70308" stop-color="#206F0F"></stop><stop offset="0.71628" stop-color="#206E0F"></stop><stop offset="1.00000" stop-color="#235D0B"></stop></linearGradient></defs><g transform="matrix(1.00, 0.00, -0.00, -1.00, 0.0, 768.0)"><path d="M 0.0 768.0 L 1024.0 768.0 L 1024.0 0.0 L 0.0 0.0 Z M 0.0 768.0 " fill="#000000"></path><text xml:space="preserve" font-family="Helvetica-Light,Helvetica" font-size="80.0" fill="#FEFFFF" transform="matrix(1.00, 0.00, -0.00, -1.00, 171.8, 615.3)">R</text><text xml:space="preserve" font-family="Helvetica-Light,Helvetica" font-size="80.0" fill="#FEFFFF" transform="matrix(1.00, 0.00, -0.00, -1.00, 225.2, 615.3)">N</text><text xml:space="preserve" font-family="Helvetica-Light,Helvetica" font-size="80.0" fill="#FEFFFF" transform="matrix(1.00, 0.00, -0.00, -1.00, 282.9, 615.3)">A</text><text xml:space="preserve" font-family="Helvetica-Light,Helvetica" font-size="80.0" fill="#FEFFFF" transform="matrix(1.00, 0.00, -0.00, -1.00, 336.3, 615.3)"> </text><text xml:space="preserve" font-family="Helvetica-Light,Helvetica" font-size="80.0" fill="#FEFFFF" transform="matrix(1.00, 0.00, -0.00, -1.00, 358.5, 615.3)">C</text><text xml:space="preserve" font-family="Helvetica-Light,Helvetica" font-size="80.0" fill="#FEFFFF" transform="matrix(1.00, 0.00, -0.00, -1.00, 416.3, 615.3)">r</text><text xml:space="preserve" font-family="Helvetica-Light,Helvetica" font-size="80.0" fill="#FEFFFF" transform="matrix(1.00, 0.00, -0.00, -1.00, 442.9, 615.3)">a</text><text xml:space="preserve" font-family="Helvetica-Light,Helvetica" font-size="80.0" fill="#FEFFFF" transform="matrix(1.00, 0.00, -0.00, -1.00, 487.4, 615.3)">s</text><text xml:space="preserve" font-family="Helvetica-Light,Helvetica" font-size="80.0" fill="#FEFFFF" transform="matrix(1.00, 0.00, -0.00, -1.00, 527.4, 615.3)">h</text><text xml:space="preserve" font-family="Helvetica-Light,Helvetica" font-size="80.0" fill="#FEFFFF" transform="matrix(1.00, 0.00, -0.00, -1.00, 571.9, 615.3)"> </text><text xml:space="preserve" font-family="Helvetica-Light,Helvetica" font-size="80.0" fill="#FEFFFF" transform="matrix(1.00, 0.00, -0.00, -1.00, 594.1, 615.3)">C</text><text xml:space="preserve" font-family="Helvetica-Light,Helvetica" font-size="80.0" fill="#FEFFFF" transform="matrix(1.00, 0.00, -0.00, -1.00, 651.9, 615.3)">o</text><text xml:space="preserve" font-family="Helvetica-Light,Helvetica" font-size="80.0" fill="#FEFFFF" transform="matrix(1.00, 0.00, -0.00, -1.00, 696.4, 615.3)">u</text><text xml:space="preserve" font-family="Helvetica-Light,Helvetica" font-size="80.0" fill="#FEFFFF" transform="matrix(1.00, 0.00, -0.00, -1.00, 740.9, 615.3)">r</text><text xml:space="preserve" font-family="Helvetica-Light,Helvetica" font-size="80.0" fill="#FEFFFF" transform="matrix(1.00, 0.00, -0.00, -1.00, 767.5, 615.3)">s</text><text xml:space="preserve" font-family="Helvetica-Light,Helvetica" font-size="80.0" fill="#FEFFFF" transform="matrix(1.00, 0.00, -0.00, -1.00, 807.5, 615.3)">e</text><g><clipPath id="clip0x600005ebb060"><path d="M 566.0 577.0 L 615.0 577.0 L 615.0 528.0 L 566.0 528.0 Z M 565.9 576.8 "></path></clipPath><g clip-path="url(#clip0x600005ebb060)"><g><clipPath id="clip0x600005ebb240"><path d="M 564.9 526.9 L 615.9 526.9 L 615.9 577.8 L 564.9 577.8 Z M 564.9 526.9 "></path></clipPath><g clip-path="url(#clip0x600005ebb240)"><image xlink:href="../../3B445655-58E2-4713-A78D-0D67BEF88038/assets/D4C4F7412939FC5A38D1E24170601DA4.png" width="256.00" height="256.00" transform="matrix(0.50, 0.00, -0.00, -0.50, 566.0, 577.0)"></image></g></g></g></g><g><clipPath id="clip0x600005ebb180"><path d="M 563.4 527.9 L 617.4 527.9 L 617.4 576.8 L 563.4 576.8 Z M 563.4 527.9 "></path></clipPath><g clip-path="url(#clip0x600005ebb180)"><text xml:space="preserve" font-family="Helvetica-Light,Helvetica" font-size="26.0" fill="#FEFFFF" transform="matrix(1.00, 0.00, -0.00, -1.00, 580.3, 542.8)">G</text></g></g><g><clipPath id="clip0x6000064bd580"><path d="M 409.0 577.0 L 458.0 577.0 L 458.0 528.0 L 409.0 528.0 Z M 409.1 576.8 "></path></clipPath><g clip-path="url(#clip0x6000064bd580)"><g><clipPath id="clip0x6000064b38c0"><path d="M 408.1 526.9 L 459.1 526.9 L 459.1 577.8 L 408.1 577.8 Z M 408.1 526.9 "></path></clipPath><g clip-path="url(#clip0x6000064b38c0)"><path d="M 408.1 526.9 L 459.1 526.9 L 459.1 577.8 L 408.1 577.8 Z M 408.1 526.9 " fill="url(#gradSh1.10)"></path></g></g></g></g><g><clipPath id="clip0x6000060b86c0"><path d="M 406.6 527.9 L 460.6 527.9 L 460.6 576.8 L 406.6 576.8 Z M 406.6 527.9 "></path></clipPath><g clip-path="url(#clip0x6000060b86c0)"><text xml:space="preserve" font-family="Helvetica-Light,Helvetica" font-size="26.0" fill="#FEFFFF" transform="matrix(1.00, 0.00, -0.00, -1.00, 424.2, 542.8)">C</text></g></g><g><clipPath id="clip0x6000060b8900"><path d="M 409.0 519.0 L 458.0 519.0 L 458.0 470.0 L 409.0 470.0 Z M 409.1 518.8 "></path></clipPath><g clip-path="url(#clip0x6000060b8900)"><g><clipPath id="clip0x6000060b8a80"><path d="M 408.1 468.8 L 459.1 468.8 L 459.1 519.8 L 408.1 519.8 Z M 408.1 468.8 "></path></clipPath><g clip-path="url(#clip0x6000060b8a80)"><image xlink:href="../../3B445655-58E2-4713-A78D-0D67BEF88038/assets/8E13FF0D2A86B705C84DE77C8D855D85.png" width="256.00" height="256.00" transform="matrix(0.50, 0.00, -0.00, -0.50, 409.0, 519.0)"></image></g></g></g></g><g><clipPath id="clip0x6000060b8ae0"><path d="M 406.6 469.8 L 460.6 469.8 L 460.6 518.8 L 406.6 518.8 Z M 406.6 469.8 "></path></clipPath><g clip-path="url(#clip0x6000060b8ae0)"><text xml:space="preserve" font-family="Helvetica-Light,Helvetica" font-size="26.0" fill="#FEFFFF" transform="matrix(1.00, 0.00, -0.00, -1.00, 424.9, 484.8)">A</text></g></g><g><clipPath id="clip0x6000060b8f00"><path d="M 566.0 519.0 L 615.0 519.0 L 615.0 470.0 L 566.0 470.0 Z M 565.9 518.8 "></path></clipPath><g clip-path="url(#clip0x6000060b8f00)"><g><clipPath id="clip0x6000060b9080"><path d="M 564.9 468.8 L 615.9 468.8 L 615.9 519.8 L 564.9 519.8 Z M 564.9 468.8 "></path></clipPath><g clip-path="url(#clip0x6000060b9080)"><image xlink:href="../../3B445655-58E2-4713-A78D-0D67BEF88038/assets/41E12EFF7BBBDE6590338AACEEEADB02.png" width="256.00" height="256.00" transform="matrix(0.50, 0.00, -0.00, -0.50, 566.0, 519.0)"></image></g></g></g></g><g><clipPath id="clip0x6000060b90e0"><path d="M 563.4 469.8 L 617.4 469.8 L 617.4 518.8 L 563.4 518.8 Z M 563.4 469.8 "></path></clipPath><g clip-path="url(#clip0x6000060b90e0)"><text xml:space="preserve" font-family="Helvetica-Light,Helvetica" font-size="26.0" fill="#FEFFFF" transform="matrix(1.00, 0.00, -0.00, -1.00, 581.0, 484.8)">U</text></g></g><g><clipPath id="clip0x6000060b9500"><path d="M 566.0 461.0 L 615.0 461.0 L 615.0 412.0 L 566.0 412.0 Z M 565.9 460.7 "></path></clipPath><g clip-path="url(#clip0x6000060b9500)"><g><clipPath id="clip0x6000060b9680"><path d="M 564.9 410.8 L 615.9 410.8 L 615.9 461.7 L 564.9 461.7 Z M 564.9 410.8 "></path></clipPath><g clip-path="url(#clip0x6000060b9680)"><image xlink:href="../../3B445655-58E2-4713-A78D-0D67BEF88038/assets/D4C4F7412939FC5A38D1E24170601DA4.png" width="256.00" height="256.00" transform="matrix(0.50, 0.00, -0.00, -0.50, 566.0, 461.0)"></image></g></g></g></g><g><clipPath id="clip0x6000060b96e0"><path d="M 563.4 411.8 L 617.4 411.8 L 617.4 460.7 L 563.4 460.7 Z M 563.4 411.8 "></path></clipPath><g clip-path="url(#clip0x6000060b96e0)"><text xml:space="preserve" font-family="Helvetica-Light,Helvetica" font-size="26.0" fill="#FEFFFF" transform="matrix(1.00, 0.00, -0.00, -1.00, 580.3, 426.7)">G</text></g></g><g><clipPath id="clip0x6000060b9b00"><path d="M 409.0 461.0 L 458.0 461.0 L 458.0 412.0 L 409.0 412.0 Z M 409.1 460.7 "></path></clipPath><g clip-path="url(#clip0x6000060b9b00)"><g><clipPath id="clip0x6000060b9c80"><path d="M 408.1 410.8 L 459.1 410.8 L 459.1 461.7 L 408.1 461.7 Z M 408.1 410.8 "></path></clipPath><g clip-path="url(#clip0x6000060b9c80)"><path d="M 408.1 410.8 L 459.1 410.8 L 459.1 461.7 L 408.1 461.7 Z M 408.1 410.8 " fill="url(#gradSh1.11)"></path></g></g></g></g><g><clipPath id="clip0x6000062b86c0"><path d="M 406.6 411.8 L 460.6 411.8 L 460.6 460.7 L 406.6 460.7 Z M 406.6 411.8 "></path></clipPath><g clip-path="url(#clip0x6000062b86c0)"><text xml:space="preserve" font-family="Helvetica-Light,Helvetica" font-size="26.0" fill="#FEFFFF" transform="matrix(1.00, 0.00, -0.00, -1.00, 424.2, 426.7)">C</text></g></g><g><clipPath id="clip0x6000062b8900"><path d="M 409.0 403.0 L 458.0 403.0 L 458.0 354.0 L 409.0 354.0 Z M 409.1 402.7 "></path></clipPath><g clip-path="url(#clip0x6000062b8900)"><g><clipPath id="clip0x6000062b8a80"><path d="M 408.1 352.7 L 459.1 352.7 L 459.1 403.7 L 408.1 403.7 Z M 408.1 352.7 "></path></clipPath><g clip-path="url(#clip0x6000062b8a80)"><image xlink:href="../../3B445655-58E2-4713-A78D-0D67BEF88038/assets/8E13FF0D2A86B705C84DE77C8D855D85.png" width="256.00" height="256.00" transform="matrix(0.50, 0.00, -0.00, -0.50, 409.0, 403.0)"></image></g></g></g></g><g><clipPath id="clip0x6000062b8ae0"><path d="M 406.6 353.7 L 460.6 353.7 L 460.6 402.7 L 406.6 402.7 Z M 406.6 353.7 "></path></clipPath><g clip-path="url(#clip0x6000062b8ae0)"><text xml:space="preserve" font-family="Helvetica-Light,Helvetica" font-size="26.0" fill="#FEFFFF" transform="matrix(1.00, 0.00, -0.00, -1.00, 424.9, 368.7)">A</text></g></g><g><clipPath id="clip0x6000062b8f00"><path d="M 566.0 403.0 L 615.0 403.0 L 615.0 354.0 L 566.0 354.0 Z M 565.9 402.7 "></path></clipPath><g clip-path="url(#clip0x6000062b8f00)"><g><clipPath id="clip0x6000062b9080"><path d="M 564.9 352.7 L 615.9 352.7 L 615.9 403.7 L 564.9 403.7 Z M 564.9 352.7 "></path></clipPath><g clip-path="url(#clip0x6000062b9080)"><image xlink:href="../../3B445655-58E2-4713-A78D-0D67BEF88038/assets/41E12EFF7BBBDE6590338AACEEEADB02.png" width="256.00" height="256.00" transform="matrix(0.50, 0.00, -0.00, -0.50, 566.0, 403.0)"></image></g></g></g></g><g><clipPath id="clip0x6000062b90e0"><path d="M 563.4 353.7 L 617.4 353.7 L 617.4 402.7 L 563.4 402.7 Z M 563.4 353.7 "></path></clipPath><g clip-path="url(#clip0x6000062b90e0)"><text xml:space="preserve" font-family="Helvetica-Light,Helvetica" font-size="26.0" fill="#FEFFFF" transform="matrix(1.00, 0.00, -0.00, -1.00, 581.0, 368.7)">U</text></g></g><g><clipPath id="clip0x6000062b9500"><path d="M 409.0 345.0 L 458.0 345.0 L 458.0 296.0 L 409.0 296.0 Z M 409.1 344.6 "></path></clipPath><g clip-path="url(#clip0x6000062b9500)"><g><clipPath id="clip0x6000062b9680"><path d="M 408.1 294.7 L 459.1 294.7 L 459.1 345.6 L 408.1 345.6 Z M 408.1 294.7 "></path></clipPath><g clip-path="url(#clip0x6000062b9680)"><image xlink:href="../../3B445655-58E2-4713-A78D-0D67BEF88038/assets/8E13FF0D2A86B705C84DE77C8D855D85.png" width="256.00" height="256.00" transform="matrix(0.50, 0.00, -0.00, -0.50, 409.0, 345.0)"></image></g></g></g></g><g><clipPath id="clip0x6080064a27c0"><path d="M 406.6 295.7 L 460.6 295.7 L 460.6 344.6 L 406.6 344.6 Z M 406.6 295.7 "></path></clipPath><g clip-path="url(#clip0x6080064a27c0)"><text xml:space="preserve" font-family="Helvetica-Light,Helvetica" font-size="26.0" fill="#FEFFFF" transform="matrix(1.00, 0.00, -0.00, -1.00, 424.9, 310.6)">A</text></g></g><g><clipPath id="clip0x6080064a23a0"><path d="M 566.0 345.0 L 615.0 345.0 L 615.0 296.0 L 566.0 296.0 Z M 565.9 344.6 "></path></clipPath><g clip-path="url(#clip0x6080064a23a0)"><g><clipPath id="clip0x6080064a2880"><path d="M 564.9 294.7 L 615.9 294.7 L 615.9 345.6 L 564.9 345.6 Z M 564.9 294.7 "></path></clipPath><g clip-path="url(#clip0x6080064a2880)"><image xlink:href="../../3B445655-58E2-4713-A78D-0D67BEF88038/assets/41E12EFF7BBBDE6590338AACEEEADB02.png" width="256.00" height="256.00" transform="matrix(0.50, 0.00, -0.00, -0.50, 566.0, 345.0)"></image></g></g></g></g><g><clipPath id="clip0x6080064a2820"><path d="M 563.4 295.7 L 617.4 295.7 L 617.4 344.6 L 563.4 344.6 Z M 563.4 295.7 "></path></clipPath><g clip-path="url(#clip0x6080064a2820)"><text xml:space="preserve" font-family="Helvetica-Light,Helvetica" font-size="26.0" fill="#FEFFFF" transform="matrix(1.00, 0.00, -0.00, -1.00, 581.0, 310.6)">U</text></g></g><g><clipPath id="clip0x6080064a2ca0"><path d="M 566.0 287.0 L 615.0 287.0 L 615.0 238.0 L 566.0 238.0 Z M 565.9 286.6 "></path></clipPath><g clip-path="url(#clip0x6080064a2ca0)"><g><clipPath id="clip0x6080064a2e20"><path d="M 564.9 236.6 L 615.9 236.6 L 615.9 287.6 L 564.9 287.6 Z M 564.9 236.6 "></path></clipPath><g clip-path="url(#clip0x6080064a2e20)"><image xlink:href="../../3B445655-58E2-4713-A78D-0D67BEF88038/assets/D4C4F7412939FC5A38D1E24170601DA4.png" width="256.00" height="256.00" transform="matrix(0.50, 0.00, -0.00, -0.50, 566.0, 287.0)"></image></g></g></g></g><g><clipPath id="clip0x6000062b96e0"><path d="M 563.4 237.6 L 617.4 237.6 L 617.4 286.6 L 563.4 286.6 Z M 563.4 237.6 "></path></clipPath><g clip-path="url(#clip0x6000062b96e0)"><text xml:space="preserve" font-family="Helvetica-Light,Helvetica" font-size="26.0" fill="#FEFFFF" transform="matrix(1.00, 0.00, -0.00, -1.00, 580.3, 252.6)">G</text></g></g><g><clipPath id="clip0x6000062b9b00"><path d="M 409.0 287.0 L 458.0 287.0 L 458.0 238.0 L 409.0 238.0 Z M 409.1 286.6 "></path></clipPath><g clip-path="url(#clip0x6000062b9b00)"><g><clipPath id="clip0x6000062b9c80"><path d="M 408.1 236.6 L 459.1 236.6 L 459.1 287.6 L 408.1 287.6 Z M 408.1 236.6 "></path></clipPath><g clip-path="url(#clip0x6000062b9c80)"><path d="M 408.1 236.6 L 459.1 236.6 L 459.1 287.6 L 408.1 287.6 Z M 408.1 236.6 " fill="url(#gradSh1.12)"></path></g></g></g></g><g><clipPath id="clip0x6000064bc680"><path d="M 406.6 237.6 L 460.6 237.6 L 460.6 286.6 L 406.6 286.6 Z M 406.6 237.6 "></path></clipPath><g clip-path="url(#clip0x6000064bc680)"><text xml:space="preserve" font-family="Helvetica-Light,Helvetica" font-size="26.0" fill="#FEFFFF" transform="matrix(1.00, 0.00, -0.00, -1.00, 424.2, 252.6)">C</text></g></g><g><clipPath id="clip0x6000064bc8c0"><path d="M 434.0 148.0 L 483.0 148.0 L 483.0 99.0 L 434.0 99.0 Z M 433.6 148.4 "></path></clipPath><g clip-path="url(#clip0x6000064bc8c0)"><image xlink:href="../../3B445655-58E2-4713-A78D-0D67BEF88038/assets/D4C4F7412939FC5A38D1E24170601DA4.png" width="256.00" height="256.00" transform="matrix(0.50, 0.00, -0.00, -0.50, 434.0, 148.0)"></image></g></g><g><clipPath id="clip0x6000064bc920"><path d="M 431.1 99.5 L 485.1 99.5 L 485.1 148.4 L 431.1 148.4 Z M 431.1 99.5 "></path></clipPath><g clip-path="url(#clip0x6000064bc920)"><text xml:space="preserve" font-family="Helvetica-Light,Helvetica" font-size="26.0" fill="#FEFFFF" transform="matrix(1.00, 0.00, -0.00, -1.00, 448.0, 114.4)">G</text></g></g><g><clipPath id="clip0x6000064bcd40"><path d="M 566.0 210.0 L 615.0 210.0 L 615.0 161.0 L 566.0 161.0 Z M 565.9 210.0 "></path></clipPath><g clip-path="url(#clip0x6000064bcd40)"><path d="M 566.0 210.0 L 615.0 210.0 L 615.0 161.0 L 566.0 161.0 Z M 565.9 210.0 " fill="url(#gradSh1.13)"></path></g></g><g><clipPath id="clip0x6000066bda00"><path d="M 563.4 161.0 L 617.4 161.0 L 617.4 210.0 L 563.4 210.0 Z M 563.4 161.0 "></path></clipPath><g clip-path="url(#clip0x6000066bda00)"><text xml:space="preserve" font-family="Helvetica-Light,Helvetica" font-size="26.0" fill="#FEFFFF" transform="matrix(1.00, 0.00, -0.00, -1.00, 581.0, 175.9)">C</text></g></g><g><clipPath id="clip0x6000066bf0e0"><path d="M 517.0 87.0 L 566.0 87.0 L 566.0 38.0 L 517.0 38.0 Z M 516.9 86.9 "></path></clipPath><g clip-path="url(#clip0x6000066bf0e0)"><image xlink:href="../../3B445655-58E2-4713-A78D-0D67BEF88038/assets/8E13FF0D2A86B705C84DE77C8D855D85.png" width="256.00" height="256.00" transform="matrix(0.50, 0.00, -0.00, -0.50, 517.0, 87.0)"></image></g></g><g><clipPath id="clip0x6080064a2e80"><path d="M 514.4 37.9 L 568.4 37.9 L 568.4 86.9 L 514.4 86.9 Z M 514.4 37.9 "></path></clipPath><g clip-path="url(#clip0x6080064a2e80)"><text xml:space="preserve" font-family="Helvetica-Light,Helvetica" font-size="26.0" fill="#FEFFFF" transform="matrix(1.00, 0.00, -0.00, -1.00, 532.8, 52.9)">A</text></g></g><g><clipPath id="clip0x6080064a3d20"><path d="M 409.0 210.0 L 458.0 210.0 L 458.0 161.0 L 409.0 161.0 Z M 409.1 210.0 "></path></clipPath><g clip-path="url(#clip0x6080064a3d20)"><image xlink:href="../../3B445655-58E2-4713-A78D-0D67BEF88038/assets/41E12EFF7BBBDE6590338AACEEEADB02.png" width="256.00" height="256.00" transform="matrix(0.50, 0.00, -0.00, -0.50, 409.0, 210.0)"></image></g></g><g><clipPath id="clip0x6080066a3d20"><path d="M 406.6 161.0 L 460.6 161.0 L 460.6 210.0 L 406.6 210.0 Z M 406.6 161.0 "></path></clipPath><g clip-path="url(#clip0x6080066a3d20)"><text xml:space="preserve" font-family="Helvetica-Light,Helvetica" font-size="26.0" fill="#FEFFFF" transform="matrix(1.00, 0.00, -0.00, -1.00, 424.2, 175.9)">U</text></g></g><g><clipPath id="clip0x6080066a6960"><path d="M 541.0 148.0 L 590.0 148.0 L 590.0 99.0 L 541.0 99.0 Z M 541.4 148.4 "></path></clipPath><g clip-path="url(#clip0x6080066a6960)"><image xlink:href="../../3B445655-58E2-4713-A78D-0D67BEF88038/assets/41E12EFF7BBBDE6590338AACEEEADB02.png" width="256.00" height="256.00" transform="matrix(0.50, 0.00, -0.00, -0.50, 541.0, 148.0)"></image></g></g><g><clipPath id="clip0x6080066a66c0"><path d="M 538.9 99.5 L 592.9 99.5 L 592.9 148.4 L 538.9 148.4 Z M 538.9 99.5 "></path></clipPath><g clip-path="url(#clip0x6080066a66c0)"><text xml:space="preserve" font-family="Helvetica-Light,Helvetica" font-size="26.0" fill="#FEFFFF" transform="matrix(1.00, 0.00, -0.00, -1.00, 556.5, 114.4)">U</text></g></g><g><clipPath id="clip0x6080066a6240"><path d="M 458.0 87.0 L 507.0 87.0 L 507.0 38.0 L 458.0 38.0 Z M 458.1 86.9 "></path></clipPath><g clip-path="url(#clip0x6080066a6240)"><path d="M 458.0 87.0 L 507.0 87.0 L 507.0 38.0 L 458.0 38.0 Z M 458.1 86.9 " fill="url(#gradSh1.14)"></path></g></g><g><clipPath id="clip0x6080066a2280"><path d="M 455.6 37.9 L 509.6 37.9 L 509.6 86.9 L 455.6 86.9 Z M 455.6 37.9 "></path></clipPath><g clip-path="url(#clip0x6080066a2280)"><text xml:space="preserve" font-family="Helvetica-Light,Helvetica" font-size="26.0" fill="#FEFFFF" transform="matrix(1.00, 0.00, -0.00, -1.00, 473.2, 52.9)">C</text></g></g><path d="M 8.4 -0.5 L 9.6 -0.5 L 330.1 -0.5 L 331.4 -0.5 " fill="none" stroke="#FEFFFE" stroke-width="2.00" transform="matrix(0.00, 1.00, 1.00, 0.00, 335.5, 237.6)"></path><path d="M 0.0 0.0 L 3.0 5.0 L 6.0 0.0 M 3.0 0.0 L 3.0 5.0 " fill="none" stroke="#FEFFFE" stroke-width="1.25" stroke-linejoin="round" transform="matrix(-1.60, 0.00, 0.00, 1.60, 339.8, 568.0)"></path><path d="M 330.2 247.0 L 335.0 237.4 L 339.8 247.0 Z M 330.2 247.0 " fill="#FEFFFE"></path><path d="M 9.1 0.5 L 9.6 0.5 L 163.0 0.5 L 164.1 0.5 " fill="none" stroke="#FEFFFE" stroke-width="2.00" transform="matrix(0.00, 1.00, 1.00, 0.00, 688.5, 37.9)"></path><path d="M 0.0 0.0 L 3.0 5.0 L 6.0 0.0 M 3.0 0.0 L 3.0 5.0 " fill="none" stroke="#FEFFFE" stroke-width="1.25" stroke-linejoin="round" transform="matrix(-1.60, 0.00, 0.00, 1.60, 693.8, 201.0)"></path><path d="M 684.2 48.0 L 689.0 38.4 L 693.8 48.0 Z M 684.2 48.0 " fill="#FEFFFE"></path><text xml:space="preserve" font-family="Helvetica-Light,Helvetica" font-size="36.0" fill="#FEFFFF" transform="matrix(1.00, 0.00, -0.00, -1.00, 214.3, 398.5)">S</text><text xml:space="preserve" font-family="Helvetica-Light,Helvetica" font-size="36.0" fill="#FEFFFF" transform="matrix(1.00, 0.00, -0.00, -1.00, 236.3, 398.5)">t</text><text xml:space="preserve" font-family="Helvetica-Light,Helvetica" font-size="36.0" fill="#FEFFFF" transform="matrix(1.00, 0.00, -0.00, -1.00, 246.3, 398.5)">e</text><text xml:space="preserve" font-family="Helvetica-Light,Helvetica" font-size="36.0" fill="#FEFFFF" transform="matrix(1.00, 0.00, -0.00, -1.00, 266.3, 398.5)">m</text><text xml:space="preserve" font-family="Helvetica-Light,Helvetica" font-size="36.0" fill="#FEFFFF" transform="matrix(1.00, 0.00, -0.00, -1.00, 719.6, 111.7)">L</text><text xml:space="preserve" font-family="Helvetica-Light,Helvetica" font-size="36.0" fill="#FEFFFF" transform="matrix(1.00, 0.00, -0.00, -1.00, 739.6, 111.7)">o</text><text xml:space="preserve" font-family="Helvetica-Light,Helvetica" font-size="36.0" fill="#FEFFFF" transform="matrix(1.00, 0.00, -0.00, -1.00, 759.6, 111.7)">o</text><text xml:space="preserve" font-family="Helvetica-Light,Helvetica" font-size="36.0" fill="#FEFFFF" transform="matrix(1.00, 0.00, -0.00, -1.00, 779.6, 111.7)">p</text><path d="M -0.4 -0.2 L 243.6 -0.2 L 243.6 58.8 L -0.4 58.8 Z M 0.0 0.0 " fill="none" stroke="#FEFFFE" stroke-width="2.00" transform="matrix(1.00, 0.00, 0.00, -1.00, 392.5, 289.3)"></path><g><clipPath id="clip0x6080066a2b80"><path d="M 388.8 231.8 L 639.3 231.8 L 639.3 288.3 L 388.8 288.3 Z M 388.8 231.8 "></path></clipPath><g clip-path="url(#clip0x6080066a2b80)"><text xml:space="preserve" font-family="STIXGeneral-Regular,STIXGeneral" font-size="23.0" fill="#FEFFFF" transform="matrix(1.00, 0.00, -0.00, -1.00, 496.0, 252.8)">⟷</text></g></g></g></svg>