<?xml version="1.0" encoding="UTF-8" standalone="no"?><svg xmlns="http://www.w3.org/2000/svg" xmlns:xlink="http://www.w3.org/1999/xlink" clip-rule="evenodd" stroke-miterlimit="10" viewBox="0 0 208 52"><desc>SVG generated by Keynote</desc><defs></defs><g transform="matrix(1.00, 0.00, -0.00, -1.00, 0.0, 52.0)"><g><clipPath id="clip0x600004eac120"><path d="M 1.0 51.0 L 50.0 51.0 L 50.0 2.0 L 1.0 2.0 Z M 1.1 50.7 "></path></clipPath><g clip-path="url(#clip0x600004eac120)"><g><clipPath id="clip0x6000052a6c00"><path d="M 0.1 0.7 L 51.1 0.7 L 51.1 51.7 L 0.1 51.7 Z M 0.1 0.7 "></path></clipPath><g clip-path="url(#clip0x6000052a6c00)"><image xlink:href="../../3B445655-58E2-4713-A78D-0D67BEF88038/assets/8E13FF0D2A86B705C84DE77C8D855D85.png" width="256.00" height="256.00" transform="matrix(0.50, 0.00, -0.00, -0.50, 1.0, 51.0)"></image></g></g></g></g><g><clipPath id="clip0x6000052a6cc0"><path d="M -1.4 1.7 L 52.6 1.7 L 52.6 50.7 L -1.4 50.7 Z M -1.4 1.7 "></path></clipPath><g clip-path="url(#clip0x6000052a6cc0)"><text xml:space="preserve" font-family="Helvetica-Light,Helvetica" font-size="26.0" fill="#FEFFFF" transform="matrix(1.00, 0.00, -0.00, -1.00, 16.9, 16.7)">A</text></g></g><g><clipPath id="clip0x6000052a71a0"><path d="M 158.0 51.0 L 207.0 51.0 L 207.0 2.0 L 158.0 2.0 Z M 157.9 50.7 "></path></clipPath><g clip-path="url(#clip0x6000052a71a0)"><g><clipPath id="clip0x6000052a7320"><path d="M 156.9 0.7 L 207.9 0.7 L 207.9 51.7 L 156.9 51.7 Z M 156.9 0.7 "></path></clipPath><g clip-path="url(#clip0x6000052a7320)"><image xlink:href="../../3B445655-58E2-4713-A78D-0D67BEF88038/assets/41E12EFF7BBBDE6590338AACEEEADB02.png" width="256.00" height="256.00" transform="matrix(0.50, 0.00, -0.00, -0.50, 158.0, 51.0)"></image></g></g></g></g><g><clipPath id="clip0x608005aa3480"><path d="M 155.4 1.7 L 209.4 1.7 L 209.4 50.7 L 155.4 50.7 Z M 155.4 1.7 "></path></clipPath><g clip-path="url(#clip0x608005aa3480)"><text xml:space="preserve" font-family="Helvetica-Light,Helvetica" font-size="26.0" fill="#FEFFFF" transform="matrix(1.00, 0.00, -0.00, -1.00, 173.0, 16.7)">U</text></g></g></g></svg>