<?xml version="1.0" encoding="UTF-8" standalone="no"?><svg xmlns="http://www.w3.org/2000/svg" xmlns:xlink="http://www.w3.org/1999/xlink" clip-rule="evenodd" stroke-miterlimit="10" viewBox="0 0 208 52"><desc>SVG generated by Keynote</desc><defs><linearGradient id="gradSh1.6" x1="0.0" y1="0.0" x2="100.0" y2="0.0" gradientUnits="userSpaceOnUse" gradientTransform="matrix(0.00, -0.51, -0.51, 0.00, 25.5, 52.0)"><stop offset="0.00000" stop-color="#189B1A"></stop><stop offset="0.00660" stop-color="#189A1A"></stop><stop offset="0.69355" stop-color="#207010"></stop><stop offset="0.70015" stop-color="#206F10"></stop><stop offset="0.70308" stop-color="#206F0F"></stop><stop offset="0.71628" stop-color="#206E0F"></stop><stop offset="1.00000" stop-color="#235D0B"></stop></linearGradient></defs><g transform="matrix(1.00, 0.00, -0.00, -1.00, 0.0, 52.0)"><g><clipPath id="clip0x6080058a2d60"><path d="M 158.0 51.0 L 207.0 51.0 L 207.0 2.0 L 158.0 2.0 Z M 157.9 50.7 "></path></clipPath><g clip-path="url(#clip0x6080058a2d60)"><g><clipPath id="clip0x6080058a2ee0"><path d="M 156.9 0.8 L 207.9 0.8 L 207.9 51.7 L 156.9 51.7 Z M 156.9 0.8 "></path></clipPath><g clip-path="url(#clip0x6080058a2ee0)"><image xlink:href="../../3B445655-58E2-4713-A78D-0D67BEF88038/assets/D4C4F7412939FC5A38D1E24170601DA4.png" width="256.00" height="256.00" transform="matrix(0.50, 0.00, -0.00, -0.50, 158.0, 51.0)"></image></g></g></g></g><g><clipPath id="clip0x6080058a2f40"><path d="M 155.4 1.8 L 209.4 1.8 L 209.4 50.7 L 155.4 50.7 Z M 155.4 1.8 "></path></clipPath><g clip-path="url(#clip0x6080058a2f40)"><text xml:space="preserve" font-family="Helvetica-Light,Helvetica" font-size="26.0" fill="#FEFFFF" transform="matrix(1.00, 0.00, -0.00, -1.00, 172.3, 16.7)">G</text></g></g><g><clipPath id="clip0x6080058a3360"><path d="M 1.0 51.0 L 50.0 51.0 L 50.0 2.0 L 1.0 2.0 Z M 1.1 50.7 "></path></clipPath><g clip-path="url(#clip0x6080058a3360)"><g><clipPath id="clip0x6080058a34e0"><path d="M 0.1 0.8 L 51.1 0.8 L 51.1 51.7 L 0.1 51.7 Z M 0.1 0.8 "></path></clipPath><g clip-path="url(#clip0x6080058a34e0)"><path d="M 0.1 0.8 L 51.1 0.8 L 51.1 51.7 L 0.1 51.7 Z M 0.1 0.8 " fill="url(#gradSh1.6)"></path></g></g></g></g><g><clipPath id="clip0x608005aa3120"><path d="M -1.4 1.8 L 52.6 1.8 L 52.6 50.7 L -1.4 50.7 Z M -1.4 1.8 "></path></clipPath><g clip-path="url(#clip0x608005aa3120)"><text xml:space="preserve" font-family="Helvetica-Light,Helvetica" font-size="26.0" fill="#FEFFFF" transform="matrix(1.00, 0.00, -0.00, -1.00, 16.2, 16.7)">C</text></g></g></g></svg>