<?xml version="1.0" encoding="UTF-8" standalone="no"?><svg xmlns="http://www.w3.org/2000/svg" xmlns:xlink="http://www.w3.org/1999/xlink" clip-rule="evenodd" stroke-miterlimit="10" viewBox="0 0 1024 768"><desc>SVG generated by Keynote</desc><defs></defs><g transform="matrix(1.00, 0.00, -0.00, -1.00, 0.0, 768.0)"><path d="M 0.0 768.0 L 1024.0 768.0 L 1024.0 0.0 L 0.0 0.0 Z M 0.0 768.0 " fill="#000000"></path><text xml:space="preserve" font-family="Helvetica-Light,Helvetica" font-size="80.0" fill="#FEFFFF" transform="matrix(1.00, 0.00, -0.00, -1.00, 318.6, 630.1)">A</text><text xml:space="preserve" font-family="Helvetica-Light,Helvetica" font-size="80.0" fill="#FEFFFF" transform="matrix(1.00, 0.00, -0.00, -1.00, 372.0, 630.1)">l</text><text xml:space="preserve" font-family="Helvetica-Light,Helvetica" font-size="80.0" fill="#FEFFFF" transform="matrix(1.00, 0.00, -0.00, -1.00, 389.8, 630.1)">g</text><text xml:space="preserve" font-family="Helvetica-Light,Helvetica" font-size="80.0" fill="#FEFFFF" transform="matrix(1.00, 0.00, -0.00, -1.00, 438.6, 630.1)">o</text><text xml:space="preserve" font-family="Helvetica-Light,Helvetica" font-size="80.0" fill="#FEFFFF" transform="matrix(1.00, 0.00, -0.00, -1.00, 483.1, 630.1)">r</text><text xml:space="preserve" font-family="Helvetica-Light,Helvetica" font-size="80.0" fill="#FEFFFF" transform="matrix(1.00, 0.00, -0.00, -1.00, 509.8, 630.1)">i</text><text xml:space="preserve" font-family="Helvetica-Light,Helvetica" font-size="80.0" fill="#FEFFFF" transform="matrix(1.00, 0.00, -0.00, -1.00, 527.5, 630.1)">t</text><text xml:space="preserve" font-family="Helvetica-Light,Helvetica" font-size="80.0" fill="#FEFFFF" transform="matrix(1.00, 0.00, -0.00, -1.00, 549.8, 630.1)">m</text><text xml:space="preserve" font-family="Helvetica-Light,Helvetica" font-size="80.0" fill="#FEFFFF" transform="matrix(1.00, 0.00, -0.00, -1.00, 616.4, 630.1)">e</text><text xml:space="preserve" font-family="Helvetica-Light,Helvetica" font-size="80.0" fill="#FEFFFF" transform="matrix(1.00, 0.00, -0.00, -1.00, 660.9, 630.1)">n</text></g></svg>