<?xml version="1.0" encoding="UTF-8" standalone="no"?><svg xmlns="http://www.w3.org/2000/svg" xmlns:xlink="http://www.w3.org/1999/xlink" clip-rule="evenodd" stroke-miterlimit="10" viewBox="0 0 1024 768"><desc>SVG generated by Keynote</desc><defs></defs><g transform="matrix(1.00, 0.00, -0.00, -1.00, 0.0, 768.0)"><path d="M 0.0 768.0 L 1024.0 768.0 L 1024.0 0.0 L 0.0 0.0 Z M 0.0 768.0 " fill="#000000"></path><text xml:space="preserve" font-family="Helvetica-Light,Helvetica" font-size="80.0" fill="#FEFFFF" transform="matrix(1.00, 0.00, -0.00, -1.00, 225.2, 372.4)">R</text><text xml:space="preserve" font-family="Helvetica-Light,Helvetica" font-size="80.0" fill="#FEFFFF" transform="matrix(1.00, 0.00, -0.00, -1.00, 278.6, 372.4)">N</text><text xml:space="preserve" font-family="Helvetica-Light,Helvetica" font-size="80.0" fill="#FEFFFF" transform="matrix(1.00, 0.00, -0.00, -1.00, 336.4, 372.4)">A</text><text xml:space="preserve" font-family="Helvetica-Light,Helvetica" font-size="80.0" fill="#FEFFFF" transform="matrix(1.00, 0.00, -0.00, -1.00, 389.7, 372.4)"> </text><text xml:space="preserve" font-family="Helvetica-Light,Helvetica" font-size="80.0" fill="#FEFFFF" transform="matrix(1.00, 0.00, -0.00, -1.00, 412.0, 372.4)">S</text><text xml:space="preserve" font-family="Helvetica-Light,Helvetica" font-size="80.0" fill="#FEFFFF" transform="matrix(1.00, 0.00, -0.00, -1.00, 460.8, 372.4)">t</text><text xml:space="preserve" font-family="Helvetica-Light,Helvetica" font-size="80.0" fill="#FEFFFF" transform="matrix(1.00, 0.00, -0.00, -1.00, 483.1, 372.4)">e</text><text xml:space="preserve" font-family="Helvetica-Light,Helvetica" font-size="80.0" fill="#FEFFFF" transform="matrix(1.00, 0.00, -0.00, -1.00, 527.6, 372.4)">m</text><text xml:space="preserve" font-family="Helvetica-Light,Helvetica" font-size="80.0" fill="#FEFFFF" transform="matrix(1.00, 0.00, -0.00, -1.00, 594.2, 372.4)"> </text><text xml:space="preserve" font-family="Helvetica-Light,Helvetica" font-size="80.0" fill="#FEFFFF" transform="matrix(1.00, 0.00, -0.00, -1.00, 616.4, 372.4)">L</text><text xml:space="preserve" font-family="Helvetica-Light,Helvetica" font-size="80.0" fill="#FEFFFF" transform="matrix(1.00, 0.00, -0.00, -1.00, 660.9, 372.4)">o</text><text xml:space="preserve" font-family="Helvetica-Light,Helvetica" font-size="80.0" fill="#FEFFFF" transform="matrix(1.00, 0.00, -0.00, -1.00, 705.4, 372.4)">o</text><text xml:space="preserve" font-family="Helvetica-Light,Helvetica" font-size="80.0" fill="#FEFFFF" transform="matrix(1.00, 0.00, -0.00, -1.00, 749.9, 372.4)">p</text><text xml:space="preserve" font-family="Helvetica-Light,Helvetica" font-size="80.0" fill="#FEFFFF" transform="matrix(1.00, 0.00, -0.00, -1.00, 798.8, 372.4)"> </text><text xml:space="preserve" font-family="Helvetica-Light,Helvetica" font-size="80.0" fill="#FEFFFF" transform="matrix(1.00, 0.00, -0.00, -1.00, 356.4, 276.4)">A</text><text xml:space="preserve" font-family="Helvetica-Light,Helvetica" font-size="80.0" fill="#FEFFFF" transform="matrix(1.00, 0.00, -0.00, -1.00, 409.8, 276.4)">n</text><text xml:space="preserve" font-family="Helvetica-Light,Helvetica" font-size="80.0" fill="#FEFFFF" transform="matrix(1.00, 0.00, -0.00, -1.00, 454.2, 276.4)">a</text><text xml:space="preserve" font-family="Helvetica-Light,Helvetica" font-size="80.0" fill="#FEFFFF" transform="matrix(1.00, 0.00, -0.00, -1.00, 498.7, 276.4)">l</text><text xml:space="preserve" font-family="Helvetica-Light,Helvetica" font-size="80.0" fill="#FEFFFF" transform="matrix(1.00, 0.00, -0.00, -1.00, 516.5, 276.4)">y</text><text xml:space="preserve" font-family="Helvetica-Light,Helvetica" font-size="80.0" fill="#FEFFFF" transform="matrix(1.00, 0.00, -0.00, -1.00, 556.5, 276.4)">z</text><text xml:space="preserve" font-family="Helvetica-Light,Helvetica" font-size="80.0" fill="#FEFFFF" transform="matrix(1.00, 0.00, -0.00, -1.00, 596.5, 276.4)">e</text><text xml:space="preserve" font-family="Helvetica-Light,Helvetica" font-size="80.0" fill="#FEFFFF" transform="matrix(1.00, 0.00, -0.00, -1.00, 641.0, 276.4)">r</text><text xml:space="preserve" font-family="Helvetica-Light,Helvetica" font-size="17.3" fill="#FEFFFF" transform="matrix(1.00, 0.00, -0.00, -1.00, 454.9, 176.4)">P</text><text xml:space="preserve" font-family="Helvetica-Light,Helvetica" font-size="17.3" fill="#FEFFFF" transform="matrix(1.00, 0.00, -0.00, -1.00, 465.4, 176.4)">i</text><text xml:space="preserve" font-family="Helvetica-Light,Helvetica" font-size="17.3" fill="#FEFFFF" transform="matrix(1.00, 0.00, -0.00, -1.00, 469.3, 176.4)">e</text><text xml:space="preserve" font-family="Helvetica-Light,Helvetica" font-size="17.3" fill="#FEFFFF" transform="matrix(1.00, 0.00, -0.00, -1.00, 478.9, 176.4)">t</text><text xml:space="preserve" font-family="Helvetica-Light,Helvetica" font-size="17.3" fill="#FEFFFF" transform="matrix(1.00, 0.00, -0.00, -1.00, 483.7, 176.4)">e</text><text xml:space="preserve" font-family="Helvetica-Light,Helvetica" font-size="17.3" fill="#FEFFFF" transform="matrix(1.00, 0.00, -0.00, -1.00, 493.3, 176.4)">r</text><text xml:space="preserve" font-family="Helvetica-Light,Helvetica" font-size="17.3" fill="#FEFFFF" transform="matrix(1.00, 0.00, -0.00, -1.00, 499.0, 176.4)"> </text><text xml:space="preserve" font-family="Helvetica-Light,Helvetica" font-size="17.3" fill="#FEFFFF" transform="matrix(1.00, 0.00, -0.00, -1.00, 503.8, 176.4)">L</text><text xml:space="preserve" font-family="Helvetica-Light,Helvetica" font-size="17.3" fill="#FEFFFF" transform="matrix(1.00, 0.00, -0.00, -1.00, 513.4, 176.4)">a</text><text xml:space="preserve" font-family="Helvetica-Light,Helvetica" font-size="17.3" fill="#FEFFFF" transform="matrix(1.00, 0.00, -0.00, -1.00, 523.1, 176.4)">u</text><text xml:space="preserve" font-family="Helvetica-Light,Helvetica" font-size="17.3" fill="#FEFFFF" transform="matrix(1.00, 0.00, -0.00, -1.00, 532.7, 176.4)">w</text><text xml:space="preserve" font-family="Helvetica-Light,Helvetica" font-size="17.3" fill="#FEFFFF" transform="matrix(1.00, 0.00, -0.00, -1.00, 545.1, 176.4)">e</text><text xml:space="preserve" font-family="Helvetica-Light,Helvetica" font-size="17.3" fill="#FEFFFF" transform="matrix(1.00, 0.00, -0.00, -1.00, 554.7, 176.4)">r</text><text xml:space="preserve" font-family="Helvetica-Light,Helvetica" font-size="17.3" fill="#FEFFFF" transform="matrix(1.00, 0.00, -0.00, -1.00, 560.5, 176.4)">s</text><text xml:space="preserve" font-family="Helvetica-Light,Helvetica" font-size="17.3" fill="#FEFFFF" transform="matrix(1.00, 0.00, -0.00, -1.00, 569.1, 176.4)"> </text><text xml:space="preserve" font-family="Helvetica-Light,Helvetica" font-size="17.3" fill="#FEFFFF" transform="matrix(1.00, 0.00, -0.00, -1.00, 461.6, 156.4)">J</text><text xml:space="preserve" font-family="Helvetica-Light,Helvetica" font-size="17.3" fill="#FEFFFF" transform="matrix(1.00, 0.00, -0.00, -1.00, 470.2, 156.4)">a</text><text xml:space="preserve" font-family="Helvetica-Light,Helvetica" font-size="17.3" fill="#FEFFFF" transform="matrix(1.00, 0.00, -0.00, -1.00, 479.8, 156.4)">k</text><text xml:space="preserve" font-family="Helvetica-Light,Helvetica" font-size="17.3" fill="#FEFFFF" transform="matrix(1.00, 0.00, -0.00, -1.00, 488.5, 156.4)">o</text><text xml:space="preserve" font-family="Helvetica-Light,Helvetica" font-size="17.3" fill="#FEFFFF" transform="matrix(1.00, 0.00, -0.00, -1.00, 498.1, 156.4)">b</text><text xml:space="preserve" font-family="Helvetica-Light,Helvetica" font-size="17.3" fill="#FEFFFF" transform="matrix(1.00, 0.00, -0.00, -1.00, 508.6, 156.4)"> </text><text xml:space="preserve" font-family="Helvetica-Light,Helvetica" font-size="17.3" fill="#FEFFFF" transform="matrix(1.00, 0.00, -0.00, -1.00, 513.4, 156.4)">S</text><text xml:space="preserve" font-family="Helvetica-Light,Helvetica" font-size="17.3" fill="#FEFFFF" transform="matrix(1.00, 0.00, -0.00, -1.00, 524.0, 156.4)">t</text><text xml:space="preserve" font-family="Helvetica-Light,Helvetica" font-size="17.3" fill="#FEFFFF" transform="matrix(1.00, 0.00, -0.00, -1.00, 528.8, 156.4)">r</text><text xml:space="preserve" font-family="Helvetica-Light,Helvetica" font-size="17.3" fill="#FEFFFF" transform="matrix(1.00, 0.00, -0.00, -1.00, 534.6, 156.4)">u</text><text xml:space="preserve" font-family="Helvetica-Light,Helvetica" font-size="17.3" fill="#FEFFFF" transform="matrix(1.00, 0.00, -0.00, -1.00, 544.2, 156.4)">y</text><text xml:space="preserve" font-family="Helvetica-Light,Helvetica" font-size="17.3" fill="#FEFFFF" transform="matrix(1.00, 0.00, -0.00, -1.00, 552.8, 156.4)">e</text><text xml:space="preserve" font-family="Helvetica-Light,Helvetica" font-size="17.3" fill="#FEFFFF" transform="matrix(1.00, 0.00, -0.00, -1.00, 562.4, 156.4)"> </text><text xml:space="preserve" font-family="Helvetica-Light,Helvetica" font-size="17.3" fill="#FEFFFF" transform="matrix(1.00, 0.00, -0.00, -1.00, 438.5, 136.4)">R</text><text xml:space="preserve" font-family="Helvetica-Light,Helvetica" font-size="17.3" fill="#FEFFFF" transform="matrix(1.00, 0.00, -0.00, -1.00, 450.0, 136.4)">u</text><text xml:space="preserve" font-family="Helvetica-Light,Helvetica" font-size="17.3" fill="#FEFFFF" transform="matrix(1.00, 0.00, -0.00, -1.00, 459.7, 136.4)">b</text><text xml:space="preserve" font-family="Helvetica-Light,Helvetica" font-size="17.3" fill="#FEFFFF" transform="matrix(1.00, 0.00, -0.00, -1.00, 470.2, 136.4)">e</text><text xml:space="preserve" font-family="Helvetica-Light,Helvetica" font-size="17.3" fill="#FEFFFF" transform="matrix(1.00, 0.00, -0.00, -1.00, 479.8, 136.4)">n</text><text xml:space="preserve" font-family="Helvetica-Light,Helvetica" font-size="17.3" fill="#FEFFFF" transform="matrix(1.00, 0.00, -0.00, -1.00, 489.4, 136.4)"> </text><text xml:space="preserve" font-family="Helvetica-Light,Helvetica" font-size="17.3" fill="#FEFFFF" transform="matrix(1.00, 0.00, -0.00, -1.00, 494.2, 136.4)">V</text><text xml:space="preserve" font-family="Helvetica-Light,Helvetica" font-size="17.3" fill="#FEFFFF" transform="matrix(1.00, 0.00, -0.00, -1.00, 503.8, 136.4)">a</text><text xml:space="preserve" font-family="Helvetica-Light,Helvetica" font-size="17.3" fill="#FEFFFF" transform="matrix(1.00, 0.00, -0.00, -1.00, 513.4, 136.4)">n</text><text xml:space="preserve" font-family="Helvetica-Light,Helvetica" font-size="17.3" fill="#FEFFFF" transform="matrix(1.00, 0.00, -0.00, -1.00, 523.1, 136.4)"> </text><text xml:space="preserve" font-family="Helvetica-Light,Helvetica" font-size="17.3" fill="#FEFFFF" transform="matrix(1.00, 0.00, -0.00, -1.00, 527.9, 136.4)">A</text><text xml:space="preserve" font-family="Helvetica-Light,Helvetica" font-size="17.3" fill="#FEFFFF" transform="matrix(1.00, 0.00, -0.00, -1.00, 539.4, 136.4)">s</text><text xml:space="preserve" font-family="Helvetica-Light,Helvetica" font-size="17.3" fill="#FEFFFF" transform="matrix(1.00, 0.00, -0.00, -1.00, 548.0, 136.4)">s</text><text xml:space="preserve" font-family="Helvetica-Light,Helvetica" font-size="17.3" fill="#FEFFFF" transform="matrix(1.00, 0.00, -0.00, -1.00, 556.7, 136.4)">c</text><text xml:space="preserve" font-family="Helvetica-Light,Helvetica" font-size="17.3" fill="#FEFFFF" transform="matrix(1.00, 0.00, -0.00, -1.00, 566.3, 136.4)">h</text><text xml:space="preserve" font-family="Helvetica-Light,Helvetica" font-size="17.3" fill="#FEFFFF" transform="matrix(1.00, 0.00, -0.00, -1.00, 575.9, 136.4)">e</text><text xml:space="preserve" font-family="Helvetica-Light,Helvetica" font-size="17.3" fill="#FEFFFF" transform="matrix(1.00, 0.00, -0.00, -1.00, 585.5, 136.4)"> </text><text xml:space="preserve" font-family="Helvetica-Light,Helvetica" font-size="17.3" fill="#FEFFFF" transform="matrix(1.00, 0.00, -0.00, -1.00, 461.7, 116.4)">S</text><text xml:space="preserve" font-family="Helvetica-Light,Helvetica" font-size="17.3" fill="#FEFFFF" transform="matrix(1.00, 0.00, -0.00, -1.00, 472.3, 116.4)">t</text><text xml:space="preserve" font-family="Helvetica-Light,Helvetica" font-size="17.3" fill="#FEFFFF" transform="matrix(1.00, 0.00, -0.00, -1.00, 477.1, 116.4)">i</text><text xml:space="preserve" font-family="Helvetica-Light,Helvetica" font-size="17.3" fill="#FEFFFF" transform="matrix(1.00, 0.00, -0.00, -1.00, 480.9, 116.4)">j</text><text xml:space="preserve" font-family="Helvetica-Light,Helvetica" font-size="17.3" fill="#FEFFFF" transform="matrix(1.00, 0.00, -0.00, -1.00, 484.8, 116.4)">n</text><text xml:space="preserve" font-family="Helvetica-Light,Helvetica" font-size="17.3" fill="#FEFFFF" transform="matrix(1.00, 0.00, -0.00, -1.00, 494.4, 116.4)"> </text><text xml:space="preserve" font-family="Helvetica-Light,Helvetica" font-size="17.3" fill="#FEFFFF" transform="matrix(1.00, 0.00, -0.00, -1.00, 499.2, 116.4)">W</text><text xml:space="preserve" font-family="Helvetica-Light,Helvetica" font-size="17.3" fill="#FEFFFF" transform="matrix(1.00, 0.00, -0.00, -1.00, 514.2, 116.4)">o</text><text xml:space="preserve" font-family="Helvetica-Light,Helvetica" font-size="17.3" fill="#FEFFFF" transform="matrix(1.00, 0.00, -0.00, -1.00, 523.8, 116.4)">u</text><text xml:space="preserve" font-family="Helvetica-Light,Helvetica" font-size="17.3" fill="#FEFFFF" transform="matrix(1.00, 0.00, -0.00, -1.00, 533.5, 116.4)">t</text><text xml:space="preserve" font-family="Helvetica-Light,Helvetica" font-size="17.3" fill="#FEFFFF" transform="matrix(1.00, 0.00, -0.00, -1.00, 538.3, 116.4)">e</text><text xml:space="preserve" font-family="Helvetica-Light,Helvetica" font-size="17.3" fill="#FEFFFF" transform="matrix(1.00, 0.00, -0.00, -1.00, 547.9, 116.4)">r</text><text xml:space="preserve" font-family="Helvetica-Light,Helvetica" font-size="17.3" fill="#FEFFFF" transform="matrix(1.00, 0.00, -0.00, -1.00, 553.6, 116.4)">s</text><image xlink:href="BAED360E38EB29B7F59A4C9C63960C6C.png" width="771.00" height="221.00" transform="matrix(0.42, 0.00, -0.00, -0.42, 351.9, 637.2)"></image></g></svg>