<?xml version="1.0" encoding="UTF-8" standalone="no"?><svg xmlns="http://www.w3.org/2000/svg" xmlns:xlink="http://www.w3.org/1999/xlink" clip-rule="evenodd" stroke-miterlimit="10" viewBox="0 0 1024 768"><desc>SVG generated by Keynote</desc><defs></defs><g transform="matrix(1.00, 0.00, -0.00, -1.00, 0.0, 768.0)"><path d="M 0.0 768.0 L 1024.0 768.0 L 1024.0 0.0 L 0.0 0.0 Z M 0.0 768.0 " fill="#000000"></path><text xml:space="preserve" font-family="Helvetica-Light,Helvetica" font-size="80.0" fill="#FEFFFF" transform="matrix(1.00, 0.00, -0.00, -1.00, 318.6, 630.1)">A</text><text xml:space="preserve" font-family="Helvetica-Light,Helvetica" font-size="80.0" fill="#FEFFFF" transform="matrix(1.00, 0.00, -0.00, -1.00, 372.0, 630.1)">l</text><text xml:space="preserve" font-family="Helvetica-Light,Helvetica" font-size="80.0" fill="#FEFFFF" transform="matrix(1.00, 0.00, -0.00, -1.00, 389.8, 630.1)">g</text><text xml:space="preserve" font-family="Helvetica-Light,Helvetica" font-size="80.0" fill="#FEFFFF" transform="matrix(1.00, 0.00, -0.00, -1.00, 438.6, 630.1)">o</text><text xml:space="preserve" font-family="Helvetica-Light,Helvetica" font-size="80.0" fill="#FEFFFF" transform="matrix(1.00, 0.00, -0.00, -1.00, 483.1, 630.1)">r</text><text xml:space="preserve" font-family="Helvetica-Light,Helvetica" font-size="80.0" fill="#FEFFFF" transform="matrix(1.00, 0.00, -0.00, -1.00, 509.8, 630.1)">i</text><text xml:space="preserve" font-family="Helvetica-Light,Helvetica" font-size="80.0" fill="#FEFFFF" transform="matrix(1.00, 0.00, -0.00, -1.00, 527.5, 630.1)">t</text><text xml:space="preserve" font-family="Helvetica-Light,Helvetica" font-size="80.0" fill="#FEFFFF" transform="matrix(1.00, 0.00, -0.00, -1.00, 549.8, 630.1)">m</text><text xml:space="preserve" font-family="Helvetica-Light,Helvetica" font-size="80.0" fill="#FEFFFF" transform="matrix(1.00, 0.00, -0.00, -1.00, 616.4, 630.1)">e</text><text xml:space="preserve" font-family="Helvetica-Light,Helvetica" font-size="80.0" fill="#FEFFFF" transform="matrix(1.00, 0.00, -0.00, -1.00, 660.9, 630.1)">n</text><g><g><clipPath id="clip0x6000046b92c0"><path d="M 311.5 579.5 L 712.5 579.5 L 712.5 512.8 L 311.5 512.8 Z M 311.5 579.5 "></path></clipPath><g clip-path="url(#clip0x6000046b92c0)"><g><clipPath id="clip0x6000046b85a0"><path d="M 0.0 0.0 L 1024.0 0.0 L 1024.0 768.0 L 0.0 768.0 Z M 0.0 0.0 "></path></clipPath><g clip-path="url(#clip0x6000046b85a0)"><g><g><clipPath id="clip0x6000044a9180"><path d="M 311.0 512.0 L 713.0 512.0 L 713.0 580.0 L 311.0 580.0 Z M 311.0 512.0 "></path></clipPath><g clip-path="url(#clip0x6000044a9180)"><path d="M 312.0 579.0 L 712.0 579.0 L 712.0 513.2 L 312.0 513.2 Z M 312.0 579.0 " fill="#7ADA45"></path><path d="M 312.0 513.2 L 712.0 513.2 L 712.0 447.5 L 312.0 447.5 Z M 312.0 513.2 " fill="#7ADA45"></path></g></g></g></g></g></g></g><g><clipPath id="clip0x6000008b9f20"><path d="M 311.5 579.5 L 712.5 579.5 L 712.5 512.8 L 311.5 512.8 Z M 311.5 579.5 "></path></clipPath><g clip-path="url(#clip0x6000008b9f20)"><g><clipPath id="clip0x6000048af2a0"><path d="M 312.5 513.8 L 711.5 513.8 L 711.5 578.5 L 312.5 578.5 Z M 312.5 513.8 "></path></clipPath><g clip-path="url(#clip0x6000048af2a0)"><text xml:space="preserve" font-family="Helvetica-Light,Helvetica" font-size="28.0" fill="#FEFFFE" transform="matrix(1.00, 0.00, -0.00, -1.00, 483.2, 534.9)">C</text><text xml:space="preserve" font-family="Helvetica-Light,Helvetica" font-size="28.0" fill="#FEFFFE" transform="matrix(1.00, 0.00, -0.00, -1.00, 503.4, 534.9)">F</text><text xml:space="preserve" font-family="Helvetica-Light,Helvetica" font-size="28.0" fill="#FEFFFE" transform="matrix(1.00, 0.00, -0.00, -1.00, 519.0, 534.9)">G</text></g></g></g></g><g><clipPath id="clip0x6000048a6720"><path d="M 311.5 579.5 L 712.5 579.5 L 712.5 512.8 L 311.5 512.8 Z M 311.5 579.5 "></path></clipPath><g clip-path="url(#clip0x6000048a6720)"><g><clipPath id="clip0x6000048b3680"><path d="M 0.0 0.0 L 1024.0 0.0 L 1024.0 768.0 L 0.0 768.0 Z M 0.0 0.0 "></path></clipPath><g clip-path="url(#clip0x6000048b3680)"><path d="M 1.5 67.8 L 402.5 67.8 " fill="none" stroke="#FEFFFE" stroke-width="1.00" transform="matrix(1.00, 0.00, 0.00, -1.00, 310.0, 581.0)"></path><path d="M 2.0 1.5 L 2.0 133.5 " fill="none" stroke="#FEFFFE" stroke-width="1.00" transform="matrix(1.00, 0.00, 0.00, -1.00, 310.0, 581.0)"></path><path d="M 402.0 1.5 L 402.0 133.5 " fill="none" stroke="#FEFFFE" stroke-width="1.00" transform="matrix(1.00, 0.00, 0.00, -1.00, 310.0, 581.0)"></path><path d="M 1.5 2.0 L 402.5 2.0 " fill="none" stroke="#FEFFFE" stroke-width="1.00" transform="matrix(1.00, 0.00, 0.00, -1.00, 310.0, 581.0)"></path></g></g></g></g><g><clipPath id="clip0x6000044b6980"><path d="M 311.5 513.8 L 712.5 513.8 L 712.5 447.0 L 311.5 447.0 Z M 311.5 513.8 "></path></clipPath><g clip-path="url(#clip0x6000044b6980)"><g><clipPath id="clip0x6000046bce00"><path d="M 0.0 0.0 L 1024.0 0.0 L 1024.0 768.0 L 0.0 768.0 Z M 0.0 0.0 "></path></clipPath><g clip-path="url(#clip0x6000046bce00)"><g><g><clipPath id="clip0x6000048a5ee0"><path d="M 311.0 447.0 L 713.0 447.0 L 713.0 514.0 L 311.0 514.0 Z M 311.0 447.0 "></path></clipPath><g clip-path="url(#clip0x6000048a5ee0)"><path d="M 312.0 579.0 L 712.0 579.0 L 712.0 513.2 L 312.0 513.2 Z M 312.0 579.0 " fill="#7ADA45"></path><path d="M 312.0 513.2 L 712.0 513.2 L 712.0 447.5 L 312.0 447.5 Z M 312.0 513.2 " fill="#7ADA45"></path><path d="M 312.0 447.5 L 712.0 447.5 L 712.0 381.8 L 312.0 381.8 Z M 312.0 447.5 " fill="#7ADA45"></path></g></g></g></g></g></g></g><g><clipPath id="clip0x6000042bb660"><path d="M 311.5 513.8 L 712.5 513.8 L 712.5 447.0 L 311.5 447.0 Z M 311.5 513.8 "></path></clipPath><g clip-path="url(#clip0x6000042bb660)"><g><clipPath id="clip0x6000046b6500"><path d="M 312.5 448.0 L 711.5 448.0 L 711.5 512.8 L 312.5 512.8 Z M 312.5 448.0 "></path></clipPath><g clip-path="url(#clip0x6000046b6500)"><text xml:space="preserve" font-family="Helvetica-Light,Helvetica" font-size="28.0" fill="#FEFFFE" transform="matrix(1.00, 0.00, -0.00, -1.00, 484.0, 469.2)">C</text><text xml:space="preserve" font-family="Helvetica-Light,Helvetica" font-size="28.0" fill="#FEFFFE" transform="matrix(1.00, 0.00, -0.00, -1.00, 504.2, 469.2)">N</text><text xml:space="preserve" font-family="Helvetica-Light,Helvetica" font-size="28.0" fill="#FEFFFE" transform="matrix(1.00, 0.00, -0.00, -1.00, 524.4, 469.2)">F</text></g></g></g></g><g><clipPath id="clip0x6000046aa320"><path d="M 311.5 513.8 L 712.5 513.8 L 712.5 447.0 L 311.5 447.0 Z M 311.5 513.8 "></path></clipPath><g clip-path="url(#clip0x6000046aa320)"><g><clipPath id="clip0x6000042a19e0"><path d="M 0.0 0.0 L 1024.0 0.0 L 1024.0 768.0 L 0.0 768.0 Z M 0.0 0.0 "></path></clipPath><g clip-path="url(#clip0x6000042a19e0)"><path d="M 1.5 67.8 L 402.5 67.8 " fill="none" stroke="#FEFFFE" stroke-width="1.00" transform="matrix(1.00, 0.00, 0.00, -1.00, 310.0, 581.0)"></path><path d="M 1.5 133.5 L 402.5 133.5 " fill="none" stroke="#FEFFFE" stroke-width="1.00" transform="matrix(1.00, 0.00, 0.00, -1.00, 310.0, 581.0)"></path><path d="M 2.0 2.0 L 2.0 199.2 " fill="none" stroke="#FEFFFE" stroke-width="1.00" transform="matrix(1.00, 0.00, 0.00, -1.00, 310.0, 581.0)"></path><path d="M 402.0 2.0 L 402.0 199.2 " fill="none" stroke="#FEFFFE" stroke-width="1.00" transform="matrix(1.00, 0.00, 0.00, -1.00, 310.0, 581.0)"></path></g></g></g></g><g><clipPath id="clip0x600002ebd7c0"><path d="M 311.5 448.0 L 712.5 448.0 L 712.5 381.2 L 311.5 381.2 Z M 311.5 448.0 "></path></clipPath><g clip-path="url(#clip0x600002ebd7c0)"><g><clipPath id="clip0x6000048a6c60"><path d="M 0.0 0.0 L 1024.0 0.0 L 1024.0 768.0 L 0.0 768.0 Z M 0.0 0.0 "></path></clipPath><g clip-path="url(#clip0x6000048a6c60)"><g><g><clipPath id="clip0x6000046be300"><path d="M 311.0 381.0 L 713.0 381.0 L 713.0 448.0 L 311.0 448.0 Z M 311.0 381.0 "></path></clipPath><g clip-path="url(#clip0x6000046be300)"><path d="M 312.0 513.2 L 712.0 513.2 L 712.0 447.5 L 312.0 447.5 Z M 312.0 513.2 " fill="#7ADA45"></path><path d="M 312.0 447.5 L 712.0 447.5 L 712.0 381.8 L 312.0 381.8 Z M 312.0 447.5 " fill="#7ADA45"></path><path d="M 312.0 381.8 L 712.0 381.8 L 712.0 316.0 L 312.0 316.0 Z M 312.0 381.8 " fill="#7ADA45"></path></g></g></g></g></g></g></g><g><clipPath id="clip0x6000042b4dc0"><path d="M 311.5 448.0 L 712.5 448.0 L 712.5 381.2 L 311.5 381.2 Z M 311.5 448.0 "></path></clipPath><g clip-path="url(#clip0x6000042b4dc0)"><g><clipPath id="clip0x6000046b89c0"><path d="M 312.5 382.2 L 711.5 382.2 L 711.5 447.0 L 312.5 447.0 Z M 312.5 382.2 "></path></clipPath><g clip-path="url(#clip0x6000046b89c0)"><text xml:space="preserve" font-family="Helvetica-Light,Helvetica" font-size="28.0" fill="#FEFFFE" transform="matrix(1.00, 0.00, -0.00, -1.00, 451.3, 403.4)">C</text><text xml:space="preserve" font-family="Helvetica-Light,Helvetica" font-size="28.0" fill="#FEFFFE" transform="matrix(1.00, 0.00, -0.00, -1.00, 471.5, 403.4)">Y</text><text xml:space="preserve" font-family="Helvetica-Light,Helvetica" font-size="28.0" fill="#FEFFFE" transform="matrix(1.00, 0.00, -0.00, -1.00, 488.6, 403.4)">K</text><text xml:space="preserve" font-family="Helvetica-Light,Helvetica" font-size="28.0" fill="#FEFFFE" transform="matrix(1.00, 0.00, -0.00, -1.00, 507.3, 403.4)"> </text><text xml:space="preserve" font-family="Helvetica-Light,Helvetica" font-size="28.0" fill="#FEFFFE" transform="matrix(1.00, 0.00, -0.00, -1.00, 515.1, 403.4)">A</text><text xml:space="preserve" font-family="Helvetica-Light,Helvetica" font-size="28.0" fill="#FEFFFE" transform="matrix(1.00, 0.00, -0.00, -1.00, 533.8, 403.4)">l</text><text xml:space="preserve" font-family="Helvetica-Light,Helvetica" font-size="28.0" fill="#FEFFFE" transform="matrix(1.00, 0.00, -0.00, -1.00, 540.0, 403.4)">g</text><text xml:space="preserve" font-family="Helvetica-Light,Helvetica" font-size="28.0" fill="#FEFFFE" transform="matrix(1.00, 0.00, -0.00, -1.00, 557.1, 403.4)">o</text></g></g></g></g><g><clipPath id="clip0x6000046bc140"><path d="M 311.5 448.0 L 712.5 448.0 L 712.5 381.2 L 311.5 381.2 Z M 311.5 448.0 "></path></clipPath><g clip-path="url(#clip0x6000046bc140)"><g><clipPath id="clip0x6000048aea60"><path d="M 0.0 0.0 L 1024.0 0.0 L 1024.0 768.0 L 0.0 768.0 Z M 0.0 0.0 "></path></clipPath><g clip-path="url(#clip0x6000048aea60)"><path d="M 1.5 133.5 L 402.5 133.5 " fill="none" stroke="#FEFFFE" stroke-width="1.00" transform="matrix(1.00, 0.00, 0.00, -1.00, 310.0, 581.0)"></path><path d="M 1.5 199.2 L 402.5 199.2 " fill="none" stroke="#FEFFFE" stroke-width="1.00" transform="matrix(1.00, 0.00, 0.00, -1.00, 310.0, 581.0)"></path><path d="M 2.0 67.8 L 2.0 265.0 " fill="none" stroke="#FEFFFE" stroke-width="1.00" transform="matrix(1.00, 0.00, 0.00, -1.00, 310.0, 581.0)"></path><path d="M 402.0 67.8 L 402.0 265.0 " fill="none" stroke="#FEFFFE" stroke-width="1.00" transform="matrix(1.00, 0.00, 0.00, -1.00, 310.0, 581.0)"></path></g></g></g></g><g><clipPath id="clip0x6000044be000"><path d="M 311.5 382.2 L 712.5 382.2 L 712.5 315.5 L 311.5 315.5 Z M 311.5 382.2 "></path></clipPath><g clip-path="url(#clip0x6000044be000)"><g><clipPath id="clip0x600000abb720"><path d="M 0.0 0.0 L 1024.0 0.0 L 1024.0 768.0 L 0.0 768.0 Z M 0.0 0.0 "></path></clipPath><g clip-path="url(#clip0x600000abb720)"><g><g><clipPath id="clip0x6000046a7020"><path d="M 311.0 315.0 L 713.0 315.0 L 713.0 383.0 L 311.0 383.0 Z M 311.0 315.0 "></path></clipPath><g clip-path="url(#clip0x6000046a7020)"><path d="M 312.0 447.5 L 712.0 447.5 L 712.0 381.8 L 312.0 381.8 Z M 312.0 447.5 " fill="#7ADA45"></path><path d="M 312.0 381.8 L 712.0 381.8 L 712.0 316.0 L 312.0 316.0 Z M 312.0 381.8 " fill="#7ADA45"></path><path d="M 312.0 316.0 L 712.0 316.0 L 712.0 250.2 L 312.0 250.2 Z M 312.0 316.0 " fill="#1497FC"></path></g></g></g></g></g></g></g><g><clipPath id="clip0x6000048aefa0"><path d="M 311.5 382.2 L 712.5 382.2 L 712.5 315.5 L 311.5 315.5 Z M 311.5 382.2 "></path></clipPath><g clip-path="url(#clip0x6000048aefa0)"><g><clipPath id="clip0x6000048b1340"><path d="M 312.5 316.5 L 711.5 316.5 L 711.5 381.2 L 312.5 381.2 Z M 312.5 316.5 "></path></clipPath><g clip-path="url(#clip0x6000048b1340)"><text xml:space="preserve" font-family="Helvetica-Light,Helvetica" font-size="28.0" fill="#FEFFFE" transform="matrix(1.00, 0.00, -0.00, -1.00, 434.4, 337.7)">C</text><text xml:space="preserve" font-family="Helvetica-Light,Helvetica" font-size="28.0" fill="#FEFFFE" transform="matrix(1.00, 0.00, -0.00, -1.00, 454.7, 337.7)">F</text><text xml:space="preserve" font-family="Helvetica-Light,Helvetica" font-size="28.0" fill="#FEFFFE" transform="matrix(1.00, 0.00, -0.00, -1.00, 470.2, 337.7)">G</text><text xml:space="preserve" font-family="Helvetica-Light,Helvetica" font-size="28.0" fill="#FEFFFE" transform="matrix(1.00, 0.00, -0.00, -1.00, 492.0, 337.7)"> </text><text xml:space="preserve" font-family="ZapfDingbatsITC,Zapf Dingbats" font-size="28.0" fill="#FEFFFE" transform="matrix(1.00, 0.00, -0.00, -1.00, 499.8, 337.7)">➞</text><text xml:space="preserve" font-family="Helvetica-Light,Helvetica" font-size="28.0" fill="#FEFFFE" transform="matrix(1.00, 0.00, -0.00, -1.00, 525.8, 337.7)"> </text><text xml:space="preserve" font-family="Helvetica-Light,Helvetica" font-size="28.0" fill="#FEFFFE" transform="matrix(1.00, 0.00, -0.00, -1.00, 533.6, 337.7)">C</text><text xml:space="preserve" font-family="Helvetica-Light,Helvetica" font-size="28.0" fill="#FEFFFE" transform="matrix(1.00, 0.00, -0.00, -1.00, 553.8, 337.7)">N</text><text xml:space="preserve" font-family="Helvetica-Light,Helvetica" font-size="28.0" fill="#FEFFFE" transform="matrix(1.00, 0.00, -0.00, -1.00, 574.0, 337.7)">F</text></g></g></g></g><g><clipPath id="clip0x6000044aedc0"><path d="M 311.5 382.2 L 712.5 382.2 L 712.5 315.5 L 311.5 315.5 Z M 311.5 382.2 "></path></clipPath><g clip-path="url(#clip0x6000044aedc0)"><g><clipPath id="clip0x600000ab5cc0"><path d="M 0.0 0.0 L 1024.0 0.0 L 1024.0 768.0 L 0.0 768.0 Z M 0.0 0.0 "></path></clipPath><g clip-path="url(#clip0x600000ab5cc0)"><path d="M 1.5 199.2 L 402.5 199.2 " fill="none" stroke="#FEFFFE" stroke-width="1.00" transform="matrix(1.00, 0.00, 0.00, -1.00, 310.0, 581.0)"></path><path d="M 1.5 265.0 L 402.5 265.0 " fill="none" stroke="#FEFFFE" stroke-width="1.00" transform="matrix(1.00, 0.00, 0.00, -1.00, 310.0, 581.0)"></path><path d="M 2.0 133.5 L 2.0 265.0 " fill="none" stroke="#FEFFFE" stroke-width="1.00" transform="matrix(1.00, 0.00, 0.00, -1.00, 310.0, 581.0)"></path><path d="M 2.0 265.0 L 2.0 330.8 " fill="none" stroke="#FEFFFE" stroke-width="1.00" transform="matrix(1.00, 0.00, 0.00, -1.00, 310.0, 581.0)"></path><path d="M 402.0 133.5 L 402.0 265.0 " fill="none" stroke="#FEFFFE" stroke-width="1.00" transform="matrix(1.00, 0.00, 0.00, -1.00, 310.0, 581.0)"></path><path d="M 402.0 265.0 L 402.0 330.8 " fill="none" stroke="#FEFFFE" stroke-width="1.00" transform="matrix(1.00, 0.00, 0.00, -1.00, 310.0, 581.0)"></path></g></g></g></g><g><clipPath id="clip0x6000048b0e60"><path d="M 311.5 316.5 L 712.5 316.5 L 712.5 249.8 L 311.5 249.8 Z M 311.5 316.5 "></path></clipPath><g clip-path="url(#clip0x6000048b0e60)"><g><clipPath id="clip0x6000048b00e0"><path d="M 0.0 0.0 L 1024.0 0.0 L 1024.0 768.0 L 0.0 768.0 Z M 0.0 0.0 "></path></clipPath><g clip-path="url(#clip0x6000048b00e0)"><g><g><clipPath id="clip0x6000046a2340"><path d="M 311.0 249.0 L 713.0 249.0 L 713.0 317.0 L 311.0 317.0 Z M 311.0 249.0 "></path></clipPath><g clip-path="url(#clip0x6000046a2340)"><path d="M 312.0 381.8 L 712.0 381.8 L 712.0 316.0 L 312.0 316.0 Z M 312.0 381.8 " fill="#7ADA45"></path><path d="M 312.0 316.0 L 712.0 316.0 L 712.0 250.2 L 312.0 250.2 Z M 312.0 316.0 " fill="#1497FC"></path><path d="M 312.0 250.2 L 712.0 250.2 L 712.0 184.5 L 312.0 184.5 Z M 312.0 250.2 " fill="#1497FC"></path></g></g></g></g></g></g></g><g><clipPath id="clip0x6000048ad4a0"><path d="M 311.5 316.5 L 712.5 316.5 L 712.5 249.8 L 311.5 249.8 Z M 311.5 316.5 "></path></clipPath><g clip-path="url(#clip0x6000048ad4a0)"><g><clipPath id="clip0x6000048a7a40"><path d="M 312.5 250.8 L 711.5 250.8 L 711.5 315.5 L 312.5 315.5 Z M 312.5 250.8 "></path></clipPath><g clip-path="url(#clip0x6000048a7a40)"><text xml:space="preserve" font-family="Helvetica-Light,Helvetica" font-size="28.0" fill="#FEFFFE" transform="matrix(1.00, 0.00, -0.00, -1.00, 484.0, 271.9)">P</text><text xml:space="preserve" font-family="Helvetica-Light,Helvetica" font-size="28.0" fill="#FEFFFE" transform="matrix(1.00, 0.00, -0.00, -1.00, 501.1, 271.9)">D</text><text xml:space="preserve" font-family="Helvetica-Light,Helvetica" font-size="28.0" fill="#FEFFFE" transform="matrix(1.00, 0.00, -0.00, -1.00, 521.3, 271.9)">A</text></g></g></g></g><g><clipPath id="clip0x600000aafc60"><path d="M 311.5 316.5 L 712.5 316.5 L 712.5 249.8 L 311.5 249.8 Z M 311.5 316.5 "></path></clipPath><g clip-path="url(#clip0x600000aafc60)"><g><clipPath id="clip0x600000ab58a0"><path d="M 0.0 0.0 L 1024.0 0.0 L 1024.0 768.0 L 0.0 768.0 Z M 0.0 0.0 "></path></clipPath><g clip-path="url(#clip0x600000ab58a0)"><path d="M 1.5 265.0 L 402.5 265.0 " fill="none" stroke="#FEFFFE" stroke-width="1.00" transform="matrix(1.00, 0.00, 0.00, -1.00, 310.0, 581.0)"></path><path d="M 1.5 330.8 L 402.5 330.8 " fill="none" stroke="#FEFFFE" stroke-width="1.00" transform="matrix(1.00, 0.00, 0.00, -1.00, 310.0, 581.0)"></path><path d="M 2.0 199.2 L 2.0 265.0 " fill="none" stroke="#FEFFFE" stroke-width="1.00" transform="matrix(1.00, 0.00, 0.00, -1.00, 310.0, 581.0)"></path><path d="M 2.0 265.0 L 2.0 396.5 " fill="none" stroke="#FEFFFE" stroke-width="1.00" transform="matrix(1.00, 0.00, 0.00, -1.00, 310.0, 581.0)"></path><path d="M 402.0 199.2 L 402.0 265.0 " fill="none" stroke="#FEFFFE" stroke-width="1.00" transform="matrix(1.00, 0.00, 0.00, -1.00, 310.0, 581.0)"></path><path d="M 402.0 265.0 L 402.0 396.5 " fill="none" stroke="#FEFFFE" stroke-width="1.00" transform="matrix(1.00, 0.00, 0.00, -1.00, 310.0, 581.0)"></path></g></g></g></g><g><clipPath id="clip0x6000044b8540"><path d="M 311.5 250.8 L 712.5 250.8 L 712.5 184.0 L 311.5 184.0 Z M 311.5 250.8 "></path></clipPath><g clip-path="url(#clip0x6000044b8540)"><g><clipPath id="clip0x6000044a6fc0"><path d="M 0.0 0.0 L 1024.0 0.0 L 1024.0 768.0 L 0.0 768.0 Z M 0.0 0.0 "></path></clipPath><g clip-path="url(#clip0x6000044a6fc0)"><g><g><clipPath id="clip0x6000048aa920"><path d="M 311.0 184.0 L 713.0 184.0 L 713.0 251.0 L 311.0 251.0 Z M 311.0 184.0 "></path></clipPath><g clip-path="url(#clip0x6000048aa920)"><path d="M 312.0 316.0 L 712.0 316.0 L 712.0 250.2 L 312.0 250.2 Z M 312.0 316.0 " fill="#1497FC"></path><path d="M 312.0 250.2 L 712.0 250.2 L 712.0 184.5 L 312.0 184.5 Z M 312.0 250.2 " fill="#1497FC"></path><path d="M 312.0 184.5 L 712.0 184.5 L 712.0 118.8 L 312.0 118.8 Z M 312.0 184.5 " fill="#E7A432"></path></g></g></g></g></g></g></g><g><clipPath id="clip0x6000048b2d80"><path d="M 311.5 250.8 L 712.5 250.8 L 712.5 184.0 L 311.5 184.0 Z M 311.5 250.8 "></path></clipPath><g clip-path="url(#clip0x6000048b2d80)"><g><clipPath id="clip0x6000048b42e0"><path d="M 312.5 185.0 L 711.5 185.0 L 711.5 249.8 L 312.5 249.8 Z M 312.5 185.0 "></path></clipPath><g clip-path="url(#clip0x6000048b42e0)"><text xml:space="preserve" font-family="Helvetica-Light,Helvetica" font-size="28.0" fill="#FEFFFE" transform="matrix(1.00, 0.00, -0.00, -1.00, 434.4, 206.2)">P</text><text xml:space="preserve" font-family="Helvetica-Light,Helvetica" font-size="28.0" fill="#FEFFFE" transform="matrix(1.00, 0.00, -0.00, -1.00, 451.5, 206.2)">D</text><text xml:space="preserve" font-family="Helvetica-Light,Helvetica" font-size="28.0" fill="#FEFFFE" transform="matrix(1.00, 0.00, -0.00, -1.00, 471.8, 206.2)">A</text><text xml:space="preserve" font-family="Helvetica-Light,Helvetica" font-size="28.0" fill="#FEFFFE" transform="matrix(1.00, 0.00, -0.00, -1.00, 490.4, 206.2)"> </text><text xml:space="preserve" font-family="ZapfDingbatsITC,Zapf Dingbats" font-size="28.0" fill="#FEFFFE" transform="matrix(1.00, 0.00, -0.00, -1.00, 498.2, 206.2)">➞</text><text xml:space="preserve" font-family="Helvetica-Light,Helvetica" font-size="28.0" fill="#FEFFFE" transform="matrix(1.00, 0.00, -0.00, -1.00, 524.2, 206.2)"> </text><text xml:space="preserve" font-family="Helvetica-Light,Helvetica" font-size="28.0" fill="#FEFFFE" transform="matrix(1.00, 0.00, -0.00, -1.00, 532.0, 206.2)">C</text><text xml:space="preserve" font-family="Helvetica-Light,Helvetica" font-size="28.0" fill="#FEFFFE" transform="matrix(1.00, 0.00, -0.00, -1.00, 552.2, 206.2)">F</text><text xml:space="preserve" font-family="Helvetica-Light,Helvetica" font-size="28.0" fill="#FEFFFE" transform="matrix(1.00, 0.00, -0.00, -1.00, 567.8, 206.2)">G</text></g></g></g></g><g><clipPath id="clip0x6000046b6c80"><path d="M 311.5 250.8 L 712.5 250.8 L 712.5 184.0 L 311.5 184.0 Z M 311.5 250.8 "></path></clipPath><g clip-path="url(#clip0x6000046b6c80)"><g><clipPath id="clip0x6000008bd520"><path d="M 0.0 0.0 L 1024.0 0.0 L 1024.0 768.0 L 0.0 768.0 Z M 0.0 0.0 "></path></clipPath><g clip-path="url(#clip0x6000008bd520)"><path d="M 1.5 330.8 L 402.5 330.8 " fill="none" stroke="#FEFFFE" stroke-width="1.00" transform="matrix(1.00, 0.00, 0.00, -1.00, 310.0, 581.0)"></path><path d="M 1.5 396.5 L 402.5 396.5 " fill="none" stroke="#FEFFFE" stroke-width="1.00" transform="matrix(1.00, 0.00, 0.00, -1.00, 310.0, 581.0)"></path><path d="M 2.0 265.0 L 2.0 396.5 " fill="none" stroke="#FEFFFE" stroke-width="1.00" transform="matrix(1.00, 0.00, 0.00, -1.00, 310.0, 581.0)"></path><path d="M 2.0 396.5 L 2.0 462.2 " fill="none" stroke="#FEFFFE" stroke-width="1.00" transform="matrix(1.00, 0.00, 0.00, -1.00, 310.0, 581.0)"></path><path d="M 402.0 265.0 L 402.0 396.5 " fill="none" stroke="#FEFFFE" stroke-width="1.00" transform="matrix(1.00, 0.00, 0.00, -1.00, 310.0, 581.0)"></path><path d="M 402.0 396.5 L 402.0 462.2 " fill="none" stroke="#FEFFFE" stroke-width="1.00" transform="matrix(1.00, 0.00, 0.00, -1.00, 310.0, 581.0)"></path></g></g></g></g><g><clipPath id="clip0x600000ab5840"><path d="M 311.5 185.0 L 712.5 185.0 L 712.5 118.2 L 311.5 118.2 Z M 311.5 185.0 "></path></clipPath><g clip-path="url(#clip0x600000ab5840)"><g><clipPath id="clip0x6000046b5d20"><path d="M 0.0 0.0 L 1024.0 0.0 L 1024.0 768.0 L 0.0 768.0 Z M 0.0 0.0 "></path></clipPath><g clip-path="url(#clip0x6000046b5d20)"><g><g><clipPath id="clip0x6000044af180"><path d="M 311.0 118.0 L 713.0 118.0 L 713.0 185.0 L 311.0 185.0 Z M 311.0 118.0 "></path></clipPath><g clip-path="url(#clip0x6000044af180)"><path d="M 312.0 250.2 L 712.0 250.2 L 712.0 184.5 L 312.0 184.5 Z M 312.0 250.2 " fill="#1497FC"></path><path d="M 312.0 184.5 L 712.0 184.5 L 712.0 118.8 L 312.0 118.8 Z M 312.0 184.5 " fill="#E7A432"></path><path d="M 312.0 118.8 L 712.0 118.8 L 712.0 53.0 L 312.0 53.0 Z M 312.0 118.8 " fill="#D35854"></path></g></g></g></g></g></g></g><g><clipPath id="clip0x6000044bd280"><path d="M 311.5 185.0 L 712.5 185.0 L 712.5 118.2 L 311.5 118.2 Z M 311.5 185.0 "></path></clipPath><g clip-path="url(#clip0x6000044bd280)"><g><clipPath id="clip0x6000046a8fa0"><path d="M 312.5 119.2 L 711.5 119.2 L 711.5 184.0 L 312.5 184.0 Z M 312.5 119.2 "></path></clipPath><g clip-path="url(#clip0x6000046a8fa0)"><text xml:space="preserve" font-family="Helvetica-Light,Helvetica" font-size="28.0" fill="#FEFFFE" transform="matrix(1.00, 0.00, -0.00, -1.00, 452.1, 140.4)">L</text><text xml:space="preserve" font-family="Helvetica-Light,Helvetica" font-size="28.0" fill="#FEFFFE" transform="matrix(1.00, 0.00, -0.00, -1.00, 467.7, 140.4)">L</text><text xml:space="preserve" font-family="Helvetica-Light,Helvetica" font-size="28.0" fill="#FEFFFE" transform="matrix(1.00, 0.00, -0.00, -1.00, 483.2, 140.4)"> </text><text xml:space="preserve" font-family="Helvetica-Light,Helvetica" font-size="28.0" fill="#FEFFFE" transform="matrix(1.00, 0.00, -0.00, -1.00, 491.0, 140.4)">P</text><text xml:space="preserve" font-family="Helvetica-Light,Helvetica" font-size="28.0" fill="#FEFFFE" transform="matrix(1.00, 0.00, -0.00, -1.00, 508.1, 140.4)">a</text><text xml:space="preserve" font-family="Helvetica-Light,Helvetica" font-size="28.0" fill="#FEFFFE" transform="matrix(1.00, 0.00, -0.00, -1.00, 523.7, 140.4)">r</text><text xml:space="preserve" font-family="Helvetica-Light,Helvetica" font-size="28.0" fill="#FEFFFE" transform="matrix(1.00, 0.00, -0.00, -1.00, 533.0, 140.4)">s</text><text xml:space="preserve" font-family="Helvetica-Light,Helvetica" font-size="28.0" fill="#FEFFFE" transform="matrix(1.00, 0.00, -0.00, -1.00, 547.0, 140.4)">e</text><text xml:space="preserve" font-family="Helvetica-Light,Helvetica" font-size="28.0" fill="#FEFFFE" transform="matrix(1.00, 0.00, -0.00, -1.00, 562.6, 140.4)">r</text></g></g></g></g><g><clipPath id="clip0x6000048a2880"><path d="M 311.5 185.0 L 712.5 185.0 L 712.5 118.2 L 311.5 118.2 Z M 311.5 185.0 "></path></clipPath><g clip-path="url(#clip0x6000048a2880)"><g><clipPath id="clip0x600003caa860"><path d="M 0.0 0.0 L 1024.0 0.0 L 1024.0 768.0 L 0.0 768.0 Z M 0.0 0.0 "></path></clipPath><g clip-path="url(#clip0x600003caa860)"><path d="M 1.5 396.5 L 402.5 396.5 " fill="none" stroke="#FEFFFE" stroke-width="1.00" transform="matrix(1.00, 0.00, 0.00, -1.00, 310.0, 581.0)"></path><path d="M 1.5 462.2 L 402.5 462.2 " fill="none" stroke="#FEFFFE" stroke-width="1.00" transform="matrix(1.00, 0.00, 0.00, -1.00, 310.0, 581.0)"></path><path d="M 2.0 330.8 L 2.0 396.5 " fill="none" stroke="#FEFFFE" stroke-width="1.00" transform="matrix(1.00, 0.00, 0.00, -1.00, 310.0, 581.0)"></path><path d="M 2.0 396.5 L 2.0 462.2 " fill="none" stroke="#FEFFFE" stroke-width="1.00" transform="matrix(1.00, 0.00, 0.00, -1.00, 310.0, 581.0)"></path><path d="M 2.0 462.2 L 2.0 528.0 " fill="none" stroke="#FEFFFE" stroke-width="1.00" transform="matrix(1.00, 0.00, 0.00, -1.00, 310.0, 581.0)"></path><path d="M 402.0 330.8 L 402.0 396.5 " fill="none" stroke="#FEFFFE" stroke-width="1.00" transform="matrix(1.00, 0.00, 0.00, -1.00, 310.0, 581.0)"></path><path d="M 402.0 396.5 L 402.0 462.2 " fill="none" stroke="#FEFFFE" stroke-width="1.00" transform="matrix(1.00, 0.00, 0.00, -1.00, 310.0, 581.0)"></path><path d="M 402.0 462.2 L 402.0 528.0 " fill="none" stroke="#FEFFFE" stroke-width="1.00" transform="matrix(1.00, 0.00, 0.00, -1.00, 310.0, 581.0)"></path></g></g></g></g><g><clipPath id="clip0x6000048a8b20"><path d="M 311.5 119.2 L 712.5 119.2 L 712.5 52.5 L 311.5 52.5 Z M 311.5 119.2 "></path></clipPath><g clip-path="url(#clip0x6000048a8b20)"><g><clipPath id="clip0x6000048b0260"><path d="M 0.0 0.0 L 1024.0 0.0 L 1024.0 768.0 L 0.0 768.0 Z M 0.0 0.0 "></path></clipPath><g clip-path="url(#clip0x6000048b0260)"><g><g><clipPath id="clip0x6000048b3200"><path d="M 311.0 52.0 L 713.0 52.0 L 713.0 120.0 L 311.0 120.0 Z M 311.0 52.0 "></path></clipPath><g clip-path="url(#clip0x6000048b3200)"><path d="M 312.0 184.5 L 712.0 184.5 L 712.0 118.8 L 312.0 118.8 Z M 312.0 184.5 " fill="#E7A432"></path><path d="M 312.0 118.8 L 712.0 118.8 L 712.0 53.0 L 312.0 53.0 Z M 312.0 118.8 " fill="#D35854"></path></g></g></g></g></g></g></g><g><clipPath id="clip0x6000044b6920"><path d="M 311.5 119.2 L 712.5 119.2 L 712.5 52.5 L 311.5 52.5 Z M 311.5 119.2 "></path></clipPath><g clip-path="url(#clip0x6000044b6920)"><g><clipPath id="clip0x600000abb660"><path d="M 312.5 53.5 L 711.5 53.5 L 711.5 118.2 L 312.5 118.2 Z M 312.5 53.5 "></path></clipPath><g clip-path="url(#clip0x600000abb660)"><text xml:space="preserve" font-family="Helvetica-Light,Helvetica" font-size="28.0" fill="#FEFFFE" transform="matrix(1.00, 0.00, -0.00, -1.00, 416.0, 74.7)">T</text><text xml:space="preserve" font-family="Helvetica-Light,Helvetica" font-size="28.0" fill="#FEFFFE" transform="matrix(1.00, 0.00, -0.00, -1.00, 429.0, 74.7)">u</text><text xml:space="preserve" font-family="Helvetica-Light,Helvetica" font-size="28.0" fill="#FEFFFE" transform="matrix(1.00, 0.00, -0.00, -1.00, 444.6, 74.7)">r</text><text xml:space="preserve" font-family="Helvetica-Light,Helvetica" font-size="28.0" fill="#FEFFFE" transform="matrix(1.00, 0.00, -0.00, -1.00, 453.9, 74.7)">i</text><text xml:space="preserve" font-family="Helvetica-Light,Helvetica" font-size="28.0" fill="#FEFFFE" transform="matrix(1.00, 0.00, -0.00, -1.00, 460.1, 74.7)">n</text><text xml:space="preserve" font-family="Helvetica-Light,Helvetica" font-size="28.0" fill="#FEFFFE" transform="matrix(1.00, 0.00, -0.00, -1.00, 475.7, 74.7)">g</text><text xml:space="preserve" font-family="Helvetica-Light,Helvetica" font-size="28.0" fill="#FEFFFE" transform="matrix(1.00, 0.00, -0.00, -1.00, 492.8, 74.7)"> </text><text xml:space="preserve" font-family="Helvetica-Light,Helvetica" font-size="28.0" fill="#FEFFFE" transform="matrix(1.00, 0.00, -0.00, -1.00, 500.6, 74.7)">M</text><text xml:space="preserve" font-family="Helvetica-Light,Helvetica" font-size="28.0" fill="#FEFFFE" transform="matrix(1.00, 0.00, -0.00, -1.00, 523.9, 74.7)">a</text><text xml:space="preserve" font-family="Helvetica-Light,Helvetica" font-size="28.0" fill="#FEFFFE" transform="matrix(1.00, 0.00, -0.00, -1.00, 539.5, 74.7)">c</text><text xml:space="preserve" font-family="Helvetica-Light,Helvetica" font-size="28.0" fill="#FEFFFE" transform="matrix(1.00, 0.00, -0.00, -1.00, 555.1, 74.7)">h</text><text xml:space="preserve" font-family="Helvetica-Light,Helvetica" font-size="28.0" fill="#FEFFFE" transform="matrix(1.00, 0.00, -0.00, -1.00, 570.6, 74.7)">i</text><text xml:space="preserve" font-family="Helvetica-Light,Helvetica" font-size="28.0" fill="#FEFFFE" transform="matrix(1.00, 0.00, -0.00, -1.00, 576.8, 74.7)">n</text><text xml:space="preserve" font-family="Helvetica-Light,Helvetica" font-size="28.0" fill="#FEFFFE" transform="matrix(1.00, 0.00, -0.00, -1.00, 592.4, 74.7)">e</text></g></g></g></g><g><clipPath id="clip0x6000044b1880"><path d="M 311.5 119.2 L 712.5 119.2 L 712.5 52.5 L 311.5 52.5 Z M 311.5 119.2 "></path></clipPath><g clip-path="url(#clip0x6000044b1880)"><g><clipPath id="clip0x6000046aed60"><path d="M 0.0 0.0 L 1024.0 0.0 L 1024.0 768.0 L 0.0 768.0 Z M 0.0 0.0 "></path></clipPath><g clip-path="url(#clip0x6000046aed60)"><path d="M 1.5 462.2 L 402.5 462.2 " fill="none" stroke="#FEFFFE" stroke-width="1.00" transform="matrix(1.00, 0.00, 0.00, -1.00, 310.0, 581.0)"></path><path d="M 2.0 396.5 L 2.0 462.2 " fill="none" stroke="#FEFFFE" stroke-width="1.00" transform="matrix(1.00, 0.00, 0.00, -1.00, 310.0, 581.0)"></path><path d="M 2.0 462.2 L 2.0 528.5 " fill="none" stroke="#FEFFFE" stroke-width="1.00" transform="matrix(1.00, 0.00, 0.00, -1.00, 310.0, 581.0)"></path><path d="M 402.0 396.5 L 402.0 462.2 " fill="none" stroke="#FEFFFE" stroke-width="1.00" transform="matrix(1.00, 0.00, 0.00, -1.00, 310.0, 581.0)"></path><path d="M 402.0 462.2 L 402.0 528.5 " fill="none" stroke="#FEFFFE" stroke-width="1.00" transform="matrix(1.00, 0.00, 0.00, -1.00, 310.0, 581.0)"></path><path d="M 1.5 528.0 L 402.5 528.0 " fill="none" stroke="#FEFFFE" stroke-width="1.00" transform="matrix(1.00, 0.00, 0.00, -1.00, 310.0, 581.0)"></path></g></g></g></g></g></g></svg>