<?xml version="1.0" encoding="UTF-8" standalone="no"?><svg xmlns="http://www.w3.org/2000/svg" xmlns:xlink="http://www.w3.org/1999/xlink" clip-rule="evenodd" stroke-miterlimit="10" viewBox="0 0 384 78"><desc>SVG generated by Keynote</desc><defs></defs><g transform="matrix(1.00, 0.00, -0.00, -1.00, 0.0, 78.0)"><text xml:space="preserve" font-family="Helvetica-Light,Helvetica" font-size="80.0" fill="#FEFFFF" transform="matrix(1.00, 0.00, -0.00, -1.00, 0.6, 19.1)">A</text><text xml:space="preserve" font-family="Helvetica-Light,Helvetica" font-size="80.0" fill="#FEFFFF" transform="matrix(1.00, 0.00, -0.00, -1.00, 54.0, 19.1)">l</text><text xml:space="preserve" font-family="Helvetica-Light,Helvetica" font-size="80.0" fill="#FEFFFF" transform="matrix(1.00, 0.00, -0.00, -1.00, 71.8, 19.1)">g</text><text xml:space="preserve" font-family="Helvetica-Light,Helvetica" font-size="80.0" fill="#FEFFFF" transform="matrix(1.00, 0.00, -0.00, -1.00, 120.6, 19.1)">o</text><text xml:space="preserve" font-family="Helvetica-Light,Helvetica" font-size="80.0" fill="#FEFFFF" transform="matrix(1.00, 0.00, -0.00, -1.00, 165.1, 19.1)">r</text><text xml:space="preserve" font-family="Helvetica-Light,Helvetica" font-size="80.0" fill="#FEFFFF" transform="matrix(1.00, 0.00, -0.00, -1.00, 191.8, 19.1)">i</text><text xml:space="preserve" font-family="Helvetica-Light,Helvetica" font-size="80.0" fill="#FEFFFF" transform="matrix(1.00, 0.00, -0.00, -1.00, 209.5, 19.1)">t</text><text xml:space="preserve" font-family="Helvetica-Light,Helvetica" font-size="80.0" fill="#FEFFFF" transform="matrix(1.00, 0.00, -0.00, -1.00, 231.8, 19.1)">m</text><text xml:space="preserve" font-family="Helvetica-Light,Helvetica" font-size="80.0" fill="#FEFFFF" transform="matrix(1.00, 0.00, -0.00, -1.00, 298.4, 19.1)">e</text><text xml:space="preserve" font-family="Helvetica-Light,Helvetica" font-size="80.0" fill="#FEFFFF" transform="matrix(1.00, 0.00, -0.00, -1.00, 342.9, 19.1)">n</text></g></svg>