<?xml version="1.0" encoding="UTF-8" standalone="no"?><svg xmlns="http://www.w3.org/2000/svg" xmlns:xlink="http://www.w3.org/1999/xlink" clip-rule="evenodd" stroke-miterlimit="10" viewBox="0 0 187 113"><desc>SVG generated by Keynote</desc><defs></defs><g transform="matrix(1.00, 0.00, -0.00, -1.00, 0.0, 113.0)"><g><clipPath id="clip0x6000068b0fe0"><path d="M 49.7 112.2 L 49.7 0.8 L 0.3 0.8 L 0.3 112.2 Z M 49.7 112.2 "></path></clipPath><g clip-path="url(#clip0x6000068b0fe0)"><path d="M 22.0 43.0 L 1.3 43.0 L 25.0 1.8 L 48.7 43.0 L 28.0 43.0 L 28.0 111.0 L 22.0 111.0 Z M 22.4 43.4 " fill="#FEFFFE"></path></g></g><g><clipPath id="clip0x6000068ba2e0"><path d="M 43.7 51.5 L 190.8 51.5 L 190.8 112.5 L 43.7 112.5 Z M 43.7 51.5 "></path></clipPath><g clip-path="url(#clip0x6000068ba2e0)"><text xml:space="preserve" font-family="Helvetica-Light,Helvetica" font-size="36.0" fill="#FEFFFF" transform="matrix(1.00, 0.00, -0.00, -1.00, 53.2, 68.8)">A</text><text xml:space="preserve" font-family="Helvetica-Light,Helvetica" font-size="36.0" fill="#FEFFFF" transform="matrix(1.00, 0.00, -0.00, -1.00, 77.3, 68.8)">n</text><text xml:space="preserve" font-family="Helvetica-Light,Helvetica" font-size="36.0" fill="#FEFFFF" transform="matrix(1.00, 0.00, -0.00, -1.00, 97.3, 68.8)">a</text><text xml:space="preserve" font-family="Helvetica-Light,Helvetica" font-size="36.0" fill="#FEFFFF" transform="matrix(1.00, 0.00, -0.00, -1.00, 117.3, 68.8)">l</text><text xml:space="preserve" font-family="Helvetica-Light,Helvetica" font-size="36.0" fill="#FEFFFF" transform="matrix(1.00, 0.00, -0.00, -1.00, 125.3, 68.8)">y</text><text xml:space="preserve" font-family="Helvetica-Light,Helvetica" font-size="36.0" fill="#FEFFFF" transform="matrix(1.00, 0.00, -0.00, -1.00, 143.3, 68.8)">s</text><text xml:space="preserve" font-family="Helvetica-Light,Helvetica" font-size="36.0" fill="#FEFFFF" transform="matrix(1.00, 0.00, -0.00, -1.00, 161.3, 68.8)">e</text></g></g></g></svg>