<?xml version="1.0" encoding="UTF-8" standalone="no"?><svg xmlns="http://www.w3.org/2000/svg" xmlns:xlink="http://www.w3.org/1999/xlink" clip-rule="evenodd" stroke-miterlimit="10" viewBox="0 0 1024 768"><desc>SVG generated by Keynote</desc><defs></defs><g transform="matrix(1.00, 0.00, -0.00, -1.00, 0.0, 768.0)"><path d="M 0.0 768.0 L 1024.0 768.0 L 1024.0 0.0 L 0.0 0.0 Z M 0.0 768.0 " fill="#000000"></path><text xml:space="preserve" font-family="Helvetica-Light,Helvetica" font-size="80.0" fill="#FEFFFF" transform="matrix(1.00, 0.00, -0.00, -1.00, 171.8, 615.3)">R</text><text xml:space="preserve" font-family="Helvetica-Light,Helvetica" font-size="80.0" fill="#FEFFFF" transform="matrix(1.00, 0.00, -0.00, -1.00, 225.2, 615.3)">N</text><text xml:space="preserve" font-family="Helvetica-Light,Helvetica" font-size="80.0" fill="#FEFFFF" transform="matrix(1.00, 0.00, -0.00, -1.00, 282.9, 615.3)">A</text><text xml:space="preserve" font-family="Helvetica-Light,Helvetica" font-size="80.0" fill="#FEFFFF" transform="matrix(1.00, 0.00, -0.00, -1.00, 336.3, 615.3)"> </text><text xml:space="preserve" font-family="Helvetica-Light,Helvetica" font-size="80.0" fill="#FEFFFF" transform="matrix(1.00, 0.00, -0.00, -1.00, 358.5, 615.3)">C</text><text xml:space="preserve" font-family="Helvetica-Light,Helvetica" font-size="80.0" fill="#FEFFFF" transform="matrix(1.00, 0.00, -0.00, -1.00, 416.3, 615.3)">r</text><text xml:space="preserve" font-family="Helvetica-Light,Helvetica" font-size="80.0" fill="#FEFFFF" transform="matrix(1.00, 0.00, -0.00, -1.00, 442.9, 615.3)">a</text><text xml:space="preserve" font-family="Helvetica-Light,Helvetica" font-size="80.0" fill="#FEFFFF" transform="matrix(1.00, 0.00, -0.00, -1.00, 487.4, 615.3)">s</text><text xml:space="preserve" font-family="Helvetica-Light,Helvetica" font-size="80.0" fill="#FEFFFF" transform="matrix(1.00, 0.00, -0.00, -1.00, 527.4, 615.3)">h</text><text xml:space="preserve" font-family="Helvetica-Light,Helvetica" font-size="80.0" fill="#FEFFFF" transform="matrix(1.00, 0.00, -0.00, -1.00, 571.9, 615.3)"> </text><text xml:space="preserve" font-family="Helvetica-Light,Helvetica" font-size="80.0" fill="#FEFFFF" transform="matrix(1.00, 0.00, -0.00, -1.00, 594.1, 615.3)">C</text><text xml:space="preserve" font-family="Helvetica-Light,Helvetica" font-size="80.0" fill="#FEFFFF" transform="matrix(1.00, 0.00, -0.00, -1.00, 651.9, 615.3)">o</text><text xml:space="preserve" font-family="Helvetica-Light,Helvetica" font-size="80.0" fill="#FEFFFF" transform="matrix(1.00, 0.00, -0.00, -1.00, 696.4, 615.3)">u</text><text xml:space="preserve" font-family="Helvetica-Light,Helvetica" font-size="80.0" fill="#FEFFFF" transform="matrix(1.00, 0.00, -0.00, -1.00, 740.9, 615.3)">r</text><text xml:space="preserve" font-family="Helvetica-Light,Helvetica" font-size="80.0" fill="#FEFFFF" transform="matrix(1.00, 0.00, -0.00, -1.00, 767.5, 615.3)">s</text><text xml:space="preserve" font-family="Helvetica-Light,Helvetica" font-size="80.0" fill="#FEFFFF" transform="matrix(1.00, 0.00, -0.00, -1.00, 807.5, 615.3)">e</text><text xml:space="preserve" font-family="Helvetica-Light,Helvetica" font-size="36.0" fill="#FEFFFF" transform="matrix(1.00, 0.00, -0.00, -1.00, 270.3, 396.3)">R</text><text xml:space="preserve" font-family="Helvetica-Light,Helvetica" font-size="36.0" fill="#FEFFFF" transform="matrix(1.00, 0.00, -0.00, -1.00, 294.3, 396.3)">N</text><text xml:space="preserve" font-family="Helvetica-Light,Helvetica" font-size="36.0" fill="#FEFFFF" transform="matrix(1.00, 0.00, -0.00, -1.00, 320.3, 396.3)">A</text><text xml:space="preserve" font-family="Helvetica-Light,Helvetica" font-size="36.0" fill="#FEFFFF" transform="matrix(1.00, 0.00, -0.00, -1.00, 344.3, 396.3)">-</text><text xml:space="preserve" font-family="Helvetica-Light,Helvetica" font-size="36.0" fill="#FEFFFF" transform="matrix(1.00, 0.00, -0.00, -1.00, 356.3, 396.3)">D</text><text xml:space="preserve" font-family="Helvetica-Light,Helvetica" font-size="36.0" fill="#FEFFFF" transform="matrix(1.00, 0.00, -0.00, -1.00, 382.3, 396.3)">N</text><text xml:space="preserve" font-family="Helvetica-Light,Helvetica" font-size="36.0" fill="#FEFFFF" transform="matrix(1.00, 0.00, -0.00, -1.00, 408.3, 396.3)">A</text><text xml:space="preserve" font-family="Helvetica-Light,Helvetica" font-size="36.0" fill="#FEFFFF" transform="matrix(1.00, 0.00, -0.00, -1.00, 432.3, 396.3)"> </text><text xml:space="preserve" font-family="Helvetica-Light,Helvetica" font-size="36.0" fill="#FEFFFF" transform="matrix(1.00, 0.00, -0.00, -1.00, 442.3, 396.3)">M</text><text xml:space="preserve" font-family="Helvetica-Light,Helvetica" font-size="36.0" fill="#FEFFFF" transform="matrix(1.00, 0.00, -0.00, -1.00, 472.3, 396.3)">a</text><text xml:space="preserve" font-family="Helvetica-Light,Helvetica" font-size="36.0" fill="#FEFFFF" transform="matrix(1.00, 0.00, -0.00, -1.00, 492.3, 396.3)">n</text><text xml:space="preserve" font-family="Helvetica-Light,Helvetica" font-size="36.0" fill="#FEFFFF" transform="matrix(1.00, 0.00, -0.00, -1.00, 512.4, 396.3)">i</text><text xml:space="preserve" font-family="Helvetica-Light,Helvetica" font-size="36.0" fill="#FEFFFF" transform="matrix(1.00, 0.00, -0.00, -1.00, 520.4, 396.3)">p</text><text xml:space="preserve" font-family="Helvetica-Light,Helvetica" font-size="36.0" fill="#FEFFFF" transform="matrix(1.00, 0.00, -0.00, -1.00, 542.3, 396.3)">u</text><text xml:space="preserve" font-family="Helvetica-Light,Helvetica" font-size="36.0" fill="#FEFFFF" transform="matrix(1.00, 0.00, -0.00, -1.00, 562.4, 396.3)">l</text><text xml:space="preserve" font-family="Helvetica-Light,Helvetica" font-size="36.0" fill="#FEFFFF" transform="matrix(1.00, 0.00, -0.00, -1.00, 570.4, 396.3)">a</text><text xml:space="preserve" font-family="Helvetica-Light,Helvetica" font-size="36.0" fill="#FEFFFF" transform="matrix(1.00, 0.00, -0.00, -1.00, 590.4, 396.3)">t</text><text xml:space="preserve" font-family="Helvetica-Light,Helvetica" font-size="36.0" fill="#FEFFFF" transform="matrix(1.00, 0.00, -0.00, -1.00, 600.4, 396.3)">i</text><text xml:space="preserve" font-family="Helvetica-Light,Helvetica" font-size="36.0" fill="#FEFFFF" transform="matrix(1.00, 0.00, -0.00, -1.00, 608.4, 396.3)">e</text><text xml:space="preserve" font-family="Helvetica-Light,Helvetica" font-size="36.0" fill="#FEFFFF" transform="matrix(1.00, 0.00, -0.00, -1.00, 628.4, 396.3)"> </text><text xml:space="preserve" font-family="Helvetica-Light,Helvetica" font-size="36.0" fill="#FEFFFF" transform="matrix(1.00, 0.00, -0.00, -1.00, 638.4, 396.3)">(</text><text xml:space="preserve" font-family="Helvetica-Light,Helvetica" font-size="36.0" fill="#FEFFFF" transform="matrix(1.00, 0.00, -0.00, -1.00, 650.4, 396.3)">S</text><text xml:space="preserve" font-family="Helvetica-Light,Helvetica" font-size="36.0" fill="#FEFFFF" transform="matrix(1.00, 0.00, -0.00, -1.00, 672.4, 396.3)">t</text><text xml:space="preserve" font-family="Helvetica-Light,Helvetica" font-size="36.0" fill="#FEFFFF" transform="matrix(1.00, 0.00, -0.00, -1.00, 682.4, 396.3)">e</text><text xml:space="preserve" font-family="Helvetica-Light,Helvetica" font-size="36.0" fill="#FEFFFF" transform="matrix(1.00, 0.00, -0.00, -1.00, 702.4, 396.3)">m</text><text xml:space="preserve" font-family="Helvetica-Light,Helvetica" font-size="36.0" fill="#FEFFFF" transform="matrix(1.00, 0.00, -0.00, -1.00, 732.4, 396.3)">)</text><text xml:space="preserve" font-family="Helvetica-Light,Helvetica" font-size="36.0" fill="#FEFFFF" transform="matrix(1.00, 0.00, -0.00, -1.00, 342.9, 326.1)">F</text><text xml:space="preserve" font-family="Helvetica-Light,Helvetica" font-size="36.0" fill="#FEFFFF" transform="matrix(1.00, 0.00, -0.00, -1.00, 362.9, 326.1)">u</text><text xml:space="preserve" font-family="Helvetica-Light,Helvetica" font-size="36.0" fill="#FEFFFF" transform="matrix(1.00, 0.00, -0.00, -1.00, 383.0, 326.1)">n</text><text xml:space="preserve" font-family="Helvetica-Light,Helvetica" font-size="36.0" fill="#FEFFFF" transform="matrix(1.00, 0.00, -0.00, -1.00, 403.0, 326.1)">c</text><text xml:space="preserve" font-family="Helvetica-Light,Helvetica" font-size="36.0" fill="#FEFFFF" transform="matrix(1.00, 0.00, -0.00, -1.00, 423.0, 326.1)">t</text><text xml:space="preserve" font-family="Helvetica-Light,Helvetica" font-size="36.0" fill="#FEFFFF" transform="matrix(1.00, 0.00, -0.00, -1.00, 433.0, 326.1)">i</text><text xml:space="preserve" font-family="Helvetica-Light,Helvetica" font-size="36.0" fill="#FEFFFF" transform="matrix(1.00, 0.00, -0.00, -1.00, 441.0, 326.1)">o</text><text xml:space="preserve" font-family="Helvetica-Light,Helvetica" font-size="36.0" fill="#FEFFFF" transform="matrix(1.00, 0.00, -0.00, -1.00, 461.0, 326.1)">n</text><text xml:space="preserve" font-family="Helvetica-Light,Helvetica" font-size="36.0" fill="#FEFFFF" transform="matrix(1.00, 0.00, -0.00, -1.00, 481.0, 326.1)">a</text><text xml:space="preserve" font-family="Helvetica-Light,Helvetica" font-size="36.0" fill="#FEFFFF" transform="matrix(1.00, 0.00, -0.00, -1.00, 501.0, 326.1)">l</text><text xml:space="preserve" font-family="Helvetica-Light,Helvetica" font-size="36.0" fill="#FEFFFF" transform="matrix(1.00, 0.00, -0.00, -1.00, 509.0, 326.1)">i</text><text xml:space="preserve" font-family="Helvetica-Light,Helvetica" font-size="36.0" fill="#FEFFFF" transform="matrix(1.00, 0.00, -0.00, -1.00, 517.0, 326.1)">t</text><text xml:space="preserve" font-family="Helvetica-Light,Helvetica" font-size="36.0" fill="#FEFFFF" transform="matrix(1.00, 0.00, -0.00, -1.00, 527.0, 326.1)">e</text><text xml:space="preserve" font-family="Helvetica-Light,Helvetica" font-size="36.0" fill="#FEFFFF" transform="matrix(1.00, 0.00, -0.00, -1.00, 547.0, 326.1)">i</text><text xml:space="preserve" font-family="Helvetica-Light,Helvetica" font-size="36.0" fill="#FEFFFF" transform="matrix(1.00, 0.00, -0.00, -1.00, 555.0, 326.1)">t</text><text xml:space="preserve" font-family="Helvetica-Light,Helvetica" font-size="36.0" fill="#FEFFFF" transform="matrix(1.00, 0.00, -0.00, -1.00, 565.0, 326.1)"> </text><text xml:space="preserve" font-family="Helvetica-Light,Helvetica" font-size="36.0" fill="#FEFFFF" transform="matrix(1.00, 0.00, -0.00, -1.00, 575.1, 326.1)">(</text><text xml:space="preserve" font-family="Helvetica-Light,Helvetica" font-size="36.0" fill="#FEFFFF" transform="matrix(1.00, 0.00, -0.00, -1.00, 587.0, 326.1)">L</text><text xml:space="preserve" font-family="Helvetica-Light,Helvetica" font-size="36.0" fill="#FEFFFF" transform="matrix(1.00, 0.00, -0.00, -1.00, 607.1, 326.1)">o</text><text xml:space="preserve" font-family="Helvetica-Light,Helvetica" font-size="36.0" fill="#FEFFFF" transform="matrix(1.00, 0.00, -0.00, -1.00, 627.1, 326.1)">o</text><text xml:space="preserve" font-family="Helvetica-Light,Helvetica" font-size="36.0" fill="#FEFFFF" transform="matrix(1.00, 0.00, -0.00, -1.00, 647.1, 326.1)">p</text><text xml:space="preserve" font-family="Helvetica-Light,Helvetica" font-size="36.0" fill="#FEFFFF" transform="matrix(1.00, 0.00, -0.00, -1.00, 669.1, 326.1)">)</text><text xml:space="preserve" font-family="Helvetica-Light,Helvetica" font-size="36.0" fill="#FEFFFF" transform="matrix(1.00, 0.00, -0.00, -1.00, 205.0, 256.0)">O</text><text xml:space="preserve" font-family="Helvetica-Light,Helvetica" font-size="36.0" fill="#FEFFFF" transform="matrix(1.00, 0.00, -0.00, -1.00, 233.0, 256.0)">n</text><text xml:space="preserve" font-family="Helvetica-Light,Helvetica" font-size="36.0" fill="#FEFFFF" transform="matrix(1.00, 0.00, -0.00, -1.00, 253.0, 256.0)">t</text><text xml:space="preserve" font-family="Helvetica-Light,Helvetica" font-size="36.0" fill="#FEFFFF" transform="matrix(1.00, 0.00, -0.00, -1.00, 263.0, 256.0)">d</text><text xml:space="preserve" font-family="Helvetica-Light,Helvetica" font-size="36.0" fill="#FEFFFF" transform="matrix(1.00, 0.00, -0.00, -1.00, 285.0, 256.0)">e</text><text xml:space="preserve" font-family="Helvetica-Light,Helvetica" font-size="36.0" fill="#FEFFFF" transform="matrix(1.00, 0.00, -0.00, -1.00, 305.0, 256.0)">k</text><text xml:space="preserve" font-family="Helvetica-Light,Helvetica" font-size="36.0" fill="#FEFFFF" transform="matrix(1.00, 0.00, -0.00, -1.00, 323.0, 256.0)">k</text><text xml:space="preserve" font-family="Helvetica-Light,Helvetica" font-size="36.0" fill="#FEFFFF" transform="matrix(1.00, 0.00, -0.00, -1.00, 341.0, 256.0)">e</text><text xml:space="preserve" font-family="Helvetica-Light,Helvetica" font-size="36.0" fill="#FEFFFF" transform="matrix(1.00, 0.00, -0.00, -1.00, 361.0, 256.0)">n</text><text xml:space="preserve" font-family="Helvetica-Light,Helvetica" font-size="36.0" fill="#FEFFFF" transform="matrix(1.00, 0.00, -0.00, -1.00, 381.1, 256.0)"> </text><text xml:space="preserve" font-family="Helvetica-Light,Helvetica" font-size="36.0" fill="#FEFFFF" transform="matrix(1.00, 0.00, -0.00, -1.00, 391.1, 256.0)">v</text><text xml:space="preserve" font-family="Helvetica-Light,Helvetica" font-size="36.0" fill="#FEFFFF" transform="matrix(1.00, 0.00, -0.00, -1.00, 409.1, 256.0)">a</text><text xml:space="preserve" font-family="Helvetica-Light,Helvetica" font-size="36.0" fill="#FEFFFF" transform="matrix(1.00, 0.00, -0.00, -1.00, 429.1, 256.0)">n</text><text xml:space="preserve" font-family="Helvetica-Light,Helvetica" font-size="36.0" fill="#FEFFFF" transform="matrix(1.00, 0.00, -0.00, -1.00, 449.1, 256.0)"> </text><text xml:space="preserve" font-family="Helvetica-Light,Helvetica" font-size="36.0" fill="#FEFFFF" transform="matrix(1.00, 0.00, -0.00, -1.00, 459.1, 256.0)">e</text><text xml:space="preserve" font-family="Helvetica-Light,Helvetica" font-size="36.0" fill="#FEFFFF" transform="matrix(1.00, 0.00, -0.00, -1.00, 479.1, 256.0)">i</text><text xml:space="preserve" font-family="Helvetica-Light,Helvetica" font-size="36.0" fill="#FEFFFF" transform="matrix(1.00, 0.00, -0.00, -1.00, 487.1, 256.0)">w</text><text xml:space="preserve" font-family="Helvetica-Light,Helvetica" font-size="36.0" fill="#FEFFFF" transform="matrix(1.00, 0.00, -0.00, -1.00, 513.1, 256.0)">i</text><text xml:space="preserve" font-family="Helvetica-Light,Helvetica" font-size="36.0" fill="#FEFFFF" transform="matrix(1.00, 0.00, -0.00, -1.00, 521.1, 256.0)">t</text><text xml:space="preserve" font-family="Helvetica-Light,Helvetica" font-size="36.0" fill="#FEFFFF" transform="matrix(1.00, 0.00, -0.00, -1.00, 531.1, 256.0)">s</text><text xml:space="preserve" font-family="Helvetica-Light,Helvetica" font-size="36.0" fill="#FEFFFF" transform="matrix(1.00, 0.00, -0.00, -1.00, 549.1, 256.0)">t</text><text xml:space="preserve" font-family="Helvetica-Light,Helvetica" font-size="36.0" fill="#FEFFFF" transform="matrix(1.00, 0.00, -0.00, -1.00, 559.1, 256.0)">r</text><text xml:space="preserve" font-family="Helvetica-Light,Helvetica" font-size="36.0" fill="#FEFFFF" transform="matrix(1.00, 0.00, -0.00, -1.00, 571.1, 256.0)">u</text><text xml:space="preserve" font-family="Helvetica-Light,Helvetica" font-size="36.0" fill="#FEFFFF" transform="matrix(1.00, 0.00, -0.00, -1.00, 591.1, 256.0)">c</text><text xml:space="preserve" font-family="Helvetica-Light,Helvetica" font-size="36.0" fill="#FEFFFF" transform="matrix(1.00, 0.00, -0.00, -1.00, 611.1, 256.0)">t</text><text xml:space="preserve" font-family="Helvetica-Light,Helvetica" font-size="36.0" fill="#FEFFFF" transform="matrix(1.00, 0.00, -0.00, -1.00, 621.1, 256.0)">u</text><text xml:space="preserve" font-family="Helvetica-Light,Helvetica" font-size="36.0" fill="#FEFFFF" transform="matrix(1.00, 0.00, -0.00, -1.00, 641.2, 256.0)">u</text><text xml:space="preserve" font-family="Helvetica-Light,Helvetica" font-size="36.0" fill="#FEFFFF" transform="matrix(1.00, 0.00, -0.00, -1.00, 661.2, 256.0)">r</text><text xml:space="preserve" font-family="Helvetica-Light,Helvetica" font-size="36.0" fill="#FEFFFF" transform="matrix(1.00, 0.00, -0.00, -1.00, 673.2, 256.0)"> </text><text xml:space="preserve" font-family="Helvetica-Light,Helvetica" font-size="36.0" fill="#FEFFFF" transform="matrix(1.00, 0.00, -0.00, -1.00, 683.2, 256.0)">(</text><text xml:space="preserve" font-family="Helvetica-Light,Helvetica" font-size="36.0" fill="#FEFFFF" transform="matrix(1.00, 0.00, -0.00, -1.00, 695.2, 256.0)">i</text><text xml:space="preserve" font-family="Helvetica-Light,Helvetica" font-size="36.0" fill="#FEFFFF" transform="matrix(1.00, 0.00, -0.00, -1.00, 703.1, 256.0)">n</text><text xml:space="preserve" font-family="Helvetica-Light,Helvetica" font-size="36.0" fill="#FEFFFF" transform="matrix(1.00, 0.00, -0.00, -1.00, 723.2, 256.0)"> </text><text xml:space="preserve" font-family="Helvetica-Light,Helvetica" font-size="36.0" fill="#FEFFFF" transform="matrix(1.00, 0.00, -0.00, -1.00, 733.2, 256.0)">3</text><text xml:space="preserve" font-family="Helvetica-Light,Helvetica" font-size="36.0" fill="#FEFFFF" transform="matrix(1.00, 0.00, -0.00, -1.00, 753.2, 256.0)">D</text><text xml:space="preserve" font-family="Helvetica-Light,Helvetica" font-size="36.0" fill="#FEFFFF" transform="matrix(1.00, 0.00, -0.00, -1.00, 779.2, 256.0)">)</text><text xml:space="preserve" font-family="Helvetica-Bold,Helvetica" font-weight="bold" font-size="36.0" fill="#FEFFFF" transform="matrix(1.00, 0.00, -0.00, -1.00, 336.0, 476.2)">G</text><text xml:space="preserve" font-family="Helvetica-Bold,Helvetica" font-weight="bold" font-size="36.0" fill="#FEFFFF" transform="matrix(1.00, 0.00, -0.00, -1.00, 364.0, 476.2)">e</text><text xml:space="preserve" font-family="Helvetica-Bold,Helvetica" font-weight="bold" font-size="36.0" fill="#FEFFFF" transform="matrix(1.00, 0.00, -0.00, -1.00, 384.0, 476.2)">b</text><text xml:space="preserve" font-family="Helvetica-Bold,Helvetica" font-weight="bold" font-size="36.0" fill="#FEFFFF" transform="matrix(1.00, 0.00, -0.00, -1.00, 406.0, 476.2)">r</text><text xml:space="preserve" font-family="Helvetica-Bold,Helvetica" font-weight="bold" font-size="36.0" fill="#FEFFFF" transform="matrix(1.00, 0.00, -0.00, -1.00, 420.0, 476.2)">u</text><text xml:space="preserve" font-family="Helvetica-Bold,Helvetica" font-weight="bold" font-size="36.0" fill="#FEFFFF" transform="matrix(1.00, 0.00, -0.00, -1.00, 442.0, 476.2)">i</text><text xml:space="preserve" font-family="Helvetica-Bold,Helvetica" font-weight="bold" font-size="36.0" fill="#FEFFFF" transform="matrix(1.00, 0.00, -0.00, -1.00, 452.0, 476.2)">k</text><text xml:space="preserve" font-family="Helvetica-Bold,Helvetica" font-weight="bold" font-size="36.0" fill="#FEFFFF" transform="matrix(1.00, 0.00, -0.00, -1.00, 472.0, 476.2)"> </text><text xml:space="preserve" font-family="Helvetica-Bold,Helvetica" font-weight="bold" font-size="36.0" fill="#FEFFFF" transform="matrix(1.00, 0.00, -0.00, -1.00, 482.0, 476.2)">S</text><text xml:space="preserve" font-family="Helvetica-Bold,Helvetica" font-weight="bold" font-size="36.0" fill="#FEFFFF" transform="matrix(1.00, 0.00, -0.00, -1.00, 506.0, 476.2)">t</text><text xml:space="preserve" font-family="Helvetica-Bold,Helvetica" font-weight="bold" font-size="36.0" fill="#FEFFFF" transform="matrix(1.00, 0.00, -0.00, -1.00, 518.0, 476.2)">e</text><text xml:space="preserve" font-family="Helvetica-Bold,Helvetica" font-weight="bold" font-size="36.0" fill="#FEFFFF" transform="matrix(1.00, 0.00, -0.00, -1.00, 538.0, 476.2)">m</text><text xml:space="preserve" font-family="Helvetica-Bold,Helvetica" font-weight="bold" font-size="36.0" fill="#FEFFFF" transform="matrix(1.00, 0.00, -0.00, -1.00, 570.0, 476.2)"> </text><text xml:space="preserve" font-family="Helvetica-Bold,Helvetica" font-weight="bold" font-size="36.0" fill="#FEFFFF" transform="matrix(1.00, 0.00, -0.00, -1.00, 580.0, 476.2)">L</text><text xml:space="preserve" font-family="Helvetica-Bold,Helvetica" font-weight="bold" font-size="36.0" fill="#FEFFFF" transform="matrix(1.00, 0.00, -0.00, -1.00, 602.0, 476.2)">o</text><text xml:space="preserve" font-family="Helvetica-Bold,Helvetica" font-weight="bold" font-size="36.0" fill="#FEFFFF" transform="matrix(1.00, 0.00, -0.00, -1.00, 624.0, 476.2)">o</text><text xml:space="preserve" font-family="Helvetica-Bold,Helvetica" font-weight="bold" font-size="36.0" fill="#FEFFFF" transform="matrix(1.00, 0.00, -0.00, -1.00, 646.0, 476.2)">p</text><text xml:space="preserve" font-family="Helvetica-Bold,Helvetica" font-weight="bold" font-size="36.0" fill="#FEFFFF" transform="matrix(1.00, 0.00, -0.00, -1.00, 668.0, 476.2)">s</text></g></svg>